<svg width="60" height="60" viewBox="0 0 60 60" fill="none" xmlns="http://www.w3.org/2000/svg">
<path d="M42.5 5H17.5C10.5964 5 5 10.5964 5 17.5V42.5C5 49.4036 10.5964 55 17.5 55H42.5C49.4036 55 55 49.4036 55 42.5V17.5C55 10.5964 49.4036 5 42.5 5Z" stroke="white" stroke-width="3" stroke-linecap="round" stroke-linejoin="round"/>
<path d="M40 28.425C40.3085 30.5056 39.9531 32.6306 38.9844 34.4976C38.0156 36.3646 36.4829 37.8786 34.6041 38.8242C32.7253 39.7699 30.5961 40.099 28.5195 39.7649C26.4428 39.4307 24.5244 38.4502 23.0371 36.9629C21.5498 35.4756 20.5693 33.5572 20.2352 31.4806C19.901 29.4039 20.2302 27.2748 21.1758 25.396C22.1215 23.5172 23.6355 21.9844 25.5025 21.0156C27.3695 20.0469 29.4944 19.6915 31.575 20C33.6973 20.3147 35.6621 21.3037 37.1792 22.8208C38.6963 24.3379 39.6853 26.3027 40 28.425Z" stroke="white" stroke-width="3" stroke-linecap="round" stroke-linejoin="round"/>
<path d="M43.75 16.25H43.775" stroke="white" stroke-width="3" stroke-linecap="round" stroke-linejoin="round"/>
</svg>
