<svg width="60" height="60" viewBox="0 0 60 60" fill="none" xmlns="http://www.w3.org/2000/svg">
<path d="M40 20C43.9782 20 47.7936 21.5804 50.6066 24.3934C53.4196 27.2064 55 31.0218 55 35V52.5H45V35C45 33.6739 44.4732 32.4021 43.5355 31.4645C42.5979 30.5268 41.3261 30 40 30C38.6739 30 37.4021 30.5268 36.4645 31.4645C35.5268 32.4021 35 33.6739 35 35V52.5H25V35C25 31.0218 26.5804 27.2064 29.3934 24.3934C32.2064 21.5804 36.0218 20 40 20V20Z" stroke="white" stroke-width="3" stroke-linecap="round" stroke-linejoin="round"/>
<path d="M15 22.5H5V52.5H15V22.5Z" stroke="white" stroke-width="3" stroke-linecap="round" stroke-linejoin="round"/>
<path d="M10 15C12.7614 15 15 12.7614 15 10C15 7.23858 12.7614 5 10 5C7.23858 5 5 7.23858 5 10C5 12.7614 7.23858 15 10 15Z" stroke="white" stroke-width="3" stroke-linecap="round" stroke-linejoin="round"/>
</svg>
