<svg width="60" height="60" viewBox="0 0 60 60" fill="none" xmlns="http://www.w3.org/2000/svg">
<path d="M57.5 7.49999C55.106 9.18869 52.4553 10.4803 49.65 11.325C48.1444 9.59377 46.1433 8.36672 43.9176 7.80981C41.6918 7.25289 39.3487 7.39298 37.2052 8.21113C35.0617 9.02927 33.2211 10.486 31.9325 12.3843C30.6438 14.2826 29.9692 16.5308 30 18.825V21.325C25.6066 21.4389 21.2532 20.4645 17.3275 18.4886C13.4019 16.5127 10.0258 13.5966 7.5 9.99999C7.5 9.99999 -2.5 32.5 20 42.5C14.8513 45.9949 8.71789 47.7473 2.5 47.5C25 60 52.5 47.5 52.5 18.75C52.4977 18.0536 52.4307 17.359 52.3 16.675C54.8515 14.1587 56.6521 10.9818 57.5 7.49999V7.49999Z" stroke="white" stroke-width="3" stroke-linecap="round" stroke-linejoin="round"/>
</svg>
