<svg width="642" height="1094" viewBox="0 0 642 1094" fill="none" xmlns="http://www.w3.org/2000/svg">
<path d="M188.493 667.005H106.26V740.021H188.493V667.005Z" fill="#DCFAFE" stroke="#0056D8" stroke-opacity="0.5" stroke-linecap="round" stroke-linejoin="round"/>
<path d="M225.729 667.005H143.496V740.021H225.729V667.005Z" fill="#0056D8" fill-opacity="0.5" stroke="#0056D8" stroke-opacity="0.5" stroke-linecap="round" stroke-linejoin="round"/>
<path d="M434.828 764.833H110.523V1093H434.828V764.833Z" fill="#0056D8" fill-opacity="0.5" stroke="#0056D8" stroke-opacity="0.5" stroke-linecap="round" stroke-linejoin="round"/>
<path d="M434.864 728.981H89.8278V788.333H434.864V728.981Z" fill="#0056D8" fill-opacity="0.5"/>
<path d="M344.433 606.306H244.274V699.797H344.433V606.306Z" fill="#0056D8" fill-opacity="0.5"/>
<path d="M294.372 553.439L233.708 608.164H355.036L294.372 553.439Z" fill="#DCFAFE" stroke="#0056D8" stroke-opacity="0.5" stroke-linecap="round" stroke-linejoin="round"/>
<path d="M355.036 608.164L294.372 553.439L261.289 608.164H355.036Z" fill="#0056D8" fill-opacity="0.5"/>
<path d="M254.549 685.114H247.517V741.478H254.549V685.114Z" fill="#0056D8" fill-opacity="0.5"/>
<path d="M339.077 685.114H332.046V741.478H339.077V685.114Z" fill="#0056D8" fill-opacity="0.5"/>
<path d="M292.805 685.114H285.773V741.478H292.805V685.114Z" fill="#0056D8" fill-opacity="0.5"/>
<path d="M305.886 685.114H298.854V741.478H305.886V685.114Z" fill="#0056D8" fill-opacity="0.5"/>
<path d="M139.816 805.13H122.692V873.591H139.816V805.13Z" fill="#DCFAFE" stroke="#0056D8" stroke-opacity="0.5" stroke-linecap="round" stroke-linejoin="round"/>
<path d="M139.816 913.522H122.692V981.983H139.816V913.522Z" fill="#DCFAFE" stroke="#0056D8" stroke-opacity="0.5" stroke-linecap="round" stroke-linejoin="round"/>
<path d="M626 93H382V1093H626V93Z" fill="#0056D8" fill-opacity="0.5" stroke="#0056D8" stroke-opacity="0.5" stroke-linecap="round" stroke-linejoin="round"/>
<path d="M489.188 142.37H419.052V206.057H489.188V142.37Z" fill="#DCFAFE"/>
<mask id="mask0_401_907" style="mask-type:luminance" maskUnits="userSpaceOnUse" x="419" y="142" width="71" height="65">
<path d="M489.188 142.37H419.052V206.057H489.188V142.37Z" fill="white"/>
</mask>
<g mask="url(#mask0_401_907)">
<g style="mix-blend-mode:multiply" opacity="0.6">
<path d="M489.188 146.632V142.37H478.914L419.052 190.973V203.58" fill="#DCFAFE"/>
<path d="M489.188 173.121V160.514L433.079 206.058H448.6" fill="#DCFAFE"/>
</g>
</g>
<path d="M489.188 142.37H419.052V206.057H489.188V142.37Z" stroke="#0056D8" stroke-opacity="0.5" stroke-linecap="round" stroke-linejoin="round"/>
<path d="M489.188 124.007H419.052V151.697H489.188V124.007Z" fill="#DCFAFE" stroke="#0056D8" stroke-opacity="0.5" stroke-linecap="round" stroke-linejoin="round"/>
<path d="M589.457 142.37H519.32V206.057H589.457V142.37Z" fill="#DCFAFE"/>
<mask id="mask1_401_907" style="mask-type:luminance" maskUnits="userSpaceOnUse" x="519" y="142" width="71" height="65">
<path d="M589.457 142.37H519.32V206.057H589.457V142.37Z" fill="white"/>
</mask>
<g mask="url(#mask1_401_907)">
<g style="mix-blend-mode:multiply" opacity="0.6">
<path d="M519.32 190.973V203.58L589.457 146.632V142.37H579.182" fill="#DCFAFE"/>
<path d="M589.456 173.121V160.514L533.347 206.058H548.868" fill="#DCFAFE"/>
</g>
</g>
<mask id="mask2_401_907" style="mask-type:luminance" maskUnits="userSpaceOnUse" x="519" y="29" width="71" height="65">
<path d="M589.457 29.3696H519.32V93.0574H589.457V29.3696Z" fill="white"/>
</mask>
<g mask="url(#mask2_401_907)">
<g style="mix-blend-mode:multiply" opacity="0.6">
<path d="M519.32 77.9735V90.5799L589.457 33.6325V29.3696H579.182" fill="#DCFAFE"/>
<path d="M589.456 60.1208V47.5144L533.347 93.0578H548.868" fill="#DCFAFE"/>
</g>
</g>
<path d="M589.457 142.37H519.32V206.057H589.457V142.37Z" stroke="#0056D8" stroke-opacity="0.5" stroke-linecap="round" stroke-linejoin="round"/>
<path d="M589.457 124.007H519.32V151.697H589.457V124.007Z" fill="#DCFAFE" stroke="#0056D8" stroke-opacity="0.5" stroke-linecap="round" stroke-linejoin="round"/>
<path d="M489.188 266.37H419.052V330.057H489.188V266.37Z" fill="#DCFAFE"/>
<mask id="mask3_401_907" style="mask-type:luminance" maskUnits="userSpaceOnUse" x="419" y="266" width="71" height="65">
<path d="M489.188 266.37H419.052V330.057H489.188V266.37Z" fill="white"/>
</mask>
<g mask="url(#mask3_401_907)">
<g style="mix-blend-mode:multiply" opacity="0.6">
<path d="M489.188 270.632V266.37H478.914L419.052 314.973V327.58" fill="#DCFAFE"/>
<path d="M489.188 297.121V284.514L433.079 330.058H448.6" fill="#DCFAFE"/>
</g>
</g>
<path d="M489.188 266.37H419.052V330.057H489.188V266.37Z" stroke="#0056D8" stroke-opacity="0.5" stroke-linecap="round" stroke-linejoin="round"/>
<path d="M489.188 248.007H419.052V275.697H489.188V248.007Z" fill="#DCFAFE" stroke="#0056D8" stroke-opacity="0.5" stroke-linecap="round" stroke-linejoin="round"/>
<path d="M589.457 266.37H519.32V330.057H589.457V266.37Z" fill="#DCFAFE"/>
<mask id="mask4_401_907" style="mask-type:luminance" maskUnits="userSpaceOnUse" x="519" y="266" width="71" height="65">
<path d="M589.457 266.37H519.32V330.057H589.457V266.37Z" fill="white"/>
</mask>
<g mask="url(#mask4_401_907)">
<g style="mix-blend-mode:multiply" opacity="0.6">
<path d="M519.32 314.973V327.58L589.457 270.632V266.37H579.182" fill="#DCFAFE"/>
<path d="M589.456 297.121V284.514L533.347 330.058H548.868" fill="#DCFAFE"/>
</g>
</g>
<path d="M589.457 266.37H519.32V330.057H589.457V266.37Z" stroke="#0056D8" stroke-opacity="0.5" stroke-linecap="round" stroke-linejoin="round"/>
<path d="M589.457 248.007H519.32V275.697H589.457V248.007Z" fill="#DCFAFE" stroke="#0056D8" stroke-opacity="0.5" stroke-linecap="round" stroke-linejoin="round"/>
<path d="M489.188 388.645H419.052V452.332H489.188V388.645Z" fill="#DCFAFE"/>
<mask id="mask5_401_907" style="mask-type:luminance" maskUnits="userSpaceOnUse" x="419" y="388" width="71" height="65">
<path d="M489.188 388.645H419.052V452.332H489.188V388.645Z" fill="white"/>
</mask>
<g mask="url(#mask5_401_907)">
<g style="mix-blend-mode:multiply" opacity="0.6">
<path d="M419.052 437.285V449.855L489.188 392.907V388.645H478.914" fill="#DCFAFE"/>
<path d="M489.188 419.396V406.789L433.079 452.333H448.6" fill="#DCFAFE"/>
</g>
</g>
<path d="M489.188 388.645H419.052V452.332H489.188V388.645Z" stroke="#0056D8" stroke-opacity="0.5" stroke-linecap="round" stroke-linejoin="round"/>
<path d="M489.188 370.282H419.052V397.972H489.188V370.282Z" fill="#DCFAFE" stroke="#0056D8" stroke-opacity="0.5" stroke-linecap="round" stroke-linejoin="round"/>
<path d="M589.457 388.645H519.32V452.332H589.457V388.645Z" fill="#DCFAFE"/>
<mask id="mask6_401_907" style="mask-type:luminance" maskUnits="userSpaceOnUse" x="519" y="388" width="71" height="65">
<path d="M589.457 388.645H519.32V452.332H589.457V388.645Z" fill="white"/>
</mask>
<g mask="url(#mask6_401_907)">
<g style="mix-blend-mode:multiply" opacity="0.6">
<path d="M589.457 392.907V388.645H579.182L519.32 437.285V449.855" fill="#DCFAFE"/>
<path d="M533.347 452.333H548.868L589.456 419.396V406.789" fill="#DCFAFE"/>
</g>
</g>
<path d="M589.457 388.645H519.32V452.332H589.457V388.645Z" stroke="#0056D8" stroke-opacity="0.5" stroke-linecap="round" stroke-linejoin="round"/>
<path d="M589.457 370.282H519.32V397.972H589.457V370.282Z" fill="#DCFAFE" stroke="#0056D8" stroke-opacity="0.5" stroke-linecap="round" stroke-linejoin="round"/>
<path d="M489.188 510.919H419.052V574.607H489.188V510.919Z" fill="#DCFAFE"/>
<mask id="mask7_401_907" style="mask-type:luminance" maskUnits="userSpaceOnUse" x="419" y="510" width="71" height="65">
<path d="M489.188 510.919H419.052V574.607H489.188V510.919Z" fill="white"/>
</mask>
<g mask="url(#mask7_401_907)">
<g style="mix-blend-mode:multiply" opacity="0.6">
<path d="M419.052 559.56V572.166L489.188 515.182V510.919H478.914" fill="#DCFAFE"/>
<path d="M489.188 541.67V529.064L433.079 574.607H448.6" fill="#DCFAFE"/>
</g>
</g>
<path d="M489.188 510.919H419.052V574.607H489.188V510.919Z" stroke="#0056D8" stroke-opacity="0.5" stroke-linecap="round" stroke-linejoin="round"/>
<path d="M489.188 492.593H419.052V520.283H489.188V492.593Z" fill="#DCFAFE" stroke="#0056D8" stroke-opacity="0.5" stroke-linecap="round" stroke-linejoin="round"/>
<path d="M589.457 510.919H519.32V574.607H589.457V510.919Z" fill="#DCFAFE"/>
<mask id="mask8_401_907" style="mask-type:luminance" maskUnits="userSpaceOnUse" x="519" y="510" width="71" height="65">
<path d="M589.457 510.919H519.32V574.607H589.457V510.919Z" fill="white"/>
</mask>
<g mask="url(#mask8_401_907)">
<g style="mix-blend-mode:multiply" opacity="0.6">
<path d="M519.32 559.56V572.166L589.457 515.182V510.919H579.182" fill="#DCFAFE"/>
<path d="M533.347 574.607H548.868L589.456 541.67V529.064" fill="#DCFAFE"/>
</g>
</g>
<path d="M589.457 510.919H519.32V574.607H589.457V510.919Z" stroke="#0056D8" stroke-opacity="0.5" stroke-linecap="round" stroke-linejoin="round"/>
<path d="M589.457 492.593H519.32V520.283H589.457V492.593Z" fill="#DCFAFE" stroke="#0056D8" stroke-opacity="0.5" stroke-linecap="round" stroke-linejoin="round"/>
<path d="M489.188 633.194H419.052V696.882H489.188V633.194Z" fill="#DCFAFE"/>
<mask id="mask9_401_907" style="mask-type:luminance" maskUnits="userSpaceOnUse" x="419" y="633" width="71" height="64">
<path d="M489.188 633.194H419.052V696.882H489.188V633.194Z" fill="white"/>
</mask>
<g mask="url(#mask9_401_907)">
<g style="mix-blend-mode:multiply" opacity="0.6">
<path d="M478.914 633.194L419.052 681.834V694.441L489.188 637.457V633.194H478.914Z" fill="#DCFAFE"/>
<path d="M448.6 696.918L489.188 663.945V651.339L433.079 696.918H448.6Z" fill="#DCFAFE"/>
</g>
</g>
<path d="M489.188 633.194H419.052V696.882H489.188V633.194Z" stroke="#0056D8" stroke-opacity="0.5" stroke-linecap="round" stroke-linejoin="round"/>
<path d="M489.188 614.868H419.052V642.558H489.188V614.868Z" fill="#DCFAFE" stroke="#0056D8" stroke-opacity="0.5" stroke-linecap="round" stroke-linejoin="round"/>
<path d="M589.457 633.194H519.32V696.882H589.457V633.194Z" fill="#DCFAFE"/>
<mask id="mask10_401_907" style="mask-type:luminance" maskUnits="userSpaceOnUse" x="519" y="633" width="71" height="64">
<path d="M589.457 633.194H519.32V696.882H589.457V633.194Z" fill="white"/>
</mask>
<g mask="url(#mask10_401_907)">
<g style="mix-blend-mode:multiply" opacity="0.6">
<path d="M519.32 681.834V694.441L589.457 637.457V633.194H579.182" fill="#DCFAFE"/>
<path d="M533.347 696.918H548.868L589.456 663.945V651.339" fill="#DCFAFE"/>
</g>
</g>
<path d="M589.457 633.194H519.32V696.882H589.457V633.194Z" stroke="#0056D8" stroke-opacity="0.5" stroke-linecap="round" stroke-linejoin="round"/>
<path d="M589.457 614.868H519.32V642.558H589.457V614.868Z" fill="#DCFAFE" stroke="#0056D8" stroke-opacity="0.5" stroke-linecap="round" stroke-linejoin="round"/>
<path d="M489.188 755.469H419.052V819.157H489.188V755.469Z" fill="#DCFAFE"/>
<mask id="mask11_401_907" style="mask-type:luminance" maskUnits="userSpaceOnUse" x="419" y="755" width="71" height="65">
<path d="M489.188 755.469H419.052V819.157H489.188V755.469Z" fill="white"/>
</mask>
<g mask="url(#mask11_401_907)">
<g style="mix-blend-mode:multiply" opacity="0.6">
<path d="M478.914 755.469L419.052 804.109V816.716L489.188 759.732V755.469H478.914Z" fill="#DCFAFE"/>
<path d="M448.6 819.194L489.188 786.22V773.614L433.079 819.194H448.6Z" fill="#DCFAFE"/>
</g>
</g>
<path d="M489.188 755.469H419.052V819.157H489.188V755.469Z" stroke="#0056D8" stroke-opacity="0.5" stroke-linecap="round" stroke-linejoin="round"/>
<path d="M489.188 737.143H419.052V764.833H489.188V737.143Z" fill="#DCFAFE" stroke="#0056D8" stroke-opacity="0.5" stroke-linecap="round" stroke-linejoin="round"/>
<path d="M589.457 755.469H519.32V819.157H589.457V755.469Z" fill="#DCFAFE"/>
<mask id="mask12_401_907" style="mask-type:luminance" maskUnits="userSpaceOnUse" x="519" y="755" width="71" height="65">
<path d="M589.457 755.469H519.32V819.157H589.457V755.469Z" fill="white"/>
</mask>
<g mask="url(#mask12_401_907)">
<g style="mix-blend-mode:multiply" opacity="0.6">
<path d="M579.182 755.469L519.32 804.109V816.716L589.457 759.732V755.469H579.182Z" fill="#DCFAFE"/>
<path d="M548.868 819.194L589.456 786.22V773.614L533.347 819.194H548.868Z" fill="#DCFAFE"/>
</g>
</g>
<path d="M589.457 755.469H519.32V819.157H589.457V755.469Z" stroke="#0056D8" stroke-opacity="0.5" stroke-linecap="round" stroke-linejoin="round"/>
<path d="M589.457 737.143H519.32V764.833H589.457V737.143Z" fill="#DCFAFE" stroke="#0056D8" stroke-opacity="0.5" stroke-linecap="round" stroke-linejoin="round"/>
<path d="M489.188 877.744H419.052V941.432H489.188V877.744Z" fill="#DCFAFE"/>
<mask id="mask13_401_907" style="mask-type:luminance" maskUnits="userSpaceOnUse" x="419" y="877" width="71" height="65">
<path d="M489.188 877.744H419.052V941.432H489.188V877.744Z" fill="white"/>
</mask>
<g mask="url(#mask13_401_907)">
<g style="mix-blend-mode:multiply" opacity="0.6">
<path d="M478.914 877.744L419.052 926.384V938.991L489.188 882.007V877.744H478.914Z" fill="#DCFAFE"/>
<path d="M448.6 941.468L489.188 908.494V895.888L433.079 941.468H448.6Z" fill="#DCFAFE"/>
</g>
</g>
<path d="M489.188 877.744H419.052V941.432H489.188V877.744Z" stroke="#0056D8" stroke-opacity="0.5" stroke-linecap="round" stroke-linejoin="round"/>
<path d="M489.188 859.417H419.052V887.107H489.188V859.417Z" fill="#DCFAFE" stroke="#0056D8" stroke-opacity="0.5" stroke-linecap="round" stroke-linejoin="round"/>
<path d="M589.457 877.744H519.32V941.432H589.457V877.744Z" fill="#DCFAFE"/>
<mask id="mask14_401_907" style="mask-type:luminance" maskUnits="userSpaceOnUse" x="519" y="877" width="71" height="65">
<path d="M589.457 877.744H519.32V941.432H589.457V877.744Z" fill="white"/>
</mask>
<g mask="url(#mask14_401_907)">
<g style="mix-blend-mode:multiply" opacity="0.6">
<path d="M579.182 877.744L519.32 926.384V938.991L589.457 882.007V877.744H579.182Z" fill="#DCFAFE"/>
<path d="M548.868 941.468L589.456 908.494V895.888L533.347 941.468H548.868Z" fill="#DCFAFE"/>
</g>
</g>
<path d="M589.457 877.744H519.32V941.432H589.457V877.744Z" stroke="#0056D8" stroke-opacity="0.5" stroke-linecap="round" stroke-linejoin="round"/>
<path d="M589.457 859.417H519.32V887.107H589.457V859.417Z" fill="#DCFAFE" stroke="#0056D8" stroke-opacity="0.5" stroke-linecap="round" stroke-linejoin="round"/>
<path d="M530.836 1H382V92.7425H530.836V1Z" fill="#0056D8" fill-opacity="0.5" stroke="#0056D8" stroke-opacity="0.5" stroke-linecap="round" stroke-linejoin="round"/>
<path d="M530.906 1H479.387V92.7425H530.906V1Z" fill="#DCFAFE" stroke="#0056D8" stroke-opacity="0.5" stroke-linecap="round" stroke-linejoin="round"/>
<path d="M641 50H367V93H641V50Z" fill="#0056D8" fill-opacity="0.5" stroke="#0056D8" stroke-opacity="0.5" stroke-linecap="round" stroke-linejoin="round"/>
<path d="M237.826 1069.5C237.826 1069.5 268.285 1059.44 259.686 1067.24C258.531 1068.32 257.315 1069.33 256.043 1070.26H165.94L163.207 1064.76L162.551 1063.45L161.458 1061.23L172.389 1053.94L160.839 1060.14L157.815 1053.32L160.147 1030.41L156.503 1051.28L154.281 1045.71L144.188 1026.4L160.584 1062.83L137.12 1053.5L161.568 1064.84L164.41 1070.59H67.0926C61.7731 1070.01 54.304 1068.48 52.9559 1064.22C50.7698 1057.55 73.6144 1057.55 73.6144 1057.55C73.6144 1057.55 49.6768 1047.49 58.3847 1045.27C67.0926 1043.05 82.3223 1051.94 82.3223 1051.94C82.3223 1051.94 73.6144 1031.86 84.4719 1036.31C87.3315 1037.47 89.9209 1039.2 92.0776 1041.41C94.2343 1043.62 95.912 1046.25 97.0055 1049.13C95.8396 1045.2 93.6535 1035.91 99.7016 1038.57C103.49 1040.47 106.67 1043.4 108.883 1047.02C105.968 1041.04 103.418 1032.15 116.17 1035.21C116.17 1035.21 113.51 1007.82 142.257 1002.82C171.004 997.833 169.474 1037.44 179.239 1045.27C189.003 1053.1 201.099 1044.14 205.362 1053.07C209.625 1061.99 208.605 1066.48 208.605 1066.48C208.605 1066.48 224.928 1022.94 227.114 1035.21C228.063 1043.42 226.131 1051.7 221.649 1058.64C221.649 1058.64 247.772 1024.03 242.343 1037.44C239.015 1045.58 235.005 1053.43 230.356 1060.9C230.356 1060.9 266.245 1051.94 260.816 1057.55C255.387 1063.16 237.826 1069.5 237.826 1069.5Z" fill="#DCFAFE"/>
<path d="M194.687 1063.2C194.942 1061.19 195.306 1058.31 195.962 1054.89C196.144 1053.91 196.326 1052.89 196.581 1051.79C198.453 1052.08 200.357 1052.08 202.229 1051.79C203.004 1051.58 203.728 1051.22 204.355 1050.72C204.982 1050.21 205.498 1049.59 205.872 1048.88C206.009 1048.52 206.073 1048.15 206.058 1047.77C206.043 1047.39 205.951 1047.02 205.787 1046.68C205.623 1046.34 205.391 1046.03 205.105 1045.78C204.819 1045.54 204.485 1045.35 204.123 1045.23C201.901 1044.65 198.731 1047.35 197.602 1049.1C197.602 1049.1 196.836 1050.59 196.508 1051.32C196.508 1050.66 196.8 1050.04 196.946 1049.35C197.091 1048.66 197.419 1047.38 197.638 1046.4C197.857 1045.42 197.966 1045.38 198.112 1044.87C198.257 1044.36 198.439 1043.89 198.585 1043.34L199.46 1041.12C201.184 1041.65 202.975 1041.93 204.779 1041.96C205.605 1041.89 206.407 1041.65 207.13 1041.25C207.854 1040.85 208.481 1040.29 208.969 1039.62C209.17 1039.3 209.299 1038.93 209.348 1038.55C209.398 1038.17 209.366 1037.78 209.256 1037.41C209.146 1037.05 208.96 1036.71 208.71 1036.41C208.459 1036.12 208.15 1035.89 207.803 1035.72C205.69 1034.81 202.156 1037 200.771 1038.57L200.188 1039.4L201.172 1037.22C202.156 1035.14 203.249 1033.1 204.305 1031.02L204.961 1029.71C206.712 1030.29 208.545 1030.59 210.39 1030.59C211.22 1030.54 212.029 1030.31 212.76 1029.91C213.49 1029.52 214.124 1028.96 214.616 1028.29C214.816 1027.96 214.943 1027.59 214.99 1027.21C215.037 1026.83 215.003 1026.44 214.889 1026.07C214.776 1025.71 214.585 1025.37 214.331 1025.08C214.077 1024.79 213.765 1024.55 213.414 1024.39C211.301 1023.48 207.767 1025.67 206.419 1027.2C206.419 1027.2 206.054 1027.67 205.726 1028.18C206.309 1027.02 206.856 1025.89 207.33 1024.76C208.225 1022.8 208.98 1020.78 209.588 1018.71C211.403 1019.29 213.294 1019.6 215.199 1019.62C216.024 1019.57 216.828 1019.34 217.553 1018.94C218.277 1018.55 218.905 1017.99 219.389 1017.33C219.59 1017 219.719 1016.63 219.769 1016.25C219.818 1015.87 219.787 1015.48 219.677 1015.12C219.567 1014.75 219.381 1014.41 219.13 1014.12C218.88 1013.83 218.571 1013.59 218.224 1013.43C216.11 1012.52 212.576 1014.7 211.192 1016.23L209.661 1018.45C210.189 1016.41 210.555 1014.33 210.754 1012.22C210.92 1010.33 210.981 1008.44 210.937 1006.54C210.937 1004.79 210.754 1003.19 210.645 1001.8C210.645 1001.04 210.645 1000.31 210.39 999.691C210.39 999.691 211.228 997.031 211.265 996.886C211.629 994.845 211.264 990.728 209.078 989.599C208.739 989.456 208.375 989.383 208.007 989.383C207.639 989.383 207.275 989.457 206.936 989.599C206.596 989.742 206.289 989.95 206.031 990.213C205.774 990.476 205.571 990.787 205.435 991.129C205.228 991.926 205.196 992.759 205.34 993.57C205.485 994.382 205.803 995.152 206.273 995.829C207.447 997.251 208.836 998.48 210.39 999.472C210.39 1000.16 210.39 1000.89 210.609 1001.69C210.609 1003.12 210.609 1004.72 210.609 1006.43C210.609 1006.91 210.609 1007.42 210.609 1007.89C210.609 1007.09 210.244 1005.96 210.208 1005.85C209.589 1003.88 207.22 1000.46 204.925 1000.46C204.541 1000.46 204.162 1000.54 203.813 1000.7C203.464 1000.86 203.153 1001.09 202.902 1001.38C202.65 1001.67 202.463 1002.01 202.353 1002.38C202.243 1002.75 202.213 1003.14 202.265 1003.52C202.451 1004.32 202.807 1005.08 203.31 1005.74C203.812 1006.4 204.45 1006.95 205.18 1007.34C206.893 1008.08 208.713 1008.55 210.572 1008.73C210.572 1009.82 210.572 1010.91 210.354 1012.04C210.127 1014.13 209.713 1016.19 209.115 1018.2V1018.53C209.115 1018.13 209.115 1015.83 208.896 1015.65C208.495 1013.65 206.528 1009.97 204.233 1009.71C203.851 1009.67 203.467 1009.72 203.105 1009.84C202.742 1009.97 202.411 1010.17 202.131 1010.43C201.852 1010.69 201.632 1011.01 201.485 1011.36C201.339 1011.72 201.269 1012.1 201.281 1012.48C201.362 1013.3 201.622 1014.1 202.044 1014.81C202.466 1015.52 203.039 1016.13 203.723 1016.6C205.399 1017.53 207.204 1018.2 209.078 1018.6C208.44 1020.58 207.673 1022.51 206.783 1024.39C206.127 1025.81 205.399 1027.2 204.67 1028.58C204.67 1028.04 204.67 1025.89 204.451 1025.74C204.05 1023.74 202.083 1020.06 199.824 1019.8C199.441 1019.77 199.055 1019.81 198.691 1019.94C198.327 1020.06 197.993 1020.26 197.711 1020.52C197.429 1020.78 197.205 1021.1 197.055 1021.45C196.904 1021.81 196.83 1022.19 196.836 1022.57C196.924 1023.39 197.191 1024.18 197.62 1024.89C198.048 1025.59 198.626 1026.2 199.314 1026.65C200.967 1027.61 202.763 1028.3 204.633 1028.69C204.269 1029.31 203.941 1029.93 203.613 1030.55C202.52 1032.63 201.391 1034.67 200.334 1036.71C200.006 1037.44 199.678 1038.13 199.314 1038.86C199.314 1038.06 199.314 1036.56 199.314 1036.42C198.913 1034.41 196.946 1030.73 194.65 1030.48C194.269 1030.44 193.885 1030.49 193.522 1030.61C193.16 1030.73 192.828 1030.93 192.549 1031.2C192.27 1031.46 192.05 1031.78 191.903 1032.13C191.757 1032.48 191.687 1032.86 191.699 1033.25C191.779 1034.07 192.043 1034.87 192.471 1035.59C192.9 1036.3 193.483 1036.91 194.177 1037.36C195.768 1038.27 197.488 1038.94 199.277 1039.33C198.731 1040.53 198.221 1041.74 197.784 1042.98C197.784 1043.52 197.383 1044.03 197.237 1044.54L196.763 1046.07C196.472 1047.13 196.181 1048.08 195.962 1049.06C195.743 1050.04 195.707 1050.04 195.598 1050.52C195.598 1049.68 195.598 1048.37 195.598 1048.26C195.598 1046.18 194.14 1042.28 191.954 1041.66C191.581 1041.57 191.193 1041.55 190.814 1041.62C190.434 1041.69 190.074 1041.83 189.756 1042.05C189.439 1042.27 189.172 1042.55 188.973 1042.88C188.773 1043.21 188.647 1043.58 188.602 1043.96C188.56 1044.79 188.702 1045.62 189.017 1046.38C189.332 1047.15 189.812 1047.84 190.424 1048.4C191.926 1049.55 193.582 1050.48 195.343 1051.17C195.051 1052.34 194.796 1053.51 194.577 1054.6C193.849 1058.02 193.412 1060.94 193.12 1062.94C192.829 1064.95 192.683 1066.15 192.683 1066.15C192.673 1066.25 192.684 1066.36 192.715 1066.46C192.746 1066.56 192.797 1066.66 192.865 1066.74C192.933 1066.82 193.016 1066.89 193.11 1066.93C193.204 1066.98 193.306 1067.01 193.412 1067.02C193.517 1067.03 193.623 1067.02 193.724 1066.99C193.825 1066.96 193.919 1066.91 194.001 1066.84C194.082 1066.77 194.149 1066.69 194.198 1066.6C194.247 1066.5 194.277 1066.4 194.286 1066.29C194.286 1066.29 194.432 1065.2 194.687 1063.2Z" fill="#DCFAFE"/>
<path d="M211.119 1008.54C213.044 1008.62 214.97 1008.43 216.839 1007.96C217.62 1007.69 218.33 1007.24 218.922 1006.66C219.514 1006.09 219.972 1005.38 220.264 1004.61C220.372 1004.24 220.401 1003.86 220.349 1003.48C220.297 1003.1 220.165 1002.74 219.962 1002.41C219.759 1002.09 219.489 1001.81 219.17 1001.6C218.852 1001.39 218.492 1001.25 218.114 1001.18C215.819 1000.86 212.977 1003.88 212.103 1005.74C212.03 1005.92 211.082 1008.54 211.119 1008.54Z" fill="#DCFAFE"/>
<path d="M192.464 1063.16C191.553 1061.37 190.315 1058.75 188.821 1055.55C188.42 1054.63 188.019 1053.65 187.618 1052.63C189.34 1051.85 190.936 1050.82 192.355 1049.57C192.93 1048.97 193.367 1048.25 193.637 1047.46C193.908 1046.68 194.005 1045.84 193.922 1045.02C193.851 1044.62 193.694 1044.25 193.464 1043.92C193.233 1043.6 192.933 1043.32 192.585 1043.13C192.238 1042.93 191.851 1042.81 191.453 1042.78C191.054 1042.74 190.653 1042.8 190.278 1042.94C188.092 1043.67 186.963 1047.68 186.999 1049.72C186.999 1049.72 186.999 1051.43 187.291 1052.19C187.072 1051.57 186.817 1050.99 186.562 1050.34C186.307 1049.68 185.87 1048.44 185.542 1047.46L185.068 1045.96C184.886 1045.45 184.777 1044.94 184.631 1044.4C184.485 1043.85 184.303 1042.87 184.121 1042.06C185.853 1041.58 187.5 1040.83 189.003 1039.84C189.664 1039.34 190.207 1038.69 190.597 1037.96C190.987 1037.22 191.214 1036.41 191.262 1035.58C191.246 1035.2 191.149 1034.82 190.978 1034.48C190.808 1034.13 190.567 1033.83 190.271 1033.59C189.976 1033.34 189.633 1033.16 189.263 1033.06C188.894 1032.96 188.508 1032.94 188.129 1032.99C185.833 1033.39 184.121 1037.15 183.829 1039.19C183.829 1039.19 183.829 1039.7 183.829 1040.21C183.829 1039.44 183.538 1038.68 183.428 1037.87C183.137 1035.62 182.882 1033.28 182.627 1030.99C182.627 1030.48 182.627 1030 182.627 1029.53C184.409 1029.04 186.105 1028.28 187.655 1027.27C188.316 1026.77 188.859 1026.12 189.249 1025.39C189.639 1024.65 189.866 1023.84 189.914 1023.01C189.898 1022.63 189.801 1022.25 189.63 1021.91C189.46 1021.56 189.219 1021.26 188.923 1021.02C188.628 1020.77 188.284 1020.59 187.915 1020.49C187.546 1020.39 187.159 1020.37 186.78 1020.42C184.485 1020.82 182.773 1024.58 182.481 1026.62C182.481 1026.62 182.481 1027.24 182.481 1027.82C182.481 1026.54 182.153 1025.3 181.935 1024.17C181.586 1022.06 181.1 1019.96 180.477 1017.91C182.308 1017.39 184.051 1016.61 185.651 1015.58C186.316 1015.08 186.861 1014.43 187.245 1013.7C187.63 1012.96 187.845 1012.14 187.873 1011.31C187.857 1010.93 187.761 1010.56 187.59 1010.21C187.419 1009.87 187.179 1009.57 186.883 1009.32C186.588 1009.08 186.244 1008.9 185.875 1008.8C185.506 1008.69 185.119 1008.67 184.74 1008.73C182.481 1009.13 180.732 1012.92 180.477 1014.96C180.477 1014.96 180.477 1017 180.477 1017.65C179.817 1015.65 178.975 1013.71 177.963 1011.86C177.075 1010.2 176.089 1008.59 175.012 1007.05C174.028 1005.59 173.008 1004.35 172.134 1003.22L170.749 1001.59C170.749 1001.59 169.984 998.926 169.911 998.743C169.073 996.885 166.268 993.715 164.082 993.934C163.702 993.985 163.337 994.114 163.011 994.315C162.684 994.516 162.404 994.783 162.187 995.099C161.971 995.415 161.823 995.773 161.754 996.15C161.685 996.527 161.696 996.914 161.786 997.286C162.031 998.097 162.452 998.845 163.019 999.474C163.585 1000.1 164.284 1000.6 165.065 1000.93C166.847 1001.48 168.703 1001.75 170.567 1001.73L171.952 1003.48C172.826 1004.61 173.773 1005.88 174.721 1007.34C174.976 1007.71 175.231 1008.14 175.486 1008.54L174.028 1007.09C172.425 1005.78 168.563 1004.21 166.741 1005.48C166.43 1005.7 166.168 1005.98 165.972 1006.31C165.775 1006.63 165.649 1007 165.601 1007.38C165.553 1007.75 165.584 1008.14 165.693 1008.5C165.801 1008.86 165.985 1009.2 166.231 1009.49C166.829 1010.07 167.546 1010.52 168.332 1010.79C169.119 1011.07 169.956 1011.17 170.786 1011.09C172.626 1010.75 174.406 1010.13 176.069 1009.27C176.615 1010.18 177.162 1011.13 177.672 1012.19C178.642 1014.03 179.435 1015.95 180.04 1017.94C180.054 1018.07 180.054 1018.19 180.04 1018.31C179.821 1017.98 178.4 1016.16 178.291 1016.05C176.834 1014.59 173.19 1012.59 171.004 1013.65C170.67 1013.83 170.377 1014.08 170.146 1014.38C169.914 1014.68 169.748 1015.03 169.659 1015.4C169.57 1015.77 169.559 1016.16 169.628 1016.53C169.696 1016.91 169.842 1017.27 170.057 1017.58C170.582 1018.22 171.243 1018.74 171.993 1019.1C172.742 1019.46 173.562 1019.65 174.393 1019.66C176.306 1019.53 178.188 1019.1 179.967 1018.38C180.529 1020.39 180.955 1022.44 181.242 1024.5C181.461 1026.03 181.643 1027.56 181.789 1029.13L180.04 1026.91C178.583 1025.41 174.939 1023.26 172.753 1024.5C172.416 1024.68 172.12 1024.93 171.885 1025.23C171.649 1025.53 171.48 1025.88 171.387 1026.25C171.294 1026.62 171.28 1027.01 171.346 1027.39C171.412 1027.76 171.556 1028.12 171.769 1028.44C172.296 1029.08 172.958 1029.6 173.707 1029.96C174.456 1030.32 175.275 1030.51 176.105 1030.51C178.004 1030.39 179.872 1029.97 181.643 1029.28L181.862 1031.39C182.08 1033.68 182.263 1036.02 182.518 1038.31L182.846 1040.68C182.372 1040.02 181.425 1038.86 181.352 1038.75C179.894 1037.29 176.251 1035.32 174.065 1036.34C173.733 1036.53 173.444 1036.79 173.215 1037.1C172.987 1037.4 172.823 1037.75 172.734 1038.13C172.645 1038.5 172.634 1038.88 172.7 1039.26C172.765 1039.64 172.908 1040 173.117 1040.32C173.65 1040.95 174.313 1041.46 175.061 1041.81C175.81 1042.16 176.626 1042.35 177.453 1042.36C179.289 1042.25 181.097 1041.86 182.809 1041.19C183.028 1042.47 183.246 1043.78 183.538 1045.02C183.538 1045.56 183.793 1046.11 183.939 1046.62L184.376 1048.15L185.36 1051.1C185.542 1051.57 185.724 1052.01 185.87 1052.48C185.469 1051.76 184.813 1050.59 184.74 1050.52C183.538 1048.84 180.222 1046.33 178.036 1047.06C177.691 1047.19 177.376 1047.39 177.111 1047.64C176.846 1047.9 176.635 1048.21 176.492 1048.55C176.349 1048.89 176.276 1049.26 176.279 1049.63C176.281 1050 176.358 1050.36 176.506 1050.7C176.933 1051.41 177.509 1052.02 178.195 1052.48C178.881 1052.95 179.659 1053.26 180.477 1053.4C182.369 1053.57 184.276 1053.43 186.125 1052.99C186.525 1054.16 186.963 1055.25 187.363 1056.27C188.675 1059.55 189.877 1062.21 190.752 1064.07C191.626 1065.93 192.173 1066.99 192.173 1066.99C192.274 1067.17 192.446 1067.31 192.651 1067.38C192.856 1067.44 193.077 1067.42 193.266 1067.31C193.454 1067.21 193.595 1067.04 193.656 1066.84C193.718 1066.63 193.695 1066.41 193.594 1066.22C193.594 1066.22 193.229 1064.98 192.464 1063.16Z" fill="#DCFAFE"/>
<path d="M175.886 1008.51C177.546 1007.53 179.046 1006.3 180.332 1004.86C180.832 1004.21 181.182 1003.45 181.359 1002.65C181.535 1001.84 181.532 1001.01 181.352 1000.2C181.24 999.839 181.053 999.506 180.803 999.221C180.554 998.937 180.247 998.708 179.903 998.55C179.56 998.392 179.187 998.308 178.809 998.304C178.43 998.299 178.055 998.375 177.708 998.524C175.595 999.508 174.939 1003.59 175.194 1005.81C175.194 1005.81 175.85 1008.54 175.886 1008.51Z" fill="#DCFAFE"/>
<path d="M607.237 1069.28C607.237 1069.28 646.113 1056.46 635 1066.44C633.508 1067.73 631.951 1068.95 630.336 1070.08H515.494L512.033 1063.09L511.195 1061.37L509.81 1058.53L523.583 1049.06L509.009 1056.93L505.147 1048.22L508.134 1019.07L503.434 1045.74L500.592 1038.46L487.585 1014.05L508.499 1060.35L478.549 1048.44L509.774 1063.01L513.417 1070.3H389.212C382.471 1069.57 372.925 1067.6 371.176 1062.18C368.407 1053.65 397.555 1053.65 397.555 1053.65C397.555 1053.65 367.023 1040.83 378.136 1037.98C389.248 1035.14 408.668 1046.51 408.668 1046.51C408.668 1046.51 397.737 1021.01 411.437 1026.58C415.084 1028.04 418.387 1030.25 421.134 1033.06C423.882 1035.87 426.014 1039.22 427.395 1042.9C425.938 1037.87 423.132 1026.03 430.856 1029.42C435.688 1031.92 439.735 1035.7 442.552 1040.35C438.909 1032.74 435.593 1021.41 451.661 1025.3C451.661 1025.3 448.272 990.363 484.962 983.987C521.652 977.611 519.684 1028.15 532.327 1038.13C544.97 1048.11 560.09 1036.67 565.665 1048.08C571.239 1059.48 569.818 1065.16 569.818 1065.16C569.818 1065.16 590.623 1009.64 593.392 1025.3C596.161 1040.97 586.469 1055.22 586.469 1055.22C586.469 1055.22 619.77 1011.06 612.848 1028.15C608.608 1038.53 603.502 1048.53 597.582 1058.06C597.582 1058.06 643.38 1046.66 636.421 1053.8C629.462 1060.94 607.237 1069.28 607.237 1069.28Z" fill="#DCFAFE"/>
<path d="M552.184 1061.23C552.512 1058.68 553.022 1055 553.823 1050.66C554.042 1049.39 554.297 1048.08 554.589 1046.69C557.003 1047.06 559.461 1047.06 561.875 1046.69C562.897 1046.47 563.859 1046.03 564.695 1045.4C565.531 1044.77 566.222 1043.97 566.721 1043.05C566.883 1042.6 566.954 1042.12 566.929 1041.64C566.905 1041.16 566.786 1040.69 566.579 1040.25C566.373 1039.82 566.083 1039.43 565.726 1039.11C565.369 1038.79 564.952 1038.54 564.499 1038.38C561.657 1037.62 557.613 1041.08 556.192 1043.27C556.192 1043.27 555.208 1045.2 554.771 1046.15C554.953 1045.31 555.135 1044.51 555.317 1043.63C555.499 1042.76 555.937 1041.12 556.228 1039.99C556.447 1039.33 556.629 1038.68 556.811 1038.02C556.993 1037.36 557.248 1036.75 557.43 1036.09C557.613 1035.43 558.159 1034.16 558.56 1033.21C560.747 1033.93 563.034 1034.3 565.337 1034.3C566.393 1034.23 567.419 1033.92 568.344 1033.4C569.269 1032.89 570.071 1032.17 570.693 1031.32C570.922 1030.89 571.065 1030.43 571.114 1029.95C571.164 1029.47 571.117 1028.99 570.978 1028.53C570.84 1028.07 570.611 1027.64 570.305 1027.27C570 1026.89 569.624 1026.59 569.199 1026.36C566.503 1025.2 561.912 1028 560.236 1030L559.471 1031.06C559.872 1030.15 560.309 1029.2 560.746 1028.29C561.985 1025.67 563.369 1023.01 564.717 1020.39L565.555 1018.71C567.806 1019.43 570.152 1019.81 572.514 1019.84C573.568 1019.76 574.592 1019.46 575.517 1018.95C576.442 1018.44 577.245 1017.74 577.87 1016.89C578.1 1016.47 578.243 1016 578.292 1015.52C578.341 1015.04 578.295 1014.56 578.156 1014.1C578.017 1013.64 577.788 1013.21 577.483 1012.84C577.178 1012.47 576.801 1012.16 576.376 1011.93C573.68 1010.77 569.09 1013.54 567.414 1015.58L566.539 1016.82C567.268 1015.36 567.96 1013.9 568.616 1012.44C569.738 1009.95 570.688 1007.38 571.458 1004.76C573.815 1005.51 576.271 1005.9 578.745 1005.92C579.798 1005.85 580.822 1005.54 581.747 1005.03C582.672 1004.53 583.475 1003.82 584.101 1002.97C584.329 1002.55 584.47 1002.08 584.516 1001.6C584.563 1001.12 584.514 1000.63 584.371 1000.17C584.229 999.712 583.996 999.284 583.687 998.913C583.378 998.543 582.998 998.238 582.57 998.015C579.874 996.849 575.283 999.618 573.644 1001.66L571.676 1004.5C572.372 1001.9 572.836 999.241 573.061 996.558C573.296 994.136 573.369 991.702 573.28 989.271C573.263 987.238 573.142 985.207 572.915 983.186C572.915 982.202 572.915 981.328 572.624 980.49C572.624 980.49 573.68 977.102 573.717 976.847C574.19 974.223 573.535 968.977 570.948 967.592C570.506 967.4 570.03 967.298 569.548 967.291C569.066 967.285 568.587 967.374 568.14 967.553C567.692 967.733 567.285 968 566.942 968.338C566.598 968.676 566.325 969.079 566.138 969.523C565.859 970.545 565.805 971.615 565.981 972.66C566.157 973.704 566.559 974.698 567.158 975.571C568.676 977.403 570.456 978.999 572.441 980.308C572.441 981.182 572.624 982.093 572.697 983.113C572.697 984.935 572.952 986.975 572.952 989.198C572.952 989.781 572.952 990.437 572.952 991.056C572.952 989.999 572.478 988.579 572.441 988.433C571.676 985.919 568.798 981.547 565.738 981.51C565.255 981.542 564.784 981.67 564.352 981.886C563.92 982.102 563.535 982.402 563.219 982.768C562.904 983.134 562.665 983.56 562.515 984.019C562.366 984.479 562.309 984.963 562.349 985.445C562.568 986.474 563.007 987.442 563.636 988.285C564.265 989.128 565.069 989.825 565.993 990.327C568.182 991.273 570.505 991.875 572.879 992.113C572.879 993.497 572.879 994.882 572.551 996.339C572.279 998.994 571.754 1001.62 570.984 1004.17V1004.61C570.984 1004.06 570.766 1001.15 570.693 1000.97C570.183 998.416 567.705 993.679 564.79 993.388C563.824 993.388 562.897 993.772 562.214 994.455C561.531 995.138 561.147 996.065 561.147 997.031C561.258 998.081 561.596 999.093 562.137 999.999C562.678 1000.9 563.409 1001.68 564.28 1002.28C566.411 1003.47 568.707 1004.34 571.093 1004.86C570.27 1007.35 569.297 1009.78 568.179 1012.15C567.341 1013.94 566.43 1015.8 565.483 1017.47C565.483 1016.74 565.227 1014.05 565.191 1013.83C564.681 1011.28 562.203 1006.54 559.252 1006.25C558.286 1006.25 557.359 1006.63 556.676 1007.32C555.993 1008 555.609 1008.93 555.609 1009.89C555.724 1010.95 556.068 1011.96 556.615 1012.87C557.162 1013.77 557.901 1014.55 558.778 1015.14C560.901 1016.32 563.184 1017.19 565.555 1017.73L564.28 1020.13C562.859 1022.72 561.438 1025.34 560.127 1027.96C559.665 1028.89 559.228 1029.8 558.815 1030.7C558.815 1029.64 558.596 1027.75 558.56 1027.6C558.05 1025.01 555.536 1020.31 552.621 1019.99C551.655 1019.99 550.728 1020.37 550.045 1021.05C549.361 1021.74 548.978 1022.66 548.978 1023.63C549.084 1024.68 549.419 1025.7 549.96 1026.62C550.502 1027.53 551.236 1028.31 552.111 1028.91C554.156 1030.07 556.368 1030.91 558.669 1031.39C557.977 1032.92 557.321 1034.45 556.738 1035.98C556.483 1036.64 556.228 1037.33 556.046 1037.98C555.864 1038.64 555.609 1039.26 555.426 1039.92C555.062 1041.26 554.698 1042.5 554.406 1043.74C554.406 1044.4 554.115 1044.98 553.969 1045.6C553.969 1044.54 554.151 1042.83 554.151 1042.68C554.151 1040.06 552.293 1035.07 549.451 1034.27C548.977 1034.17 548.489 1034.17 548.015 1034.27C547.541 1034.36 547.091 1034.55 546.691 1034.82C546.291 1035.1 545.949 1035.44 545.684 1035.85C545.42 1036.25 545.239 1036.71 545.152 1037.18C545.103 1038.24 545.287 1039.3 545.69 1040.28C546.092 1041.26 546.705 1042.15 547.484 1042.87C549.383 1044.38 551.495 1045.61 553.751 1046.51C553.423 1048 553.058 1049.5 552.803 1050.88C551.892 1055.25 551.309 1058.93 550.909 1061.52C550.508 1064.11 550.399 1065.6 550.399 1065.6C550.378 1065.88 550.466 1066.15 550.643 1066.36C550.82 1066.57 551.072 1066.7 551.346 1066.73C551.483 1066.75 551.621 1066.73 551.753 1066.69C551.885 1066.65 552.007 1066.59 552.113 1066.5C552.218 1066.41 552.305 1066.3 552.367 1066.18C552.43 1066.06 552.466 1065.92 552.475 1065.78C552.475 1065.78 551.856 1063.78 552.184 1061.23Z" fill="#DCFAFE"/>
<path d="M573.17 991.529C575.624 991.634 578.079 991.376 580.457 990.764C581.451 990.412 582.356 989.848 583.111 989.112C583.866 988.376 584.452 987.485 584.829 986.501C584.943 986.032 584.962 985.545 584.885 985.068C584.809 984.592 584.639 984.135 584.385 983.725C584.13 983.315 583.797 982.96 583.404 982.679C583.012 982.399 582.567 982.199 582.097 982.092C579.182 981.691 575.538 985.736 574.409 987.922C574.3 988.14 573.097 991.492 573.17 991.529Z" fill="#DCFAFE"/>
<path d="M549.196 1061.23C548.03 1058.9 546.427 1055.58 544.715 1051.46C544.205 1050.3 543.695 1049.08 543.185 1047.82C545.381 1046.83 547.419 1045.51 549.233 1043.92C549.961 1043.16 550.514 1042.24 550.854 1041.24C551.194 1040.24 551.312 1039.18 551.2 1038.13C551.085 1037.66 550.879 1037.22 550.593 1036.83C550.306 1036.45 549.946 1036.12 549.533 1035.87C549.119 1035.62 548.661 1035.46 548.184 1035.39C547.707 1035.32 547.222 1035.35 546.755 1035.47C543.986 1036.42 542.529 1041.52 542.565 1044.14C542.565 1044.14 542.82 1046.29 542.966 1047.27C542.638 1046.51 542.347 1045.74 542.019 1044.91C541.691 1044.07 541.144 1042.47 540.707 1041.26C540.27 1040.06 540.306 1039.95 540.088 1039.33C539.869 1038.71 539.76 1038.02 539.578 1037.36C539.395 1036.71 539.14 1035.36 538.922 1034.34C541.13 1033.71 543.23 1032.75 545.152 1031.5C545.992 1030.85 546.681 1030.03 547.171 1029.1C547.662 1028.16 547.943 1027.13 547.994 1026.07C547.953 1025.59 547.816 1025.12 547.592 1024.69C547.367 1024.26 547.059 1023.88 546.686 1023.57C546.313 1023.26 545.882 1023.03 545.418 1022.89C544.955 1022.75 544.468 1022.7 543.986 1022.75C541.108 1023.26 538.885 1028.11 538.521 1030.7C538.521 1030.7 538.521 1031.35 538.521 1032.01C538.339 1030.99 538.157 1030 538.011 1028.98C537.647 1026.11 537.319 1023.15 536.991 1020.2L536.772 1018.35C539.048 1017.73 541.213 1016.76 543.185 1015.47C544.024 1014.82 544.713 1014 545.204 1013.07C545.695 1012.13 545.975 1011.1 546.026 1010.04C545.985 1009.56 545.85 1009.09 545.627 1008.67C545.405 1008.24 545.101 1007.86 544.731 1007.55C544.362 1007.24 543.936 1007.01 543.476 1006.87C543.017 1006.73 542.534 1006.68 542.055 1006.72C539.14 1007.23 536.918 1012.04 536.554 1014.67C536.554 1014.67 536.554 1015.43 536.554 1016.16C536.335 1014.56 536.116 1012.95 535.861 1011.39C535.405 1008.68 534.784 1006 534.003 1003.37C536.338 1002.73 538.562 1001.73 540.598 1000.42C541.437 999.775 542.126 998.956 542.617 998.018C543.108 997.081 543.389 996.048 543.44 994.991C543.398 994.511 543.263 994.045 543.041 993.619C542.818 993.192 542.514 992.814 542.145 992.506C541.775 992.197 541.349 991.965 540.889 991.823C540.43 991.68 539.947 991.63 539.468 991.675C536.554 992.185 534.331 997.031 533.967 999.618C533.967 999.8 533.967 1002.2 533.967 1003.08C533.093 1000.56 532.008 998.126 530.724 995.792C529.634 993.68 528.417 991.636 527.08 989.671C525.842 987.813 524.566 986.21 523.437 984.789L521.688 982.712C521.688 982.712 520.668 979.287 520.595 979.069C519.538 976.664 516.114 972.656 513.308 972.948C512.824 973 512.356 973.156 511.937 973.405C511.519 973.655 511.159 973.992 510.882 974.393C510.605 974.794 510.419 975.25 510.334 975.73C510.25 976.21 510.27 976.703 510.393 977.174C510.724 978.181 511.27 979.103 511.994 979.877C512.717 980.651 513.601 981.258 514.583 981.656C516.848 982.359 519.207 982.716 521.579 982.712C522.125 983.368 522.745 984.097 523.364 984.898C524.457 986.356 525.696 987.959 527.008 989.853C527.336 990.327 527.663 990.874 527.991 991.42C527.263 990.619 526.242 989.598 526.133 989.489C524.093 987.849 519.174 985.845 516.697 987.449C516.314 987.741 515.994 988.107 515.753 988.524C515.513 988.942 515.358 989.403 515.297 989.88C515.236 990.358 515.27 990.843 515.398 991.308C515.526 991.772 515.744 992.206 516.041 992.586C516.8 993.327 517.711 993.894 518.712 994.246C519.712 994.599 520.778 994.728 521.834 994.626C524.182 994.2 526.454 993.426 528.574 992.331C529.267 993.497 529.995 994.699 530.651 995.974C531.864 998.309 532.864 1000.75 533.639 1003.26C533.639 1003.26 533.639 1003.55 533.639 1003.7C533.311 1003.26 531.526 1000.97 531.38 1000.82C529.522 998.926 524.858 996.412 522.235 997.723C521.819 997.973 521.458 998.304 521.172 998.695C520.886 999.087 520.681 999.531 520.569 1000C520.457 1000.47 520.441 1000.96 520.52 1001.44C520.6 1001.92 520.774 1002.38 521.032 1002.79C521.706 1003.6 522.546 1004.25 523.496 1004.7C524.445 1005.16 525.482 1005.4 526.534 1005.41C529.031 1005.26 531.49 1004.72 533.821 1003.81C534.546 1006.37 535.094 1008.97 535.46 1011.6C535.752 1013.54 535.971 1015.5 536.153 1017.51C535.752 1016.92 534.076 1014.77 533.93 1014.67C532.072 1012.77 527.408 1010.26 524.785 1011.57C524.37 1011.82 524.009 1012.15 523.723 1012.54C523.437 1012.93 523.232 1013.38 523.12 1013.85C523.008 1014.32 522.991 1014.81 523.071 1015.29C523.15 1015.77 523.324 1016.22 523.583 1016.63C524.26 1017.45 525.106 1018.1 526.063 1018.55C527.019 1019.01 528.063 1019.25 529.121 1019.26C531.545 1019.08 533.928 1018.54 536.189 1017.65C536.189 1018.56 536.189 1019.47 536.444 1020.39C536.699 1023.34 536.954 1026.29 537.282 1029.24C537.282 1030.22 537.537 1031.21 537.719 1032.23L535.788 1029.79C533.93 1027.93 529.267 1025.38 526.643 1026.73C526.233 1026.98 525.876 1027.3 525.593 1027.69C525.311 1028.08 525.108 1028.52 524.996 1028.99C524.884 1029.46 524.866 1029.94 524.942 1030.42C525.019 1030.89 525.188 1031.34 525.441 1031.75C526.111 1032.57 526.95 1033.23 527.899 1033.69C528.849 1034.15 529.888 1034.39 530.943 1034.41C533.289 1034.25 535.598 1033.73 537.792 1032.88C538.047 1034.52 538.339 1036.16 538.703 1037.76C538.885 1038.46 539.031 1039.15 539.213 1039.81L539.796 1041.77C540.233 1043.08 540.634 1044.32 541.071 1045.42C541.254 1046.04 541.472 1046.62 541.691 1047.2C541.181 1046.25 540.343 1044.8 540.27 1044.69C538.74 1042.54 534.477 1039.33 531.708 1040.24C531.26 1040.43 530.853 1040.7 530.511 1041.04C530.169 1041.38 529.899 1041.79 529.716 1042.23C529.533 1042.68 529.441 1043.16 529.445 1043.65C529.449 1044.13 529.549 1044.61 529.74 1045.05C530.282 1045.96 531.016 1046.74 531.89 1047.34C532.765 1047.94 533.76 1048.34 534.805 1048.51C537.245 1048.71 539.702 1048.54 542.092 1048L543.695 1052.19C545.371 1056.35 546.901 1059.74 548.03 1062.1C549.16 1064.47 549.816 1065.75 549.816 1065.75C549.953 1065.98 550.172 1066.15 550.429 1066.22C550.686 1066.29 550.962 1066.27 551.2 1066.15C551.439 1066.01 551.617 1065.79 551.698 1065.52C551.779 1065.26 551.757 1064.97 551.637 1064.73C551.637 1064.73 550.326 1063.52 549.196 1061.23Z" fill="#DCFAFE"/>
<path d="M528.21 991.493C530.314 990.213 532.227 988.643 533.894 986.829C534.526 985.985 534.968 985.013 535.188 983.982C535.408 982.95 535.402 981.883 535.169 980.854C535.003 980.403 534.749 979.99 534.422 979.638C534.096 979.285 533.703 979.001 533.266 978.801C532.829 978.602 532.357 978.49 531.877 978.473C531.397 978.457 530.918 978.535 530.469 978.704C527.809 979.979 526.825 985.189 527.263 987.813C527.299 988.031 528.173 991.493 528.21 991.493Z" fill="#DCFAFE"/>
<path d="M262.2 1069.65C262.2 1069.65 238.19 1061.81 245.04 1067.93C246.242 1068.95 247.189 1069.72 247.954 1070.27H318.966L321.115 1066L321.625 1064.95L322.5 1063.2L313.974 1057.4L322.973 1062.21L325.342 1056.89L323.52 1039L326.435 1055.33L328.184 1050.95L336.126 1035.87L323.192 1064.22L341.701 1056.93L322.427 1065.78L320.168 1070.27H396.972C401.162 1069.83 407.028 1068.63 408.121 1065.31C409.834 1060.06 391.835 1060.06 391.835 1060.06C391.835 1060.06 410.708 1052.23 403.822 1050.48C396.936 1048.73 384.949 1055.73 384.949 1055.73C384.949 1055.73 391.835 1040.02 383.236 1043.52C380.989 1044.41 378.951 1045.76 377.251 1047.48C375.552 1049.2 374.227 1051.25 373.363 1053.51C374.273 1050.44 375.986 1043.19 371.213 1045.27C368.234 1046.77 365.716 1049.05 363.926 1051.87C366.221 1047.2 368.262 1040.28 358.315 1042.65C358.83 1036.58 356.967 1030.55 353.119 1025.83C349.271 1021.12 343.739 1018.08 337.693 1017.36C315.031 1013.46 316.233 1044.4 308.545 1050.48C300.858 1056.57 291.385 1049.61 287.96 1056.6C286.014 1059.73 285.108 1063.39 285.373 1067.06C285.373 1067.06 272.511 1033.07 270.799 1042.65C270.062 1049.04 271.583 1055.48 275.098 1060.87C275.098 1060.87 254.476 1033.87 258.775 1044.32C261.399 1050.65 264.556 1056.75 268.212 1062.54C268.212 1062.54 239.902 1055.58 244.202 1059.92C248.501 1064.25 262.2 1069.65 262.2 1069.65Z" fill="#DCFAFE"/>
<path d="M380.431 1064.76C380.249 1063.2 379.921 1061.12 379.447 1058.28C379.447 1057.51 379.119 1056.67 378.937 1055.84C377.464 1056.07 375.965 1056.07 374.492 1055.84C373.857 1055.69 373.261 1055.41 372.745 1055.02C372.229 1054.62 371.806 1054.12 371.504 1053.54C371.384 1053.27 371.325 1052.97 371.331 1052.67C371.338 1052.37 371.409 1052.07 371.541 1051.8C371.672 1051.53 371.861 1051.29 372.094 1051.1C372.326 1050.91 372.598 1050.77 372.889 1050.7C374.638 1050.23 377.115 1052.34 377.99 1053.69C378.311 1054.25 378.603 1054.84 378.864 1055.44L378.536 1053.91C378.536 1053.14 378.172 1052.37 377.953 1051.61L377.625 1050.41C377.625 1050.01 377.37 1049.61 377.225 1049.21C377.079 1048.8 376.787 1048.04 376.532 1047.46C375.176 1047.88 373.764 1048.1 372.342 1048.11C371.69 1048.07 371.054 1047.89 370.481 1047.57C369.908 1047.26 369.411 1046.82 369.027 1046.29C368.872 1046.03 368.773 1045.75 368.737 1045.45C368.701 1045.15 368.729 1044.85 368.818 1044.56C368.908 1044.28 369.057 1044.01 369.256 1043.79C369.456 1043.57 369.7 1043.39 369.974 1043.27C371.65 1042.54 374.419 1044.25 375.512 1045.45L375.986 1046.11C375.731 1045.56 375.476 1044.98 375.184 1044.43C374.419 1042.83 373.581 1041.19 372.743 1039.59L372.197 1038.57C370.805 1039.01 369.356 1039.24 367.897 1039.26C367.246 1039.21 366.613 1039.02 366.041 1038.71C365.469 1038.39 364.972 1037.96 364.582 1037.44C364.432 1037.18 364.338 1036.89 364.305 1036.6C364.272 1036.3 364.301 1036 364.39 1035.72C364.479 1035.43 364.627 1035.17 364.823 1034.94C365.019 1034.72 365.259 1034.54 365.529 1034.41C367.205 1033.68 369.974 1035.4 371.067 1036.6C371.067 1036.6 371.322 1037 371.614 1037.36C371.14 1036.49 370.739 1035.58 370.338 1034.7C369.632 1033.17 369.036 1031.59 368.553 1029.97C367.129 1030.43 365.642 1030.68 364.144 1030.7C363.491 1030.66 362.853 1030.48 362.279 1030.16C361.706 1029.85 361.21 1029.41 360.829 1028.87C360.673 1028.62 360.572 1028.34 360.533 1028.04C360.495 1027.74 360.52 1027.44 360.606 1027.16C360.692 1026.87 360.837 1026.61 361.033 1026.38C361.228 1026.16 361.469 1025.98 361.74 1025.85C363.416 1025.12 366.221 1026.83 367.278 1028.04L368.48 1029.79C368.04 1028.19 367.747 1026.55 367.606 1024.9C367.606 1023.34 367.606 1021.88 367.606 1020.49C367.606 1019.11 367.606 1017.87 367.824 1016.85C368.043 1015.83 367.824 1015.72 368.043 1015.21C368.043 1015.21 367.387 1013.13 367.351 1012.99C367.096 1011.42 367.351 1008.22 369.1 1007.38C369.367 1007.24 369.66 1007.16 369.96 1007.15C370.26 1007.13 370.56 1007.18 370.839 1007.29C371.118 1007.4 371.371 1007.57 371.58 1007.79C371.789 1008 371.949 1008.26 372.051 1008.54C372.217 1009.16 372.248 1009.8 372.141 1010.43C372.034 1011.06 371.792 1011.66 371.431 1012.19C370.492 1013.32 369.386 1014.3 368.152 1015.1C368.152 1015.61 368.152 1016.2 368.152 1016.81C368.152 1017.43 368.152 1019.18 368.152 1020.46V1021.59C368.152 1020.97 368.48 1020.06 368.48 1019.98C368.99 1018.45 370.848 1015.79 372.634 1015.76C372.936 1015.76 373.234 1015.83 373.508 1015.95C373.783 1016.08 374.028 1016.26 374.227 1016.49C374.427 1016.72 374.576 1016.98 374.666 1017.27C374.755 1017.56 374.783 1017.86 374.747 1018.16C374.602 1018.8 374.322 1019.39 373.926 1019.91C373.529 1020.42 373.027 1020.85 372.452 1021.15C371.094 1021.73 369.657 1022.1 368.189 1022.24C368.189 1023.08 368.189 1023.96 368.371 1024.83C368.551 1026.46 368.881 1028.07 369.355 1029.64C369.343 1029.72 369.343 1029.81 369.355 1029.89C369.355 1029.57 369.355 1027.78 369.537 1027.64C369.865 1026.07 371.395 1023.23 373.18 1023.01C373.478 1022.98 373.777 1023.02 374.059 1023.12C374.341 1023.21 374.6 1023.37 374.82 1023.57C375.039 1023.77 375.214 1024.02 375.333 1024.29C375.452 1024.56 375.513 1024.86 375.512 1025.16C375.448 1025.8 375.241 1026.42 374.907 1026.98C374.573 1027.53 374.12 1028.01 373.581 1028.36C372.258 1029.1 370.834 1029.64 369.355 1029.97C369.786 1031.56 370.334 1033.12 370.994 1034.63C371.504 1035.72 372.051 1036.78 372.634 1037.87C372.634 1037.44 372.634 1035.8 372.634 1035.65C372.962 1034.08 374.492 1031.24 376.277 1031.02C376.574 1031 376.874 1031.04 377.156 1031.13C377.438 1031.23 377.697 1031.38 377.916 1031.59C378.136 1031.79 378.311 1032.03 378.43 1032.31C378.549 1032.58 378.61 1032.88 378.609 1033.17C378.545 1033.82 378.338 1034.44 378.004 1034.99C377.67 1035.55 377.217 1036.02 376.678 1036.38C375.36 1037.12 373.934 1037.65 372.452 1037.95L373.253 1039.44C374.128 1041.04 375.002 1042.65 375.84 1044.25C376.132 1044.8 376.387 1045.34 376.642 1045.89C376.642 1045.27 376.642 1044.1 376.642 1044.03C376.97 1042.43 378.536 1039.59 380.285 1039.37C380.583 1039.34 380.885 1039.37 381.17 1039.46C381.455 1039.56 381.716 1039.71 381.937 1039.92C382.157 1040.12 382.332 1040.37 382.449 1040.64C382.567 1040.92 382.624 1041.22 382.617 1041.52C382.552 1042.16 382.346 1042.78 382.012 1043.34C381.678 1043.89 381.225 1044.37 380.686 1044.72C379.428 1045.45 378.063 1045.98 376.642 1046.29C377.079 1047.2 377.48 1048.15 377.844 1049.06L378.281 1050.3L378.646 1051.46C378.864 1052.3 379.083 1053.07 379.265 1053.83C379.447 1054.6 379.265 1054.6 379.556 1054.96C379.556 1054.31 379.556 1053.29 379.556 1053.18C379.556 1051.57 380.722 1048.51 382.471 1048.04C382.764 1047.96 383.069 1047.95 383.367 1048C383.665 1048.06 383.949 1048.17 384.2 1048.34C384.451 1048.51 384.664 1048.73 384.824 1048.98C384.984 1049.24 385.089 1049.53 385.131 1049.82C385.19 1050.5 385.093 1051.18 384.847 1051.81C384.6 1052.44 384.211 1053.01 383.71 1053.47C382.52 1054.38 381.208 1055.11 379.811 1055.65C380.03 1056.56 380.249 1057.48 380.431 1058.31C380.977 1061.01 381.342 1063.27 381.56 1064.84C381.779 1066.4 381.925 1067.35 381.925 1067.35C381.927 1067.52 381.869 1067.68 381.762 1067.8C381.655 1067.93 381.506 1068.02 381.342 1068.04C381.257 1068.05 381.172 1068.04 381.091 1068.02C381.009 1068 380.934 1067.96 380.869 1067.9C380.804 1067.85 380.751 1067.78 380.713 1067.7C380.676 1067.63 380.654 1067.54 380.649 1067.46C380.649 1067.46 380.649 1066.33 380.431 1064.76Z" fill="#DCFAFE"/>
<path d="M367.351 1022.1C365.83 1022.15 364.309 1022 362.833 1021.63C362.22 1021.41 361.662 1021.06 361.196 1020.61C360.731 1020.16 360.369 1019.61 360.137 1019C360.056 1018.71 360.037 1018.41 360.081 1018.12C360.126 1017.82 360.233 1017.54 360.394 1017.29C360.556 1017.04 360.77 1016.82 361.02 1016.66C361.271 1016.5 361.554 1016.39 361.849 1016.34C363.634 1016.09 365.857 1018.46 366.586 1019.99C366.768 1020.06 367.351 1022.1 367.351 1022.1Z" fill="#DCFAFE"/>
<path d="M382.289 1064.73C383.018 1063.31 384.001 1061.27 385.058 1058.79C385.386 1058.06 385.677 1057.29 386.005 1056.49C384.677 1055.88 383.449 1055.07 382.362 1054.09C381.9 1053.61 381.552 1053.03 381.344 1052.4C381.135 1051.77 381.072 1051.1 381.16 1050.44C381.218 1050.15 381.337 1049.87 381.51 1049.63C381.683 1049.38 381.905 1049.17 382.162 1049.02C382.42 1048.86 382.707 1048.77 383.005 1048.73C383.302 1048.69 383.605 1048.72 383.892 1048.8C385.605 1049.39 386.515 1052.45 386.515 1054.12C386.515 1054.12 386.515 1055.44 386.26 1056.06L386.807 1054.6C387.098 1053.87 387.39 1053.1 387.645 1052.38L388.009 1051.17C388.009 1050.77 388.228 1050.37 388.337 1049.97C388.446 1049.57 388.629 1048.77 388.738 1048.15C387.385 1047.75 386.096 1047.17 384.912 1046.4C384.396 1046.01 383.969 1045.51 383.661 1044.94C383.353 1044.36 383.171 1043.73 383.127 1043.08C383.144 1042.78 383.224 1042.49 383.36 1042.22C383.497 1041.95 383.687 1041.71 383.92 1041.52C384.152 1041.33 384.422 1041.19 384.712 1041.11C385.002 1041.03 385.306 1041 385.605 1041.04C387.39 1041.37 388.774 1044.32 388.993 1045.89C388.993 1045.89 388.993 1046.29 388.993 1046.69C388.993 1046.11 389.212 1045.49 389.284 1044.87C389.54 1043.08 389.722 1041.23 389.94 1039.48V1038.35C388.537 1037.97 387.198 1037.38 385.969 1036.6C385.454 1036.2 385.032 1035.69 384.73 1035.11C384.428 1034.54 384.255 1033.9 384.22 1033.25C384.237 1032.95 384.316 1032.65 384.453 1032.39C384.59 1032.12 384.781 1031.88 385.015 1031.7C385.248 1031.51 385.518 1031.37 385.808 1031.29C386.098 1031.21 386.401 1031.2 386.698 1031.24C388.483 1031.57 389.867 1034.49 390.086 1036.09C390.086 1036.09 390.086 1036.56 390.086 1037C390.086 1036.02 390.341 1035.07 390.523 1034.09C390.784 1032.43 391.161 1030.8 391.653 1029.2C390.208 1028.81 388.832 1028.19 387.572 1027.38C387.053 1026.99 386.627 1026.49 386.324 1025.92C386.022 1025.35 385.851 1024.71 385.823 1024.07C385.836 1023.77 385.91 1023.47 386.043 1023.2C386.175 1022.94 386.363 1022.7 386.592 1022.51C386.822 1022.31 387.09 1022.17 387.378 1022.09C387.666 1022.01 387.968 1021.98 388.264 1022.03C390.086 1022.35 391.434 1025.3 391.653 1026.91C391.653 1026.91 391.653 1028.47 391.653 1029.02C392.181 1027.46 392.851 1025.94 393.657 1024.5C394.366 1023.25 395.145 1022.03 395.988 1020.86C396.754 1019.73 397.555 1018.75 398.247 1017.87L399.34 1016.6C399.34 1016.6 399.96 1014.52 399.996 1014.37C400.652 1012.92 402.765 1010.44 404.587 1010.73C404.884 1010.76 405.171 1010.86 405.428 1011.01C405.686 1011.16 405.908 1011.37 406.08 1011.61C406.252 1011.86 406.371 1012.14 406.427 1012.43C406.484 1012.72 406.478 1013.03 406.409 1013.32C406.208 1013.94 405.872 1014.5 405.424 1014.98C404.977 1015.45 404.429 1015.82 403.822 1016.05C402.417 1016.48 400.956 1016.7 399.486 1016.71C399.095 1017.13 398.73 1017.58 398.393 1018.05C397.608 1019.02 396.878 1020.03 396.207 1021.08C395.98 1021.38 395.773 1021.7 395.588 1022.03L396.754 1020.86C397.992 1019.84 401.053 1018.64 402.583 1019.62C402.83 1019.79 403.037 1020.01 403.193 1020.26C403.349 1020.52 403.449 1020.8 403.487 1021.1C403.525 1021.39 403.5 1021.69 403.413 1021.98C403.326 1022.27 403.18 1022.53 402.984 1022.75C402.504 1023.21 401.929 1023.56 401.299 1023.78C400.67 1023.99 400.001 1024.06 399.34 1023.99C397.879 1023.74 396.465 1023.26 395.15 1022.57C394.713 1023.3 394.276 1024.03 393.875 1024.83C393.125 1026.28 392.503 1027.79 392.017 1029.35C392.017 1029.35 392.017 1029.53 392.017 1029.64L393.402 1027.85C394.531 1026.73 397.446 1025.2 399.049 1026C399.313 1026.14 399.544 1026.33 399.728 1026.56C399.913 1026.8 400.045 1027.07 400.117 1027.36C400.19 1027.64 400.2 1027.95 400.148 1028.24C400.095 1028.53 399.982 1028.81 399.814 1029.06C399.395 1029.56 398.872 1029.97 398.281 1030.25C397.69 1030.53 397.044 1030.69 396.389 1030.7C394.88 1030.58 393.395 1030.25 391.981 1029.71C391.537 1031.27 391.209 1032.85 390.997 1034.45C390.815 1035.65 390.669 1036.85 390.56 1038.09C390.815 1037.73 391.835 1036.42 391.944 1036.34C393.074 1035.18 395.952 1033.65 397.592 1034.45C397.858 1034.59 398.091 1034.79 398.275 1035.03C398.459 1035.26 398.59 1035.54 398.659 1035.83C398.728 1036.13 398.733 1036.43 398.675 1036.73C398.617 1037.02 398.496 1037.3 398.32 1037.55C397.906 1038.04 397.389 1038.45 396.803 1038.72C396.218 1039 395.579 1039.15 394.932 1039.15C393.431 1039.06 391.954 1038.73 390.56 1038.17C390.56 1038.75 390.56 1039.3 390.378 1039.84C390.378 1041.66 390.05 1043.49 389.867 1045.23C389.867 1045.85 389.685 1046.47 389.612 1047.09C389.977 1046.58 390.705 1045.67 390.778 1045.6C391.944 1044.47 394.823 1042.9 396.426 1043.7C396.695 1043.84 396.931 1044.04 397.119 1044.27C397.307 1044.51 397.442 1044.78 397.514 1045.08C397.587 1045.37 397.595 1045.68 397.54 1045.97C397.484 1046.27 397.365 1046.55 397.191 1046.8C396.77 1047.3 396.245 1047.7 395.654 1047.98C395.063 1048.25 394.419 1048.4 393.766 1048.4C392.319 1048.32 390.894 1048.01 389.54 1047.49C389.401 1048.5 389.207 1049.5 388.957 1050.48C388.957 1050.88 388.774 1051.32 388.665 1051.72L388.301 1052.92L387.536 1055.22C387.536 1055.62 387.244 1055.95 387.135 1056.31C387.426 1055.73 387.973 1054.85 388.009 1054.78C388.957 1053.47 391.653 1051.5 393.329 1052.08C393.61 1052.18 393.866 1052.34 394.083 1052.54C394.299 1052.75 394.469 1053 394.583 1053.27C394.696 1053.55 394.75 1053.84 394.741 1054.14C394.732 1054.44 394.661 1054.73 394.531 1055C394.191 1055.55 393.735 1056.03 393.194 1056.4C392.653 1056.76 392.041 1057 391.398 1057.11C389.91 1057.22 388.414 1057.12 386.953 1056.82C386.625 1057.69 386.297 1058.57 385.969 1059.37C384.912 1061.92 383.965 1064 383.273 1065.46L382.18 1067.71C382.146 1067.79 382.096 1067.86 382.033 1067.91C381.971 1067.97 381.898 1068.01 381.818 1068.03C381.739 1068.06 381.656 1068.06 381.573 1068.05C381.491 1068.04 381.412 1068.01 381.342 1067.97C381.265 1067.93 381.197 1067.88 381.142 1067.81C381.087 1067.75 381.047 1067.67 381.023 1067.59C380.999 1067.51 380.992 1067.42 381.003 1067.33C381.014 1067.25 381.043 1067.17 381.087 1067.1C381.087 1067.1 381.597 1066.15 382.289 1064.73Z" fill="#DCFAFE"/>
<path d="M395.26 1022.06C393.909 1021.3 392.68 1020.35 391.616 1019.22C391.222 1018.71 390.946 1018.12 390.807 1017.49C390.669 1016.86 390.671 1016.21 390.815 1015.58C390.907 1015.29 391.058 1015.02 391.258 1014.8C391.459 1014.58 391.705 1014.4 391.98 1014.27C392.255 1014.15 392.553 1014.08 392.854 1014.08C393.155 1014.08 393.454 1014.14 393.729 1014.26C395.369 1015.03 395.915 1018.24 395.697 1019.84C395.806 1020.06 395.296 1022.1 395.26 1022.06Z" fill="#DCFAFE"/>
<path d="M297.724 1065.53C297.724 1064.33 297.36 1062.65 296.959 1060.65C296.959 1060.06 296.74 1059.44 296.631 1058.82C295.508 1059 294.366 1059 293.243 1058.82C292.768 1058.72 292.321 1058.52 291.937 1058.22C291.552 1057.92 291.239 1057.55 291.02 1057.11C290.928 1056.91 290.882 1056.68 290.884 1056.46C290.887 1056.23 290.939 1056.01 291.036 1055.8C291.133 1055.6 291.273 1055.42 291.446 1055.27C291.619 1055.13 291.822 1055.02 292.04 1054.96C293.352 1054.63 295.246 1056.2 295.902 1057.22L296.558 1058.53C296.558 1058.17 296.558 1057.77 296.303 1057.4C296.048 1057.04 296.012 1056.24 295.866 1055.65L295.611 1054.74C295.53 1054.45 295.433 1054.15 295.319 1053.87C295.319 1053.43 294.991 1052.99 294.809 1052.52C293.786 1052.86 292.716 1053.03 291.639 1053.03C291.153 1053 290.68 1052.86 290.252 1052.63C289.824 1052.4 289.452 1052.07 289.162 1051.68C289.043 1051.49 288.967 1051.27 288.937 1051.05C288.908 1050.82 288.927 1050.6 288.992 1050.38C289.058 1050.16 289.168 1049.96 289.317 1049.79C289.465 1049.62 289.649 1049.48 289.854 1049.39C291.129 1048.84 293.206 1050.12 294.008 1051.03L294.372 1051.54C294.2 1051.1 294.005 1050.68 293.789 1050.26C293.206 1049.06 292.587 1047.82 291.931 1046.62L291.567 1045.85C290.52 1046.2 289.425 1046.37 288.324 1046.36C287.831 1046.34 287.351 1046.2 286.916 1045.97C286.482 1045.74 286.104 1045.41 285.81 1045.02C285.697 1044.82 285.625 1044.61 285.599 1044.38C285.572 1044.16 285.592 1043.93 285.657 1043.72C285.722 1043.5 285.831 1043.3 285.976 1043.13C286.121 1042.96 286.3 1042.82 286.502 1042.72C287.777 1042.17 289.891 1043.48 290.692 1044.4L291.093 1044.94C290.765 1044.29 290.437 1043.59 290.146 1042.94C289.613 1041.76 289.162 1040.54 288.798 1039.29C287.72 1039.62 286.606 1039.8 285.482 1039.84C284.991 1039.79 284.515 1039.65 284.083 1039.41C283.651 1039.17 283.271 1038.85 282.968 1038.46C282.855 1038.27 282.784 1038.05 282.758 1037.83C282.732 1037.61 282.752 1037.39 282.818 1037.18C282.883 1036.96 282.991 1036.77 283.136 1036.6C283.281 1036.43 283.46 1036.29 283.66 1036.2C284.935 1035.65 287.012 1036.93 287.85 1037.84L288.761 1039.15C288.462 1037.95 288.243 1036.73 288.105 1035.51C288.034 1034.4 288.034 1033.29 288.105 1032.19C288.105 1031.17 288.105 1030.22 288.105 1029.38C288.105 1028.55 288.105 1028.55 288.105 1028.15C287.903 1027.6 287.733 1027.04 287.595 1026.47C287.377 1025.27 287.595 1022.83 288.87 1022.24C289.075 1022.14 289.297 1022.08 289.525 1022.07C289.753 1022.06 289.98 1022.1 290.193 1022.18C290.405 1022.26 290.598 1022.39 290.76 1022.55C290.921 1022.71 291.047 1022.91 291.129 1023.12C291.255 1023.59 291.275 1024.08 291.187 1024.56C291.098 1025.04 290.905 1025.49 290.619 1025.89C289.932 1026.75 289.107 1027.48 288.178 1028.07V1029.38C288.12 1030.31 288.12 1031.23 288.178 1032.15V1033.03C288.178 1032.52 288.397 1031.86 288.433 1031.83C288.798 1030.66 290.182 1028.66 291.567 1028.62C291.792 1028.63 292.013 1028.68 292.216 1028.78C292.419 1028.88 292.6 1029.02 292.747 1029.19C292.894 1029.36 293.004 1029.56 293.071 1029.77C293.137 1029.99 293.159 1030.22 293.133 1030.44C293.013 1030.91 292.8 1031.36 292.506 1031.74C292.212 1032.13 291.843 1032.46 291.421 1032.7C290.397 1033.12 289.317 1033.39 288.215 1033.5C288.163 1034.16 288.163 1034.81 288.215 1035.47C288.324 1036.7 288.556 1037.92 288.907 1039.11C288.923 1039.18 288.923 1039.26 288.907 1039.33C288.907 1039.08 288.907 1037.73 288.907 1037.66C289.162 1036.45 290.291 1034.3 291.676 1034.01C291.898 1033.99 292.123 1034.02 292.334 1034.09C292.546 1034.16 292.74 1034.28 292.905 1034.43C293.07 1034.58 293.201 1034.76 293.29 1034.97C293.38 1035.17 293.426 1035.39 293.425 1035.62C293.381 1036.11 293.227 1036.58 292.974 1037C292.722 1037.42 292.378 1037.78 291.967 1038.06C290.974 1038.6 289.906 1038.99 288.798 1039.22C289.184 1040.39 289.634 1041.53 290.146 1042.65L291.421 1045.09C291.421 1044.76 291.421 1043.52 291.421 1043.41C291.676 1042.25 292.842 1040.06 294.19 1039.77C294.415 1039.75 294.643 1039.78 294.857 1039.85C295.071 1039.92 295.267 1040.04 295.433 1040.2C295.598 1040.35 295.728 1040.54 295.816 1040.75C295.903 1040.96 295.945 1041.18 295.939 1041.41C295.894 1041.89 295.74 1042.36 295.488 1042.78C295.235 1043.2 294.891 1043.55 294.481 1043.81C293.503 1044.36 292.446 1044.75 291.348 1044.98C291.52 1045.37 291.715 1045.74 291.931 1046.11C292.587 1047.31 293.243 1048.51 293.862 1049.75C294.081 1050.15 294.263 1050.59 294.481 1050.99C294.481 1050.52 294.481 1049.64 294.481 1049.57C294.736 1048.4 295.866 1046.25 297.25 1045.93C297.476 1045.91 297.703 1045.93 297.918 1046.01C298.132 1046.08 298.328 1046.2 298.493 1046.35C298.658 1046.51 298.789 1046.7 298.876 1046.9C298.963 1047.11 299.005 1047.34 298.999 1047.57C298.947 1048.05 298.79 1048.51 298.538 1048.93C298.286 1049.35 297.946 1049.7 297.542 1049.97C296.594 1050.53 295.56 1050.92 294.481 1051.14C294.809 1051.83 295.137 1052.56 295.392 1053.25C295.518 1053.55 295.627 1053.85 295.72 1054.16L296.012 1055.03C296.012 1055.65 296.34 1056.24 296.485 1056.82C296.563 1057.1 296.624 1057.38 296.667 1057.66C296.667 1057.18 296.667 1056.38 296.667 1056.35C296.667 1055.11 297.542 1052.7 298.854 1052.45C299.074 1052.39 299.304 1052.39 299.527 1052.43C299.751 1052.47 299.963 1052.56 300.152 1052.68C300.34 1052.81 300.5 1052.97 300.621 1053.16C300.743 1053.36 300.823 1053.57 300.857 1053.8C300.874 1054.29 300.784 1054.77 300.596 1055.23C300.407 1055.68 300.124 1056.09 299.764 1056.42C298.88 1057.11 297.897 1057.66 296.85 1058.06C296.85 1058.75 297.178 1059.41 297.287 1060.06C297.724 1062.07 297.979 1063.71 298.161 1064.94C298.343 1066.18 298.416 1066.84 298.416 1066.84C298.427 1066.97 298.388 1067.1 298.306 1067.2C298.225 1067.3 298.108 1067.37 297.979 1067.39C298.029 1067.39 298.079 1067.4 298.125 1067.42C298.125 1067.42 297.87 1066.69 297.724 1065.53Z" fill="#DCFAFE"/>
<path d="M287.96 1033.43C286.82 1033.48 285.68 1033.37 284.571 1033.1C284.117 1032.93 283.702 1032.66 283.352 1032.32C283.001 1031.99 282.722 1031.58 282.531 1031.13C282.472 1030.92 282.46 1030.69 282.495 1030.46C282.531 1030.24 282.613 1030.03 282.737 1029.84C282.861 1029.65 283.024 1029.49 283.214 1029.37C283.405 1029.24 283.619 1029.16 283.842 1029.13C285.191 1028.91 286.867 1030.7 287.486 1031.79C287.45 1031.9 287.996 1033.43 287.96 1033.43Z" fill="#DCFAFE"/>
<path d="M299.145 1065.49C299.655 1064.44 300.42 1062.9 301.222 1061.05C301.44 1060.5 301.695 1059.92 301.914 1059.3C300.896 1058.84 299.951 1058.24 299.109 1057.51C298.769 1057.16 298.511 1056.75 298.354 1056.29C298.196 1055.83 298.143 1055.34 298.198 1054.85C298.239 1054.63 298.327 1054.42 298.455 1054.24C298.583 1054.05 298.749 1053.89 298.941 1053.78C299.134 1053.66 299.349 1053.59 299.572 1053.56C299.796 1053.53 300.023 1053.55 300.238 1053.61C301.55 1054.05 302.242 1056.42 302.205 1057.62C302.205 1057.62 302.206 1058.61 302.023 1059.08L302.461 1057.99C302.679 1057.44 302.861 1056.86 303.08 1056.27L303.335 1055.4C303.437 1055.1 303.522 1054.8 303.59 1054.49L303.918 1053.1C302.883 1052.82 301.899 1052.38 301.003 1051.79C300.613 1051.5 300.293 1051.13 300.066 1050.7C299.839 1050.27 299.711 1049.8 299.691 1049.31C299.699 1049.09 299.755 1048.86 299.855 1048.66C299.956 1048.45 300.099 1048.27 300.275 1048.13C300.45 1047.98 300.655 1047.88 300.875 1047.82C301.095 1047.76 301.325 1047.75 301.55 1047.78C302.898 1048 303.918 1050.23 304.1 1051.43V1052.05C304.1 1051.57 304.282 1051.1 304.319 1050.66C304.537 1049.31 304.683 1047.97 304.829 1046.62C304.847 1046.33 304.847 1046.04 304.829 1045.74C303.787 1045.45 302.792 1045.01 301.878 1044.43C301.485 1044.14 301.162 1043.76 300.929 1043.32C300.697 1042.89 300.56 1042.41 300.53 1041.92C300.548 1041.69 300.611 1041.48 300.714 1041.28C300.818 1041.08 300.961 1040.9 301.135 1040.76C301.308 1040.62 301.508 1040.51 301.723 1040.45C301.939 1040.38 302.165 1040.36 302.388 1040.39C303.736 1040.64 304.792 1042.87 304.938 1044.03C304.938 1044.03 304.938 1044.36 304.938 1044.72C305.009 1043.98 305.119 1043.24 305.266 1042.5C305.473 1041.27 305.753 1040.05 306.104 1038.86C305.023 1038.56 303.992 1038.11 303.044 1037.51C302.656 1037.21 302.338 1036.83 302.112 1036.4C301.886 1035.96 301.756 1035.48 301.732 1035C301.744 1034.77 301.804 1034.55 301.906 1034.35C302.009 1034.15 302.153 1033.98 302.328 1033.84C302.503 1033.69 302.706 1033.59 302.924 1033.53C303.141 1033.48 303.368 1033.47 303.59 1033.5C304.938 1033.72 305.958 1035.94 306.14 1037.15C306.14 1037.15 306.14 1038.31 306.14 1038.71C306.536 1037.54 307.036 1036.41 307.634 1035.32C308.155 1034.34 308.739 1033.39 309.383 1032.48C309.966 1031.64 310.585 1030.92 311.096 1030.26L311.897 1029.28C311.897 1029.28 312.371 1027.71 312.407 1027.64C312.917 1026.51 314.52 1024.65 316.051 1024.79C316.275 1024.82 316.49 1024.9 316.683 1025.02C316.876 1025.13 317.043 1025.29 317.173 1025.48C317.303 1025.66 317.393 1025.87 317.438 1026.09C317.483 1026.31 317.482 1026.54 317.435 1026.76C317.26 1027.22 316.996 1027.63 316.658 1027.98C316.32 1028.33 315.915 1028.61 315.468 1028.8C314.419 1029.13 313.324 1029.29 312.225 1029.28L311.387 1030.3C310.877 1030.95 310.294 1031.72 309.747 1032.55L309.274 1033.28L310.148 1032.41C311.096 1031.64 313.391 1030.73 314.52 1031.46C314.708 1031.59 314.866 1031.75 314.986 1031.94C315.106 1032.13 315.183 1032.35 315.214 1032.57C315.245 1032.8 315.229 1033.02 315.166 1033.24C315.103 1033.46 314.994 1033.66 314.848 1033.83C314.496 1034.18 314.072 1034.44 313.606 1034.61C313.14 1034.77 312.644 1034.83 312.152 1034.78C311.061 1034.58 310.005 1034.23 309.019 1033.72C308.691 1034.27 308.363 1034.81 308.035 1035.43C307.474 1036.52 307.01 1037.65 306.651 1038.82V1039L307.707 1037.69C308.582 1036.82 310.731 1035.65 311.97 1036.27C312.169 1036.38 312.343 1036.53 312.48 1036.71C312.617 1036.89 312.715 1037.09 312.766 1037.31C312.818 1037.53 312.822 1037.76 312.779 1037.99C312.736 1038.21 312.647 1038.42 312.517 1038.6C312.204 1038.98 311.814 1039.28 311.374 1039.49C310.933 1039.69 310.453 1039.8 309.966 1039.81C308.831 1039.73 307.714 1039.48 306.651 1039.08C306.312 1040.27 306.056 1041.49 305.885 1042.72L305.557 1045.45C305.88 1044.99 306.233 1044.55 306.614 1044.14C307.452 1043.27 309.638 1042.1 310.841 1042.72C311.042 1042.82 311.22 1042.97 311.36 1043.15C311.501 1043.33 311.603 1043.53 311.658 1043.75C311.713 1043.98 311.721 1044.2 311.68 1044.43C311.64 1044.65 311.552 1044.86 311.423 1045.05C311.104 1045.43 310.708 1045.73 310.261 1045.94C309.815 1046.14 309.329 1046.25 308.837 1046.25C307.716 1046.16 306.613 1045.91 305.557 1045.53V1046.76C305.557 1048.11 305.302 1049.5 305.157 1050.85C305.157 1051.28 305.157 1051.76 304.975 1052.19L305.849 1051.1C306.723 1050.23 308.873 1049.06 310.112 1049.68C310.311 1049.79 310.484 1049.94 310.622 1050.12C310.759 1050.3 310.857 1050.5 310.908 1050.72C310.96 1050.94 310.964 1051.17 310.921 1051.39C310.878 1051.62 310.789 1051.83 310.658 1052.01C310.346 1052.38 309.956 1052.69 309.516 1052.89C309.075 1053.1 308.595 1053.21 308.108 1053.21C307.01 1053.15 305.93 1052.91 304.902 1052.52C304.902 1053.29 304.647 1054.01 304.501 1054.78C304.433 1055.09 304.348 1055.39 304.246 1055.69L303.991 1056.6L303.408 1058.31C303.408 1058.61 303.189 1058.9 303.116 1059.15C303.335 1058.71 303.736 1058.06 303.772 1057.99C304.501 1057 306.468 1055.55 307.744 1055.95C307.958 1056.02 308.154 1056.14 308.319 1056.3C308.484 1056.45 308.614 1056.64 308.7 1056.85C308.786 1057.06 308.826 1057.29 308.819 1057.52C308.811 1057.74 308.755 1057.96 308.654 1058.17C308.41 1058.59 308.073 1058.95 307.669 1059.22C307.265 1059.49 306.805 1059.67 306.323 1059.74C305.201 1059.85 304.067 1059.78 302.971 1059.52L302.205 1061.45C301.44 1063.34 300.712 1064.91 300.202 1066C299.692 1067.09 299.364 1067.71 299.364 1067.71C299.302 1067.83 299.2 1067.91 299.078 1067.95C298.957 1067.99 298.825 1067.99 298.708 1067.93C298.652 1067.9 298.603 1067.86 298.563 1067.81C298.524 1067.76 298.495 1067.7 298.478 1067.64C298.461 1067.58 298.456 1067.52 298.464 1067.46C298.473 1067.39 298.493 1067.33 298.526 1067.28C298.526 1067.28 298.598 1066.58 299.145 1065.49Z" fill="#DCFAFE"/>
<path d="M309.055 1033.43C308.083 1032.84 307.2 1032.12 306.432 1031.28C306.131 1030.9 305.919 1030.46 305.812 1029.98C305.705 1029.51 305.705 1029.02 305.813 1028.55C305.88 1028.33 305.993 1028.13 306.143 1027.96C306.294 1027.79 306.478 1027.66 306.685 1027.56C306.891 1027.47 307.115 1027.42 307.342 1027.42C307.568 1027.42 307.792 1027.47 307.999 1027.56C309.238 1028.15 309.675 1030.55 309.493 1031.75C309.31 1031.83 309.055 1033.43 309.055 1033.43Z" fill="#DCFAFE"/>
<path d="M636.931 1068.19H1V1093H636.931V1068.19Z" fill="#0056D8" fill-opacity="0.5" stroke="#0056D8" stroke-opacity="0.5" stroke-linecap="round" stroke-linejoin="round"/>
<path d="M636.931 1068.19H264.386V1093H636.931V1068.19Z" fill="#DCFAFE" stroke="#0056D8" stroke-opacity="0.5" stroke-linecap="round" stroke-linejoin="round"/>
<path d="M299.181 1083.56V1069.06" stroke="#0056D8" stroke-opacity="0.5" stroke-width="0.75" stroke-linecap="round" stroke-linejoin="round"/>
<path d="M308.655 1069.06V1076.9" stroke="#0056D8" stroke-opacity="0.5" stroke-width="0.75" stroke-linecap="round" stroke-linejoin="round"/>
<path d="M318.128 1069.06V1076.9" stroke="#0056D8" stroke-opacity="0.5" stroke-width="0.75" stroke-linecap="round" stroke-linejoin="round"/>
<path d="M327.601 1069.06V1089.17" stroke="#0056D8" stroke-opacity="0.5" stroke-width="0.75" stroke-linecap="round" stroke-linejoin="round"/>
<path d="M338.968 1069.06V1078.46" stroke="#0056D8" stroke-opacity="0.5" stroke-width="0.75" stroke-linecap="round" stroke-linejoin="round"/>
<path d="M564.535 1069.06V1083.56" stroke="#0056D8" stroke-opacity="0.5" stroke-width="0.75" stroke-linecap="round" stroke-linejoin="round"/>
<path d="M574.008 1069.06V1076.9" stroke="#0056D8" stroke-opacity="0.5" stroke-width="0.75" stroke-linecap="round" stroke-linejoin="round"/>
<path d="M583.481 1069.06V1076.9" stroke="#0056D8" stroke-opacity="0.5" stroke-width="0.75" stroke-linecap="round" stroke-linejoin="round"/>
<path d="M592.991 1069.06V1089.17" stroke="#0056D8" stroke-opacity="0.5" stroke-width="0.75" stroke-linecap="round" stroke-linejoin="round"/>
<path d="M604.358 1069.06V1078.46" stroke="#0056D8" stroke-opacity="0.5" stroke-width="0.75" stroke-linecap="round" stroke-linejoin="round"/>
</svg>
