<svg width="702" height="609" viewBox="0 0 702 609" fill="none" xmlns="http://www.w3.org/2000/svg">
<path d="M1 599.061H701" stroke="#160037" stroke-linecap="round" stroke-linejoin="round"/>
<path d="M539.709 362.928V363.107C539.709 363.4 539.775 363.709 539.905 364.035C540.633 367.601 541.176 371.203 541.532 374.826C541.842 377.935 542.086 381.484 542.151 385.439C542.306 394.58 541.679 403.718 540.279 412.752C539.921 415.129 539.498 417.635 538.993 420.142C538.196 424.276 537.219 428.606 536.015 433.082C535.477 435.166 534.859 437.298 534.208 439.447L533.443 442.067C533.15 443.125 532.857 444.183 532.58 445.323C530.709 452.554 529.215 459.878 528.104 467.264C526.72 476.461 525.858 485.593 525.386 494.236C524.751 505.76 524.783 516.405 525.06 525.162C525.052 525.309 525.052 525.455 525.06 525.602C525.353 534.505 525.906 541.488 526.281 545.46C526.492 547.788 526.639 549.106 526.655 549.188" stroke="#160037" stroke-linecap="round" stroke-linejoin="round"/>
<path d="M539.758 363.156C537.321 360.99 534.385 359.463 531.213 358.712L539.758 363.156Z" fill="white"/>
<path d="M539.758 363.156C537.321 360.99 534.385 359.463 531.213 358.712" stroke="#160037" stroke-linecap="round" stroke-linejoin="round"/>
<path d="M541.581 374.876L545.911 370.953" stroke="#160037" stroke-linecap="round" stroke-linejoin="round"/>
<path d="M536.063 433.098C535.836 431.956 535.498 430.838 535.054 429.762C534.413 428.182 533.54 426.707 532.466 425.383C531.664 424.388 530.752 423.487 529.748 422.697" stroke="#160037" stroke-linecap="round" stroke-linejoin="round"/>
<path d="M532.596 445.307C533.21 443.787 534.129 442.409 535.296 441.258C536.464 440.107 537.855 439.209 539.384 438.617" stroke="#160037" stroke-linecap="round" stroke-linejoin="round"/>
<path d="M525.076 505.858C526.525 504.1 527.616 497.442 528.202 493.861C528.348 493.015 528.462 492.234 528.576 491.762" fill="white"/>
<path d="M525.076 505.858C526.525 504.1 527.616 497.442 528.202 493.861C528.348 493.015 528.462 492.234 528.576 491.762" stroke="#160037" stroke-linecap="round" stroke-linejoin="round"/>
<path d="M513.926 517.935C514.408 517.887 514.893 517.887 515.375 517.935C517.507 518.143 519.542 518.926 521.263 520.203C522.983 521.479 524.324 523.199 525.141 525.179" fill="white"/>
<path d="M513.926 517.935C514.408 517.887 514.893 517.887 515.375 517.935C517.507 518.143 519.542 518.926 521.263 520.203C522.983 521.479 524.324 523.199 525.141 525.179" stroke="#160037" stroke-linecap="round" stroke-linejoin="round"/>
<path d="M539.042 420.273C539.042 420.273 539.807 393.855 525.304 384.268" stroke="#160037" stroke-linecap="round" stroke-linejoin="round"/>
<path d="M540.279 476.901C542.184 483.07 528.885 494.806 528.885 494.806C528.885 494.806 511.322 492.608 509.353 486.456C507.383 480.303 511.892 470.178 520.421 467.574C528.95 464.97 538.44 470.732 540.279 476.901Z" fill="#043D94"/>
<path d="M555.075 402.139C553.447 408.65 540.816 413.322 540.816 413.322C540.816 413.322 532.141 403.181 533.768 396.638C535.396 390.094 542.412 382.9 548.304 384.413C554.196 385.927 556.768 395.596 555.075 402.139Z" fill="#043D94"/>
<path d="M504.632 499.917C512.527 502.977 517.361 516.943 517.361 516.943C517.361 516.943 504.339 523.958 496.461 520.882C488.583 517.806 480.184 509.146 482.463 503.368C484.741 497.589 496.738 496.775 504.632 499.917Z" fill="#043D94"/>
<path d="M521.935 423.088C523.533 424.432 525.365 425.469 527.339 426.148C528.33 426.469 529.39 426.511 530.403 426.27C531.417 426.029 532.344 425.514 533.085 424.781C534.712 422.844 534.322 419.898 533.264 417.473C531.148 412.834 523.367 404.939 517.393 407.202C508.767 410.506 518.093 420.272 521.935 423.088Z" fill="#043D94"/>
<path d="M539.596 434.922C538.456 436.322 537.252 438.096 537.886 439.805C538.24 440.523 538.822 441.104 539.54 441.457C540.258 441.811 541.073 441.916 541.858 441.759C543.419 441.388 544.877 440.67 546.123 439.659C549.167 437.543 555.417 433.148 551.429 428.965C547.441 424.781 541.907 431.976 539.596 434.922Z" fill="#043D94"/>
<path d="M514.122 375.885C513.465 375.923 512.836 376.167 512.325 376.582C511.814 376.996 511.446 377.561 511.273 378.196C511.013 379.71 512.266 381.028 513.471 381.956C516.498 384.3 525.597 390.583 527.616 384.512C529.536 378.782 518.126 375.445 514.122 375.885Z" fill="#043D94"/>
<path d="M530.871 355.929C528.999 356.108 527.127 355.424 525.239 355.538C523.351 355.652 521.284 357.166 521.691 359.022C522.098 360.877 524.197 361.284 525.923 361.382C528.893 361.572 531.876 361.37 534.794 360.78C535.485 360.714 536.125 360.388 536.584 359.868C537.349 358.745 536.145 357.247 534.843 356.857C533.506 356.679 532.191 356.363 530.92 355.913L530.871 355.929Z" fill="#043D94"/>
<path d="M549.199 368.837C551.071 368.837 552.894 368.088 554.782 368.072C556.67 368.056 558.851 369.439 558.542 371.327C558.233 373.216 556.215 373.753 554.489 373.964C551.54 374.355 548.551 374.355 545.602 373.964C544.903 373.948 544.238 373.662 543.746 373.167C542.916 372.109 544.023 370.53 545.276 370.041C546.603 369.794 547.898 369.395 549.134 368.853L549.199 368.837Z" fill="#043D94"/>
<path d="M547.343 507.55C547.775 507.101 548.351 506.818 548.971 506.753C549.389 506.793 549.781 506.977 550.078 507.274C550.375 507.571 550.559 507.962 550.599 508.381C550.689 509.185 550.589 509.999 550.306 510.757C549.02 515.038 534.696 545.948 531.392 540.398C529.455 537.142 534.24 526.253 535.656 523.177C538.359 517.174 542.349 511.839 547.343 507.55Z" fill="#043D94"/>
<path d="M540.36 364.93C540.36 364.93 539.498 357.426 541.305 356.792" stroke="#160037" stroke-linecap="round" stroke-linejoin="round"/>
<path d="M538.765 357.101C539.688 354.451 541.281 352.085 543.388 350.232C545.651 348.604 549.28 348.474 550.924 350.736C552.764 353.259 550.924 357.085 548.108 358.436C545.293 359.787 541.972 359.38 538.879 358.94C538.879 358.484 538.879 358.029 538.879 357.573L538.765 357.101Z" fill="#043D94"/>
<path d="M546.481 598.687C531.137 601.275 515.468 601.275 500.123 598.687L482.088 545.477H564.516L546.481 598.687Z" fill="white" stroke="#160037" stroke-linecap="round" stroke-linejoin="round"/>
<path d="M231.908 214.252V214.431C231.973 214.724 232.038 215.033 232.103 215.359C232.841 218.924 233.384 222.527 233.731 226.151C234.04 229.26 234.268 232.808 234.35 236.763C234.517 245.881 233.907 254.997 232.527 264.011C232.168 266.388 231.745 268.894 231.241 271.401C230.443 275.536 229.45 279.865 228.262 284.341C227.709 286.425 227.106 288.557 226.455 290.706C226.195 291.585 225.934 292.448 225.69 293.326C225.446 294.205 225.088 295.443 224.811 296.582" stroke="#160037" stroke-linecap="round" stroke-linejoin="round"/>
<path d="M231.941 214.48C230.773 213.458 229.495 212.568 228.132 211.827C226.628 211.035 225.031 210.433 223.379 210.037" fill="white"/>
<path d="M231.941 214.48C230.773 213.458 229.495 212.568 228.132 211.827C226.628 211.035 225.031 210.433 223.379 210.037" stroke="#160037" stroke-linecap="round" stroke-linejoin="round"/>
<path d="M233.764 226.2L238.11 222.277" stroke="#160037" stroke-linecap="round" stroke-linejoin="round"/>
<path d="M228.262 284.423C228.03 283.28 227.686 282.163 227.236 281.086C226.595 279.507 225.723 278.031 224.648 276.708C223.846 275.713 222.934 274.812 221.93 274.022" stroke="#160037" stroke-linecap="round" stroke-linejoin="round"/>
<path d="M224.795 296.566C225.402 295.045 226.317 293.665 227.482 292.514C228.648 291.363 230.038 290.465 231.566 289.876" stroke="#160037" stroke-linecap="round" stroke-linejoin="round"/>
<path d="M217.259 357.182C218.707 355.424 219.814 348.767 220.4 345.186C220.53 344.339 220.661 343.558 220.758 343.086" fill="white"/>
<path d="M217.259 357.182C218.707 355.424 219.814 348.767 220.4 345.186C220.53 344.339 220.661 343.558 220.758 343.086" stroke="#160037" stroke-linecap="round" stroke-linejoin="round"/>
<path d="M206.109 369.195C206.596 369.147 207.087 369.147 207.574 369.195C209.704 369.408 211.737 370.193 213.457 371.469C215.176 372.744 216.518 374.462 217.34 376.439" fill="white"/>
<path d="M206.109 369.195C206.596 369.147 207.087 369.147 207.574 369.195C209.704 369.408 211.737 370.193 213.457 371.469C215.176 372.744 216.518 374.462 217.34 376.439" stroke="#160037" stroke-linecap="round" stroke-linejoin="round"/>
<path d="M231.224 271.531C231.224 271.531 232.006 245.114 217.487 235.526" stroke="#160037" stroke-linecap="round" stroke-linejoin="round"/>
<path d="M232.543 328.225C234.431 334.394 221.149 346.13 221.149 346.13C221.149 346.13 203.569 343.932 201.616 337.78C199.663 331.627 204.172 321.502 212.685 318.898C221.198 316.294 230.638 322.072 232.543 328.225Z" fill="#043D94"/>
<path d="M247.29 253.464C245.662 259.975 233.031 264.646 233.031 264.646C233.031 264.646 224.258 254.506 225.951 247.962C227.643 241.419 234.578 234.224 240.47 235.738C246.362 237.252 248.918 246.921 247.29 253.464Z" fill="#043D94"/>
<path d="M196.831 351.241C204.725 354.317 209.576 368.267 209.576 368.267C209.576 368.267 196.554 375.282 188.66 372.206C180.765 369.13 172.382 360.47 174.678 354.692C176.973 348.913 188.92 348.165 196.831 351.241Z" fill="#043D94"/>
<path d="M214.133 274.412C215.725 275.756 217.552 276.793 219.521 277.473C220.512 277.793 221.572 277.835 222.586 277.594C223.599 277.353 224.527 276.838 225.267 276.105C226.895 274.168 226.504 271.222 225.446 268.797C223.33 264.158 215.566 256.263 209.576 258.526C200.965 261.798 210.276 271.564 214.133 274.412Z" fill="#043D94"/>
<path d="M231.778 286.262C230.655 287.662 229.45 289.518 230.069 291.145C230.423 291.863 231.004 292.444 231.722 292.797C232.441 293.151 233.256 293.257 234.04 293.099C235.603 292.731 237.061 292.013 238.305 290.999C241.349 288.899 247.599 284.488 243.611 280.305C239.623 276.122 234.171 283.3 231.778 286.262Z" fill="#043D94"/>
<path d="M206.304 227.209C205.648 227.25 205.02 227.494 204.51 227.909C203.999 228.323 203.631 228.886 203.456 229.52C203.195 231.034 204.449 232.353 205.669 233.28C208.697 235.624 217.78 241.907 219.814 235.836C221.719 230.106 210.325 226.77 206.304 227.209Z" fill="#043D94"/>
<path d="M223.053 207.254C221.181 207.433 219.31 206.749 217.438 206.863C215.566 206.977 213.466 208.491 213.889 210.346C214.312 212.202 216.38 212.609 218.121 212.706C221.087 212.897 224.064 212.695 226.976 212.104C227.672 212.039 228.317 211.714 228.783 211.193C229.532 210.07 228.327 208.572 227.041 208.181C225.699 208.004 224.379 207.688 223.102 207.237L223.053 207.254Z" fill="#043D94"/>
<path d="M241.381 220.161C243.27 220.161 245.093 219.412 246.964 219.396C248.836 219.38 251.034 220.763 250.741 222.652C250.448 224.54 248.397 225.077 246.671 225.288C243.722 225.679 240.734 225.679 237.784 225.288C237.086 225.272 236.421 224.987 235.929 224.491C235.098 223.433 236.205 221.854 237.475 221.366C238.801 221.113 240.094 220.715 241.333 220.177L241.381 220.161Z" fill="#043D94"/>
<path d="M239.526 358.875C239.959 358.427 240.534 358.145 241.153 358.077C241.568 358.126 241.955 358.313 242.25 358.608C242.546 358.903 242.733 359.29 242.781 359.705C242.865 360.51 242.759 361.324 242.472 362.081C241.202 366.362 226.862 397.273 223.574 391.722C221.621 388.467 226.406 377.577 227.822 374.501C230.53 368.496 234.525 363.161 239.526 358.875Z" fill="#043D94"/>
<path d="M232.543 216.287C232.543 216.287 231.68 208.783 233.503 208.148" stroke="#160037" stroke-linecap="round" stroke-linejoin="round"/>
<path d="M231.013 208.425C231.924 205.769 233.518 203.4 235.636 201.556C237.898 199.928 241.512 199.798 243.156 202.061C244.995 204.584 243.156 208.409 240.34 209.76C237.524 211.111 234.219 210.704 231.127 210.264C231.127 209.809 231.127 209.353 231.127 208.897L231.013 208.425Z" fill="#043D94"/>
<path d="M25.6763 394.18V233.345" stroke="#160037" stroke-linecap="round" stroke-linejoin="round"/>
<path d="M527.827 394.18H507.953" stroke="#160037" stroke-linecap="round" stroke-linejoin="round"/>
<path d="M683.681 394.18H643.2" stroke="#160037" stroke-linecap="round" stroke-linejoin="round"/>
<path d="M506.13 149.843H577.863V81.5117" stroke="#160037" stroke-linecap="round" stroke-linejoin="round"/>
<path d="M88.0341 128.976H164.244V184.563H247.778" stroke="#160037" stroke-linecap="round" stroke-linejoin="round"/>
<path d="M43.0765 317.222V194.394" stroke="#160037" stroke-linecap="round" stroke-linejoin="round"/>
<path d="M77.1284 141.086V237.35" stroke="#160037" stroke-linecap="round" stroke-linejoin="round"/>
<path d="M111.164 141.086V226.184" stroke="#160037" stroke-linecap="round" stroke-linejoin="round"/>
<path d="M145.2 141.086V289.941" stroke="#160037" stroke-linecap="round" stroke-linejoin="round"/>
<path d="M308.248 119.975V22.1001H446.816V119.975" stroke="#160037" stroke-linecap="round" stroke-linejoin="round"/>
<path d="M318.405 70.7202V33.7222H344.025" stroke="#160037" stroke-linecap="round" stroke-linejoin="round"/>
<path d="M349.657 70.7202V33.7222H375.277" stroke="#160037" stroke-linecap="round" stroke-linejoin="round"/>
<path d="M380.909 70.7202V33.7222H406.53" stroke="#160037" stroke-linecap="round" stroke-linejoin="round"/>
<path d="M412.161 70.7202V33.7222H437.782" stroke="#160037" stroke-linecap="round" stroke-linejoin="round"/>
<path d="M318.405 119.975V82.9766H344.025" stroke="#160037" stroke-linecap="round" stroke-linejoin="round"/>
<path d="M349.657 119.975V82.9766H375.277" stroke="#160037" stroke-linecap="round" stroke-linejoin="round"/>
<path d="M380.909 119.975V82.9766H406.53" stroke="#160037" stroke-linecap="round" stroke-linejoin="round"/>
<path d="M412.161 119.975V82.9766H437.782" stroke="#160037" stroke-linecap="round" stroke-linejoin="round"/>
<path d="M588.964 89.9761V212.625" stroke="#160037" stroke-linecap="round" stroke-linejoin="round"/>
<path d="M639.277 385.195H643.2" stroke="#160037" stroke-linecap="round" stroke-linejoin="round"/>
<path d="M619.126 125.2V262.514" stroke="#160037" stroke-linecap="round" stroke-linejoin="round"/>
<path d="M649.304 350.134V385.195H673.378" stroke="#160037" stroke-linecap="round" stroke-linejoin="round"/>
<path d="M649.304 169.962V263.214" stroke="#160037" stroke-linecap="round" stroke-linejoin="round"/>
<path d="M679.465 240.719V385.195H684.951" stroke="#160037" stroke-linecap="round" stroke-linejoin="round"/>
<path d="M311.894 397.126H1V599.061H311.894V397.126Z" fill="white" stroke="#160037" stroke-linecap="round" stroke-linejoin="round"/>
<path d="M1 397.126L156.447 498.094L311.894 397.126H1Z" fill="white" stroke="#160037" stroke-linecap="round" stroke-linejoin="round"/>
<path d="M109.715 467.737L1 599.061" stroke="#160037" stroke-linecap="round" stroke-linejoin="round"/>
<path d="M204.025 467.737L312.741 599.061" stroke="#160037" stroke-linecap="round" stroke-linejoin="round"/>
<path d="M478.263 139.459H405.992C403.911 139.461 401.868 140.021 400.076 141.08C398.284 142.139 396.809 143.659 395.803 145.481C394.027 148.686 391.425 151.358 388.268 153.218C385.111 155.078 381.514 156.059 377.849 156.059C374.185 156.059 370.587 155.078 367.43 153.218C364.273 151.358 361.671 148.686 359.895 145.481C358.898 143.635 357.419 142.094 355.617 141.019C353.815 139.944 351.755 139.377 349.657 139.377H277.468C275.486 139.351 273.519 139.716 271.679 140.451C269.838 141.185 268.16 142.275 266.741 143.658C265.322 145.041 264.189 146.69 263.407 148.511C262.625 150.332 262.209 152.289 262.184 154.271V561.884C262.239 565.884 263.88 569.7 266.746 572.492C269.611 575.284 273.467 576.825 277.468 576.778H478.263C482.265 576.825 486.123 575.285 488.991 572.493C491.859 569.701 493.504 565.886 493.564 561.884V154.352C493.508 150.349 491.865 146.531 488.996 143.739C486.127 140.946 482.267 139.406 478.263 139.459Z" fill="#043D94"/>
<path d="M500.612 149.844C500.62 147.098 500.087 144.377 499.042 141.838C497.997 139.299 496.461 136.991 494.523 135.046C492.584 133.101 490.281 131.559 487.745 130.506C485.209 129.453 482.49 128.911 479.744 128.911H276.003C273.263 128.909 270.55 129.447 268.019 130.494C265.487 131.541 263.186 133.076 261.248 135.013C259.311 136.949 257.773 139.248 256.724 141.779C255.675 144.31 255.136 147.023 255.136 149.762V578.161C255.136 583.691 257.332 588.995 261.243 592.905C265.153 596.815 270.457 599.012 275.987 599.012H479.744C485.276 599.012 490.581 596.816 494.494 592.906C498.407 588.996 500.607 583.693 500.612 578.161V149.844ZM493.564 561.884C493.504 565.886 491.859 569.701 488.991 572.493C486.123 575.285 482.265 576.825 478.263 576.778H277.468C273.467 576.825 269.611 575.284 266.745 572.492C263.88 569.7 262.239 565.885 262.184 561.884V154.352C262.209 152.371 262.625 150.414 263.407 148.593C264.188 146.772 265.321 145.123 266.741 143.74C268.16 142.357 269.838 141.267 271.678 140.532C273.519 139.798 275.486 139.433 277.468 139.459H349.69C351.786 139.458 353.843 140.025 355.643 141.1C357.443 142.175 358.918 143.717 359.912 145.563C361.688 148.768 364.289 151.439 367.446 153.299C370.604 155.159 374.201 156.14 377.865 156.14C381.53 156.14 385.127 155.159 388.284 153.299C391.442 151.439 394.043 148.768 395.819 145.563C396.822 143.738 398.297 142.217 400.09 141.157C401.882 140.098 403.927 139.539 406.009 139.54H478.279C480.261 139.514 482.228 139.879 484.069 140.614C485.909 141.348 487.587 142.438 489.006 143.821C490.426 145.204 491.559 146.853 492.341 148.674C493.123 150.495 493.538 152.452 493.564 154.434V561.884Z" fill="#160037"/>
<path opacity="0.2" d="M431.385 128.976L296.04 599.045L349.787 598.996L480.119 128.976H431.385Z" fill="white"/>
<path opacity="0.2" d="M411.201 128.976L268.108 599.061L275.938 599.012L416.345 128.976H411.201Z" fill="white"/>
<path d="M414.375 478.431C414.475 483.09 413.642 487.722 411.924 492.055C410.206 496.387 407.639 500.332 404.373 503.657C401.107 506.982 397.209 509.619 392.908 511.415C388.607 513.21 383.991 514.126 379.33 514.11C369.821 514.074 360.703 510.323 353.921 503.657C347.139 496.99 343.232 487.938 343.032 478.431C342.935 473.773 343.77 469.142 345.488 464.812C347.207 460.481 349.775 456.538 353.04 453.215C356.306 449.892 360.203 447.256 364.503 445.461C368.803 443.667 373.418 442.751 378.077 442.767C387.585 442.799 396.703 446.547 403.485 453.21C410.267 459.874 414.176 468.925 414.375 478.431Z" fill="white" stroke="#160037" stroke-linecap="round" stroke-linejoin="round"/>
<path d="M367.009 505.06C363.696 503.835 360.658 501.965 358.072 499.558C355.466 497.054 353.447 494.002 352.164 490.622C350.701 486.834 349.977 482.801 350.031 478.74C350.011 475.278 350.623 471.841 351.838 468.599C352.942 465.605 354.599 462.844 356.721 460.461C360.906 455.884 366.31 452.597 372.299 450.987C375.239 450.195 378.271 449.795 381.316 449.799C383.845 449.788 386.365 450.088 388.82 450.694C391.189 451.276 393.456 452.215 395.542 453.478C397.609 454.719 399.461 456.285 401.028 458.117C402.661 460.092 403.909 462.355 404.707 464.79C405.619 467.568 406.07 470.477 406.041 473.401C406.007 479.052 403.971 484.507 400.295 488.799C398.715 490.591 396.844 492.104 394.761 493.275C392.966 494.306 390.939 494.866 388.869 494.903C387.44 494.922 386.044 494.47 384.897 493.617C384.322 493.191 383.853 492.637 383.528 491.998C383.203 491.36 383.031 490.655 383.025 489.939C381.957 491.562 380.492 492.885 378.768 493.783C377.045 494.68 375.12 495.122 373.178 495.066C371.65 495.134 370.126 494.86 368.717 494.263C367.309 493.665 366.052 492.761 365.039 491.615C363.007 489.253 361.933 486.216 362.028 483.102C362.041 480.539 362.487 477.997 363.346 475.582C364.202 473.149 365.414 470.856 366.943 468.778C368.468 466.737 370.41 465.044 372.64 463.814C374.87 462.555 377.389 461.899 379.949 461.909C381.729 461.891 383.485 462.316 385.06 463.146C386.589 463.961 387.828 465.229 388.608 466.776L388.934 465.686C389.193 464.922 389.745 464.292 390.469 463.935C391.192 463.578 392.028 463.523 392.792 463.781C393.087 463.882 393.367 464.024 393.622 464.204C393.864 464.398 394.057 464.647 394.185 464.93C394.312 465.213 394.37 465.522 394.354 465.832C394.355 466.137 394.305 466.439 394.208 466.727L388.934 484.274C388.469 485.611 388.168 486.999 388.039 488.409C387.99 488.672 388.007 488.942 388.088 489.197C388.169 489.452 388.312 489.683 388.503 489.87C388.695 490.056 388.929 490.193 389.186 490.267C389.443 490.342 389.714 490.352 389.976 490.297C391.842 490.177 393.591 489.344 394.859 487.969C396.617 486.231 397.968 484.124 398.814 481.8C399.824 479.262 400.343 476.556 400.344 473.824C400.366 471.419 400.014 469.025 399.303 466.727C398.704 464.746 397.756 462.889 396.503 461.242C395.316 459.742 393.879 458.459 392.254 457.449C390.635 456.428 388.867 455.665 387.013 455.187C385.111 454.687 383.153 454.435 381.186 454.438C378.692 454.442 376.21 454.792 373.812 455.48C371.343 456.179 368.991 457.238 366.83 458.621C364.651 459.996 362.678 461.673 360.97 463.602C359.21 465.634 357.842 467.974 356.933 470.504C355.911 473.258 355.398 476.176 355.419 479.114C355.366 482.594 355.996 486.051 357.275 489.288C358.377 492.09 360.116 494.597 362.353 496.612C364.515 498.489 367.011 499.941 369.711 500.893C372.559 501.901 375.56 502.407 378.582 502.391C381.811 502.391 385.021 501.902 388.104 500.942C388.412 500.831 388.737 500.776 389.064 500.779C389.369 500.774 389.672 500.834 389.953 500.955C390.233 501.076 390.485 501.254 390.692 501.479C390.9 501.695 391.063 501.95 391.171 502.23C391.28 502.509 391.333 502.807 391.327 503.107C391.366 503.58 391.232 504.052 390.951 504.435C390.67 504.818 390.26 505.086 389.797 505.19C385.955 506.365 381.964 506.979 377.947 507.013C374.214 507.009 370.512 506.347 367.009 505.06ZM380.454 488.181C382.063 487.025 383.256 485.381 383.855 483.493L387.257 471.529L387.03 471.041C386.818 470.649 386.561 470.283 386.264 469.95C385.857 469.48 385.41 469.044 384.93 468.648C384.32 468.161 383.632 467.782 382.895 467.525C380.969 466.852 378.86 466.928 376.986 467.737C375.96 468.171 375.018 468.783 374.203 469.543C373.356 470.334 372.602 471.218 371.957 472.18C371.31 473.182 370.765 474.245 370.329 475.354C369.872 476.464 369.517 477.614 369.271 478.789C369.025 479.906 368.9 481.047 368.897 482.191C368.882 482.925 368.926 483.66 369.027 484.388C369.102 485.036 369.244 485.674 369.45 486.293C369.629 486.868 369.886 487.416 370.215 487.92C370.51 488.375 370.885 488.772 371.322 489.092C371.788 489.43 372.312 489.678 372.868 489.825C373.518 490.015 374.194 490.103 374.87 490.085C376.907 490.11 378.894 489.457 380.519 488.23L380.454 488.181Z" fill="#043D94" stroke="#160037" stroke-linecap="round" stroke-linejoin="round"/>
<path d="M413.578 356.14C413.675 360.798 412.84 365.428 411.121 369.759C409.403 374.089 406.835 378.032 403.569 381.355C400.304 384.679 396.407 387.315 392.107 389.109C387.807 390.903 383.192 391.819 378.533 391.803C369.025 391.771 359.907 388.023 353.125 381.36C346.343 374.696 342.434 365.646 342.235 356.14C342.133 351.48 342.965 346.847 344.682 342.513C346.399 338.18 348.966 334.234 352.232 330.909C355.498 327.583 359.397 324.946 363.699 323.151C368.001 321.357 372.618 320.442 377.28 320.46C386.789 320.496 395.907 324.248 402.689 330.914C409.471 337.58 413.378 346.633 413.578 356.14Z" fill="white" stroke="#160037" stroke-linecap="round" stroke-linejoin="round"/>
<path d="M400.295 352.885C389.113 345.56 367.188 345.56 356.526 352.885C354.576 353.251 352.823 354.305 351.586 355.856C350.349 357.407 349.71 359.351 349.787 361.333C349.95 366.07 369.629 366.07 369.466 361.333C369.371 359.353 368.614 357.462 367.318 355.962C374.698 354.366 382.335 354.366 389.715 355.962C388.514 357.489 387.891 359.391 387.957 361.333C388.12 366.07 407.799 366.07 407.62 361.333C407.528 359.306 406.754 357.37 405.425 355.837C404.096 354.304 402.289 353.264 400.295 352.885Z" fill="#043D94" stroke="#160037" stroke-linecap="round" stroke-linejoin="round"/>
<path d="M413.578 237.349C413.773 246.122 408.987 253.968 401.305 259.193V280.5L386.02 265.199C383.549 265.641 381.043 265.859 378.533 265.85C358.837 265.85 342.577 253.089 342.235 237.349C341.893 221.609 357.568 208.864 377.279 208.864C396.991 208.864 413.317 221.69 413.578 237.349Z" fill="white" stroke="#160037" stroke-linecap="round" stroke-linejoin="round"/>
<path d="M362.711 237.349C362.715 238.264 362.446 239.159 361.94 239.922C361.434 240.684 360.713 241.279 359.869 241.632C359.025 241.984 358.095 242.078 357.197 241.901C356.299 241.725 355.474 241.286 354.826 240.64C354.178 239.994 353.736 239.17 353.556 238.273C353.376 237.376 353.467 236.446 353.816 235.6C354.166 234.755 354.758 234.032 355.519 233.523C356.279 233.014 357.174 232.743 358.089 232.743C359.312 232.743 360.485 233.227 361.352 234.091C362.218 234.954 362.707 236.126 362.711 237.349Z" fill="#043D94" stroke="#160037" stroke-linecap="round" stroke-linejoin="round"/>
<path d="M382.488 237.349C382.491 238.264 382.223 239.159 381.717 239.922C381.211 240.684 380.49 241.279 379.646 241.632C378.801 241.984 377.871 242.078 376.974 241.901C376.076 241.725 375.251 241.286 374.602 240.64C373.954 239.994 373.512 239.17 373.333 238.273C373.153 237.376 373.244 236.446 373.593 235.6C373.942 234.755 374.535 234.032 375.295 233.523C376.056 233.014 376.95 232.743 377.865 232.743C379.089 232.743 380.262 233.227 381.128 234.091C381.995 234.954 382.484 236.126 382.488 237.349Z" fill="#043D94" stroke="#160037" stroke-linecap="round" stroke-linejoin="round"/>
<path d="M402.265 237.349C402.268 238.264 402 239.159 401.494 239.922C400.988 240.684 400.267 241.279 399.423 241.632C398.578 241.984 397.648 242.078 396.75 241.901C395.853 241.725 395.027 241.286 394.379 240.64C393.731 239.994 393.289 239.17 393.11 238.273C392.93 237.376 393.021 236.446 393.37 235.6C393.719 234.755 394.312 234.032 395.072 233.523C395.833 233.014 396.727 232.743 397.642 232.743C398.865 232.743 400.039 233.227 400.905 234.091C401.772 234.954 402.261 236.126 402.265 237.349Z" fill="#043D94" stroke="#160037" stroke-linecap="round" stroke-linejoin="round"/>
<path d="M178.6 302.311C178.023 303.386 177.19 304.303 176.175 304.981C168.666 310.971 160.983 316.717 153.126 322.219C150.245 324.237 147.25 326.32 144.467 328.583C127.734 339.782 137.956 342.516 127.734 366.216C125.325 371.88 125.765 399.633 125.765 399.633H124.934C122.975 397.699 120.893 395.894 118.7 394.229C118.397 394.025 118.082 393.84 117.756 393.675C117.45 393.518 117.12 393.413 116.78 393.366C115.152 393.268 108.95 394.017 102.684 393.61L101.056 393.48C100.144 393.382 99.249 393.268 98.3538 393.106C97.4585 392.943 96.5958 392.764 95.7657 392.536C89.8186 390.629 83.987 388.379 78.3003 385.797L75.4681 384.576L74.0682 383.974L72.7986 383.421L71.8871 383.03L71.0081 382.656C69.5269 382.037 68.1433 381.467 66.8737 381.028C66.2917 380.819 65.6996 380.64 65.0995 380.491C65.0995 381.825 64.8879 383.193 64.7088 384.528C63.9275 390.892 62.1859 396.768 59.0769 397.549C59.0129 397.566 58.9457 397.566 58.8816 397.549C58.6078 397.601 58.33 397.628 58.0515 397.631H57.8073C57.1186 397.617 56.4368 397.49 55.7889 397.256C52.9674 396.052 50.6616 393.89 49.2781 391.152C48.6598 389.998 48.3146 388.717 48.2689 387.409C48.2689 382.672 46.9504 354.724 46.9504 346.585C46.9504 338.447 48.5782 324.204 52.6312 318.914C54.2151 316.671 56.2155 314.754 58.5235 313.266C61.4933 310.79 64.8994 308.891 68.5665 307.667C72.8963 306.251 82.5812 302.637 89.3362 300.082L79.1304 304.021C81.7185 308.448 87.269 315.415 97.2795 316.31C106.688 317.107 112.515 308.595 115.494 302.377C115.754 302.474 132.129 299.365 135.921 299.544C148.276 300.082 158.351 293.392 162.909 290.738C164.284 289.917 165.826 289.417 167.422 289.275C169.017 289.134 170.623 289.355 172.121 289.921C173.619 290.488 174.97 291.386 176.072 292.548C177.174 293.709 177.999 295.105 178.486 296.631V296.777C179.198 298.546 179.239 300.515 178.6 302.311Z" fill="#043D94" stroke="#160037" stroke-linecap="round" stroke-linejoin="round"/>
<path d="M115.315 302.474L114.566 302.214L115.315 302.474Z" fill="white" stroke="#160037" stroke-linecap="round" stroke-linejoin="round"/>
<path d="M129.199 406.795C129.207 406.86 129.207 406.925 129.199 406.99C129.133 407.148 129.032 407.288 128.905 407.401C128.777 407.514 128.626 407.598 128.462 407.644C128.298 407.691 128.125 407.701 127.957 407.672C127.789 407.643 127.629 407.577 127.49 407.479C126.741 407.055 125.585 404.337 125.585 404.337L124.3 403.002L123.453 402.107C123.583 402.433 124.609 404.923 124.072 406.079C124.044 406.158 124 406.23 123.941 406.29C123.582 406.771 123.115 407.161 122.578 407.429C122.041 407.698 121.449 407.837 120.849 407.837C120.149 407.837 118.098 408.081 116.307 408.195H116.112C115.57 408.225 115.027 408.225 114.484 408.195C113.039 408.009 111.645 407.539 110.383 406.811C107.519 406.391 104.698 405.721 101.951 404.809L101.463 404.549L101.023 404.288C100.734 404.114 100.467 403.906 100.226 403.67C99.2337 402.843 98.3913 401.852 97.7352 400.74C97.7352 400.74 91.1267 400.463 82.2556 399.78C79.0002 399.535 75.4843 399.226 71.8382 398.868C66.2388 398.298 61.6161 398.331 57.9863 397.826H57.7259C57.0097 397.729 56.3423 397.598 55.7075 397.452C54.1583 397.149 52.7258 396.416 51.5743 395.336C50.4227 394.257 49.5987 392.874 49.1967 391.348C48.9835 390.625 48.8096 389.892 48.6758 389.151L51.508 384.267C52.9842 383.083 54.6304 382.129 56.3912 381.435C59.123 380.292 62.1395 380.014 65.0343 380.638C65.6344 380.787 66.2266 380.966 66.8086 381.175C68.0782 381.663 69.4617 382.233 70.943 382.802L71.8382 383.177L72.7497 383.567L74.0193 384.121C81.2627 387.116 89.9059 390.974 95.6843 392.601C97.4198 393.056 99.1887 393.371 100.974 393.545L102.602 393.676C108.869 394.083 115.054 393.334 116.698 393.431C118.342 393.529 122.363 397.354 124.934 399.714C125.634 400.365 126.253 400.903 126.676 401.228L126.871 401.391L127.018 401.521C127.95 402.478 128.603 403.671 128.906 404.972C129.034 405.408 129.121 405.855 129.166 406.307C129.196 406.468 129.207 406.632 129.199 406.795Z" fill="white" stroke="#160037" stroke-linecap="round" stroke-linejoin="round"/>
<path d="M129.199 406.795C129.207 406.86 129.207 406.925 129.199 406.99C129.131 407.146 129.03 407.285 128.901 407.396C128.773 407.508 128.621 407.589 128.457 407.635C128.293 407.68 128.122 407.688 127.954 407.658C127.787 407.628 127.628 407.561 127.49 407.462C126.685 406.528 126.042 405.466 125.586 404.321L124.3 403.002L123.453 402.123C123.567 402.384 124.625 404.923 124.088 406.095C124.061 406.174 124.016 406.246 123.958 406.306C123.777 406.547 123.57 406.765 123.339 406.958C122.637 407.521 121.765 407.831 120.865 407.837C120.149 407.837 118.114 408.064 116.34 408.195H116.112C115.57 408.225 115.027 408.225 114.485 408.195C113.048 408.003 111.661 407.539 110.399 406.827C107.536 406.399 104.715 405.723 101.967 404.809L101.495 404.581L101.056 404.321C100.774 404.135 100.508 403.929 100.258 403.702C99.2518 402.868 98.3981 401.866 97.7353 400.74C97.7353 400.74 91.3221 400.463 82.6301 399.796C79.3746 399.551 75.6146 399.226 71.8383 398.852C66.6947 398.347 62.4464 398.2 59.0119 397.663L57.9539 397.468L56.7331 397.191C56.4517 395.197 56.6583 393.164 57.3354 391.266C57.9663 389.666 58.9448 388.225 60.2002 387.048C61.4557 385.872 62.9567 384.988 64.595 384.463C66.6281 383.715 68.7113 383.111 70.8291 382.656L71.7081 383.03L72.6196 383.421L73.8892 383.974C81.2628 387.148 89.8083 390.99 95.603 392.569C97.3373 393.025 99.1069 393.336 100.893 393.496L102.521 393.627C108.788 394.05 114.973 393.301 116.617 393.399C118.261 393.496 122.265 397.305 124.755 399.665C125.32 400.205 125.913 400.716 126.53 401.195L126.725 401.342L126.871 401.472C127.821 402.415 128.477 403.614 128.76 404.923C128.888 405.359 128.975 405.806 129.02 406.258C129.103 406.428 129.164 406.609 129.199 406.795Z" fill="white" stroke="#160037" stroke-linecap="round" stroke-linejoin="round"/>
<path d="M109.715 402.465C109.715 402.465 113.41 404.386 114.875 405.053C116.34 405.721 116.21 408.406 116.21 408.406" fill="white"/>
<path d="M109.715 402.465C109.715 402.465 113.41 404.386 114.875 405.053C116.34 405.721 116.21 408.406 116.21 408.406" stroke="#160037" stroke-linecap="round" stroke-linejoin="round"/>
<path d="M113.671 399.861C115.995 401.52 118.233 403.296 120.377 405.184C120.69 405.551 120.894 405.999 120.966 406.476C121.038 406.954 120.975 407.442 120.784 407.886" fill="white"/>
<path d="M113.671 399.861C115.995 401.52 118.233 403.296 120.377 405.184C120.69 405.551 120.894 405.999 120.966 406.476C121.038 406.954 120.975 407.442 120.784 407.886" stroke="#160037" stroke-linecap="round" stroke-linejoin="round"/>
<path d="M123.404 402.091C121.478 400.027 119.441 398.071 117.3 396.231L123.404 402.091Z" fill="white"/>
<path d="M123.404 402.091C121.478 400.027 119.441 398.071 117.3 396.231" stroke="#160037" stroke-linecap="round" stroke-linejoin="round"/>
<path d="M115.298 302.507C112.352 308.709 106.509 317.156 97.1005 316.424C87.1388 315.578 81.5395 308.562 78.9514 304.118C82.5324 302.751 86.1622 301.351 89.1409 300.179C89.1409 297.152 89.0433 293.522 88.7177 289.925C88.7177 289.143 88.5549 288.297 88.4736 287.565C88.3922 286.832 88.2945 286.311 88.1969 285.709H107.127C107.127 285.709 107.013 286.458 106.867 287.711C106.753 288.834 106.606 290.332 106.492 292.025C106.346 294.271 106.248 296.908 106.313 299.398C107.225 299.707 108.153 300.049 109.08 300.407L110.871 301.026C111.587 301.286 112.287 301.514 113.036 301.758L114.664 302.247C114.88 302.32 115.092 302.407 115.298 302.507Z" fill="white" stroke="#160037" stroke-linecap="round" stroke-linejoin="round"/>
<path d="M88.4736 287.5C88.4736 287.5 92.0057 296.68 97.133 298.242C102.26 299.805 106.899 287.711 106.899 287.711C106.899 287.711 99.6723 295.427 96.9865 294.222C94.3008 293.017 88.5061 287.565 88.5061 287.565" fill="#160037"/>
<path d="M85.4297 236.796C80.6461 241.102 76.8532 246.394 74.3124 252.308C71.9847 257.191 70.0152 262.807 71.8057 267.918C72.8771 270.456 74.393 272.782 76.2819 274.787C79.7978 279.003 84.7297 290.771 88.2456 294.987C88.4735 287.483 82.1905 275.356 82.8579 269.057C83.6662 264.191 85.2663 259.489 87.5945 255.14C89.9624 249.437 93.0591 244.064 96.8074 239.156C98.9397 236.584 105.792 232.01 98.8746 231.457C94.2845 231.083 88.8967 233.947 85.4297 236.796Z" fill="#160037" stroke="#160037" stroke-linecap="round" stroke-linejoin="round"/>
<path d="M81.0024 262.383C81.0024 262.383 78.5771 257.679 76.0216 262.139C74.1822 265.395 76.8354 270.522 77.9748 272.426C78.3529 272.968 78.865 273.403 79.4613 273.688C80.0575 273.974 80.7174 274.1 81.3768 274.054L81.0024 262.383Z" fill="white" stroke="#160037" stroke-linecap="round" stroke-linejoin="round"/>
<path d="M112.873 279.377C111.318 282.451 109.291 285.263 106.867 287.711L105.402 289.225C102.374 292.22 99.1025 294.596 96.9539 294.108C95.082 293.734 92.6405 291.813 90.2477 289.355C89.6455 288.753 89.0595 288.102 88.4735 287.451C85.8683 284.6 83.6316 281.434 81.8161 278.026C81.3118 276.748 80.9886 275.406 80.8558 274.038C80.4451 269.961 80.3037 265.861 80.4326 261.765C80.4326 260.317 80.4326 259.161 80.4326 258.51C80.4326 255.678 91.0453 245.83 91.0453 245.83C91.3313 245.725 91.6386 245.691 91.9405 245.732C93.7658 246.064 95.525 246.691 97.1493 247.588C103.579 250.713 112.547 256.915 113.199 259.275C114.191 262.709 113.817 276.317 112.873 279.377Z" fill="white" stroke="#160037" stroke-linecap="round" stroke-linejoin="round"/>
<path d="M91.7941 266.323C91.7941 267.462 91.3709 268.39 90.8989 268.39C90.4268 268.39 89.9548 267.495 89.9548 266.323C89.9548 265.151 90.378 264.223 90.8989 264.223C91.4197 264.223 91.7941 265.183 91.7941 266.323Z" fill="#160037"/>
<path d="M103.921 264.239C104.441 264.239 104.865 265.167 104.865 266.322C104.865 267.478 104.441 268.389 103.921 268.389C103.4 268.389 102.977 267.462 102.977 266.322C102.977 265.183 103.4 264.239 103.921 264.239Z" fill="#160037"/>
<path d="M85.739 261.196C85.739 261.196 87.3667 257.94 93.1288 258.933" stroke="#160037" stroke-linecap="round" stroke-linejoin="round"/>
<path d="M109.276 261.196C109.276 261.196 107.648 257.94 101.886 258.933" stroke="#160037" stroke-linecap="round" stroke-linejoin="round"/>
<path d="M98.6143 274.283C99.1997 274.246 99.7578 274.022 100.206 273.644C100.655 273.266 100.97 272.754 101.105 272.183C101.105 272.183 97.9469 267.3 98.9072 262.514" stroke="#160037" stroke-linecap="round" stroke-linejoin="round"/>
<path d="M78.9514 250.99C77.64 252.769 76.6486 254.763 76.0215 256.882" stroke="white" stroke-linecap="round" stroke-linejoin="round"/>
<path d="M92.5591 237.968C92.5591 237.968 90.7524 240.963 82.7928 247.067C82.2799 247.437 81.7906 247.84 81.3279 248.271" stroke="white" stroke-linecap="round" stroke-linejoin="round"/>
<path d="M67.0364 333.401C65.9513 348.876 64.8662 364.361 63.781 379.856V378.668" fill="#160037"/>
<path d="M67.0364 333.401C65.9513 348.876 64.8662 364.361 63.781 379.856V378.668" stroke="#160037" stroke-linecap="round" stroke-linejoin="round"/>
<path d="M169.859 282.307C171.331 281.732 172.921 281.527 174.49 281.708C176.059 281.89 177.56 282.453 178.861 283.349C181.457 285.187 183.346 287.858 184.216 290.918C185.254 293.965 185.149 297.285 183.923 300.261C183.288 301.728 182.267 302.995 180.969 303.927C179.67 304.858 178.142 305.42 176.549 305.551C174.175 305.521 171.881 304.689 170.038 303.191C163.951 298.633 160.907 286.165 169.859 282.307Z" fill="white" stroke="#160037" stroke-linecap="round" stroke-linejoin="round"/>
<path d="M183.337 230.334C183.337 230.529 183.337 231.815 183.451 232.043C184.021 234.549 185.225 240.816 182.181 242.086C183.337 246.204 186.169 273.11 185.795 286.832C185.697 290.934 184.981 295.8 181.302 297.558C175.101 300.505 169.208 293.326 169.908 287.711C170.999 280.044 170.624 272.231 171.536 264.483C172.529 256.442 174.352 248.206 172.35 240.344C171.861 239.807 168.736 233.605 167.711 231.896C167.251 231.166 166.889 230.378 166.636 229.552C166.236 226.744 166.04 223.909 166.051 221.072C166.978 219.314 168.183 220.942 168.818 222.097C169.335 223.506 169.514 225.018 169.339 226.509C169.278 226.873 169.329 227.248 169.485 227.583C169.622 227.775 169.806 227.927 170.021 228.024C170.235 228.121 170.472 228.16 170.706 228.136C172.708 227.843 172.627 226.167 172.594 224.881C172.594 220.567 172.594 216.254 172.594 211.973C172.594 211.257 172.822 209.32 173.505 209.255C174.189 209.19 175.215 209.743 175.312 212.038C175.426 214.626 175.426 222.602 175.426 222.602C175.491 222.668 175.571 222.716 175.659 222.741C175.748 222.767 175.841 222.769 175.931 222.749C176.094 222.749 176.159 222.456 176.224 222.293C177.184 218.289 178.161 214.284 179.121 210.28C179.235 209.808 179.935 208.832 180.44 208.832C181.644 208.832 181.677 210.231 181.742 210.638C182.165 212.787 179.154 221.642 178.649 223.66C178.649 224.018 178.649 224.555 179.023 224.458L183.744 214.935C183.963 214.379 184.307 213.881 184.75 213.48C185.194 213.079 185.724 212.786 186.299 212.624C186.379 212.599 186.464 212.599 186.543 212.624C186.628 212.673 186.696 212.747 186.739 212.836C187.195 213.65 186.739 214.773 186.478 215.668C186.218 216.563 182.686 223.139 181.432 225.792C181.253 226.167 180.96 227.013 181.319 227.42C181.677 227.827 182.328 227.046 182.588 226.509C183.386 224.881 184.134 223.351 184.867 221.756C185.095 221.284 185.437 220.616 185.974 220.73C189.148 221.414 184.639 228.071 183.337 230.334Z" fill="white" stroke="#160037" stroke-linecap="round" stroke-linejoin="round"/>
<path d="M174.58 228.934C176.218 230.232 177.641 231.781 178.796 233.524C179.365 234.4 179.745 235.385 179.914 236.417C180.082 237.448 180.034 238.503 179.772 239.514C179.693 239.778 179.59 240.034 179.463 240.279" fill="white"/>
<path d="M174.58 228.934C176.218 230.232 177.641 231.781 178.796 233.524C179.365 234.4 179.745 235.385 179.914 236.417C180.082 237.448 180.034 238.503 179.772 239.514C179.693 239.778 179.59 240.034 179.463 240.279" stroke="#160037" stroke-linecap="round" stroke-linejoin="round"/>
<path d="M128.727 330.618C130.449 334.091 131.609 337.816 132.161 341.654C132.634 345.495 132.78 348.506 130.159 359.298" stroke="#160037" stroke-linecap="round" stroke-linejoin="round"/>
<path d="M91.9894 243.389C91.7665 244.054 91.7106 244.764 91.8266 245.456C92.1354 246.327 92.7034 247.082 93.4543 247.621C98.6568 252.18 104.476 255.983 110.741 258.917C111.526 259.121 112.207 259.612 112.65 260.292C113.093 260.973 113.265 261.794 113.133 262.596V275.178C113.213 276.475 113.087 277.778 112.759 279.036C111.848 281.965 109.829 284.326 108.364 287.028C106.875 289.59 106.12 292.513 106.183 295.475C105.776 292.367 116.649 286.344 119.595 274.104C120.002 272.378 128.467 262.107 123.388 250.046C118.505 238.473 110.822 233.492 108.234 232.89C106.477 232.376 104.623 232.288 102.826 232.634C101.029 232.979 99.3393 233.748 97.898 234.876C95.0536 236.994 92.9789 239.983 91.9894 243.389Z" fill="#160037" stroke="#160037" stroke-linecap="round" stroke-linejoin="round"/>
<path d="M102.651 278.661C101.723 278.856 100.779 279.035 99.835 279.149C96.5796 279.556 93.0962 279.051 90.9639 276.675C91.1267 278.807 92.5916 286.864 96.9702 287.092C101.349 287.32 102.651 278.661 102.651 278.661Z" stroke="#160037" stroke-linecap="round" stroke-linejoin="round"/>
<path d="M98.4189 238.473C100.296 242.735 103.288 246.412 107.078 249.118C109.829 251.087 112.971 252.504 115.494 254.75C118.749 257.729 120.881 262.449 119.628 266.73" stroke="white" stroke-linecap="round" stroke-linejoin="round"/>
<path d="M132.438 304.232C129.302 306.749 127.237 310.361 126.66 314.341C126.098 317.779 126.522 321.306 127.881 324.514" stroke="#160037" stroke-linecap="round" stroke-linejoin="round"/>
<path d="M71.8057 331.09C71.5453 335.354 68.8921 339.049 66.3203 342.484L71.8057 331.09Z" fill="#160037"/>
<path d="M71.8057 331.09C71.5453 335.354 68.8921 339.049 66.3203 342.484" stroke="#160037" stroke-linecap="round" stroke-linejoin="round"/>
<path d="M65.4575 363.692C66.7504 365.857 68.4808 367.728 70.5381 369.185C72.5953 370.643 74.9342 371.655 77.405 372.157" stroke="#160037" stroke-linecap="round" stroke-linejoin="round"/>
<path d="M127.734 366.232C127.734 366.232 123.356 372.743 108.478 374.11" stroke="#160037" stroke-linecap="round" stroke-linejoin="round"/>
<path d="M563.556 309.18C563.556 309.18 506.83 326.76 496.152 312.875L497.6 242.053H506.211L516.335 291.943L562.823 283.43C562.823 283.43 568.781 301.888 563.556 309.18Z" fill="white"/>
<path d="M539.661 311.654C536.408 312.947 533.303 314.584 530.399 316.538C534.24 317.758 538.342 316.212 542.184 314.991C547.257 313.433 552.428 312.215 557.663 311.345C557.907 309.896 556.036 306.592 555.303 305.306C553.968 303.06 553.675 302.865 551.429 303.972C547.343 306.023 543.86 309.587 539.661 311.654Z" fill="#043D94"/>
<path d="M563.556 309.18C563.556 309.18 506.83 326.76 496.152 312.875L497.6 242.053H506.211L516.335 291.943L562.823 283.43C562.823 283.43 568.781 301.888 563.556 309.18Z" stroke="#160037" stroke-linecap="round" stroke-linejoin="round"/>
<path d="M557.989 311.036L567.95 372.368C567.69 412.117 586.653 406.143 599.821 406.029C615.04 405.899 638.138 390.81 626.809 367.322L631.171 282.306L604.655 280.288C595.915 279.604 560.105 280.728 557.256 285.301C549.866 297.168 557.989 311.036 557.989 311.036Z" fill="white"/>
<path d="M559.551 316.098C565.468 338.479 579.656 357.781 599.251 370.106C597.13 369.77 595.058 369.174 593.082 368.332C591.095 367.475 588.868 367.354 586.799 367.99C586.3 368.17 585.841 368.447 585.448 368.804C585.056 369.162 584.738 369.594 584.513 370.075C584.287 370.555 584.159 371.076 584.135 371.606C584.112 372.137 584.193 372.667 584.374 373.166C584.849 373.929 585.496 374.57 586.262 375.038C589.494 377.309 593.028 379.118 596.761 380.409C593.487 380.073 590.179 380.327 586.995 381.158C586.409 383.99 589.566 386.041 592.057 387.425C596.03 389.767 599.433 392.964 602.019 396.784C593.279 396.803 584.546 397.303 575.861 398.282C574.716 398.538 573.519 398.424 572.443 397.956C571.316 397.117 570.558 395.875 570.327 394.489C568.391 387.717 567.266 380.74 566.974 373.703C566.811 369.748 566.974 365.76 566.453 361.837C566.033 358.744 565.458 355.675 564.728 352.64C562.199 340.899 560.262 329.066 558.917 317.14C558.314 317.189 559.551 316.098 559.551 316.098Z" fill="#043D94"/>
<path d="M626.792 311.215C624.596 310.511 622.549 309.407 620.754 307.96C621.258 310.402 624.904 314.617 627.037 315.919C627.476 316.196 628.111 316.424 628.502 316.05C628.892 315.675 629.153 314.715 629.543 314.422L626.792 311.215Z" fill="#043D94"/>
<path d="M557.989 311.036L567.95 372.368C567.69 412.117 586.653 406.143 599.821 406.029C615.04 405.899 638.138 390.81 626.809 367.322L631.171 282.306L604.655 280.288C595.915 279.604 560.105 280.728 557.256 285.301C549.866 297.168 557.989 311.036 557.989 311.036Z" stroke="#160037" stroke-linecap="round" stroke-linejoin="round"/>
<path d="M577.375 279.035C574.522 284.259 573.148 290.163 573.403 296.11C573.4 296.629 573.499 297.144 573.696 297.624C574.429 299.073 576.431 299.073 578.042 299.252C584.309 300.049 588.199 306.658 594.108 308.871C594.315 308.999 594.546 309.084 594.786 309.12C595.027 309.157 595.272 309.144 595.508 309.083C595.744 309.022 595.965 308.915 596.157 308.766C596.35 308.618 596.511 308.432 596.631 308.22C599.203 304.965 600.114 300.391 603.63 298.291C605.16 297.38 607.097 297.005 608.155 295.573C609.36 293.945 608.822 291.601 608.236 289.615C607.276 286.36 606.202 282.974 603.711 280.712C601.058 278.641 597.799 277.497 594.433 277.456C589.508 277.053 584.55 277.516 579.784 278.824C579.849 279.442 577.375 279.035 577.375 279.035Z" fill="#043D94" stroke="#160037" stroke-linecap="round" stroke-linejoin="round"/>
<path d="M656.156 320.655C652.178 314.863 649.247 308.417 647.497 301.611C646.859 298.202 645.867 294.868 644.534 291.666C643.278 289.192 641.464 287.044 639.235 285.392C637.006 283.739 634.424 282.627 631.692 282.144C630.526 281.887 629.313 281.943 628.176 282.306C625.816 283.202 624.774 285.92 624.302 288.394C623.28 293.708 623.582 299.192 625.181 304.362C626.272 307.878 639.375 333.368 647.969 343.248C647.22 338.267 652.95 321.616 656.156 320.655Z" fill="white"/>
<path d="M630.455 315.659L638.496 330.813C639.651 332.978 640.954 335.289 643.2 336.233C641.786 331.226 640.983 326.067 640.807 320.867C640.895 318.255 640.594 315.643 639.912 313.12C639.586 313.396 639.244 312.224 639.244 312.224C638.886 312.892 637.942 312.908 637.21 312.761C631.952 311.655 628.339 306.967 625.214 302.604C624.807 304.066 624.742 305.601 625.025 307.092C625.307 308.582 625.928 309.987 626.841 311.199C626.841 311.199 630.194 315.154 630.455 315.659Z" fill="#043D94"/>
<path d="M656.156 320.655C652.178 314.863 649.247 308.417 647.497 301.611C646.859 298.202 645.867 294.868 644.534 291.666C643.278 289.192 641.464 287.044 639.235 285.392C637.006 283.739 634.424 282.627 631.692 282.144C630.526 281.887 629.313 281.943 628.176 282.306C625.816 283.202 624.774 285.92 624.302 288.394C623.28 293.708 623.582 299.192 625.181 304.362C626.272 307.878 639.375 333.368 647.969 343.248C647.22 338.267 652.95 321.616 656.156 320.655Z" stroke="#160037" stroke-linecap="round" stroke-linejoin="round"/>
<path d="M644.86 338.887C636.103 322.105 640.335 283.43 640.075 277.212L651.631 276.594C652.787 276.594 658.142 309.571 661.788 323.26C665.044 335.729 661.919 348.344 656.156 348.344C651.371 348.344 646.699 342.419 644.86 338.887Z" fill="white" stroke="#160037" stroke-linecap="round" stroke-linejoin="round"/>
<path d="M540.507 295.312C548.646 283.43 564.614 282.486 564.614 282.486" stroke="#160037" stroke-linecap="round" stroke-linejoin="round"/>
<path d="M509.108 301.97C511.57 299.708 513.499 296.928 514.757 293.831L509.108 301.97Z" fill="white"/>
<path d="M509.108 301.97C511.57 299.708 513.499 296.928 514.757 293.831" stroke="#160037" stroke-linecap="round" stroke-linejoin="round"/>
<path d="M569.578 358.126C574.217 365.727 604.265 373.85 616.245 372.108" stroke="#160037" stroke-linecap="round" stroke-linejoin="round"/>
<path d="M578.075 379.579C586.73 381.068 595.601 380.73 604.118 378.586" stroke="#160037" stroke-linecap="round" stroke-linejoin="round"/>
<path d="M617.938 305.827L623.667 313.591C624.449 314.649 625.539 315.838 626.825 315.545" stroke="#160037" stroke-linecap="round" stroke-linejoin="round"/>
<path d="M660.519 600.347C660.014 602.414 659.851 604.872 661.333 606.418C662.814 607.964 664.962 607.932 666.964 607.899L673.85 607.769C676.505 607.901 679.159 607.486 681.646 606.548C682.891 606.065 683.956 605.21 684.698 604.101C685.441 602.992 685.824 601.681 685.797 600.347C685.628 599.314 685.298 598.315 684.821 597.384C684.202 596.049 683.583 594.698 682.981 593.364C675.38 576.615 663.774 586.804 660.519 600.347Z" fill="white" stroke="#160037" stroke-linecap="round" stroke-linejoin="round"/>
<path d="M650.817 580.602C651.058 588.29 650.414 595.98 648.897 603.521C648.539 605.23 648.897 607.818 650.524 607.655C651.163 607.557 651.743 607.226 652.152 606.727C658.135 600.826 662.414 593.42 664.539 585.29C664.859 584.446 665.008 583.546 664.977 582.643C664.946 581.741 664.737 580.854 664.36 580.033C663.914 579.374 663.364 578.791 662.732 578.307C657.214 573.896 650.313 569.518 650.817 580.602Z" fill="white" stroke="#160037" stroke-linecap="round" stroke-linejoin="round"/>
<path d="M631.92 383.86C631.92 383.86 640.498 398.77 642.337 402.237C644.176 405.704 683.03 456.765 690.485 493.942C691.885 501.007 663.221 580.016 663.221 580.016L656.71 576.337C656.71 576.337 661.235 504.278 660.128 498.288C659.021 492.298 630.422 448.09 630.422 448.09C630.422 448.09 614.454 436.354 607.878 422.713L631.92 383.86Z" fill="#160037"/>
<path d="M632.848 421.216C632.848 421.216 627.964 432.09 627.964 433.652C627.964 435.215 654.822 520.084 662.716 539.714C667.708 552.356 672.108 565.291 675.917 578.519C675.917 578.519 678.977 582.539 676.666 586.658C674.354 590.776 665.158 593.478 663.27 589.799C661.381 586.12 642.777 567.011 634.931 547.999C627.085 528.988 616.049 497.215 609.766 485.381C601.537 470.26 594.231 454.654 587.89 438.649C579.996 418.449 571.922 396.67 571.922 396.67C575.201 396.966 578.495 397.058 581.786 396.947C589.534 396.683 597.206 395.324 604.574 392.91C621.73 387.148 629.153 376.112 629.153 376.112C629.153 376.112 633.401 387.62 634.508 389.85L632.848 421.216Z" fill="#160037"/>
<path d="M687.62 501.218C685.939 504.099 683.677 506.599 680.979 508.559" stroke="white" stroke-linecap="round" stroke-linejoin="round"/>
<path d="M689.72 496.482C689.475 497.275 689.182 498.053 688.841 498.81" stroke="white" stroke-linecap="round" stroke-linejoin="round"/>
<path d="M617.335 395.856C621.665 403.311 625.718 414.038 625.067 422.632C624.718 424.193 624.171 425.702 623.439 427.124" stroke="white" stroke-linecap="round" stroke-linejoin="round"/>
<path d="M591.129 404.142C591.601 408.292 592.236 415.194 591.324 419.263C590.554 423.425 588.166 427.112 584.683 429.518" stroke="white" stroke-linecap="round" stroke-linejoin="round"/>
<path d="M628.046 388.434C628.991 389.613 629.759 390.923 630.325 392.324C631.427 394.337 632.942 396.094 634.771 397.48C636.6 398.865 638.701 399.849 640.937 400.365" stroke="white" stroke-linecap="round" stroke-linejoin="round"/>
<path d="M614.226 405.069C619.972 417.635 624.367 430.234 633.287 451.589" stroke="white" stroke-linecap="round" stroke-linejoin="round"/>
<path d="M611.166 398.64C611.655 399.617 612.127 400.593 612.599 401.57" stroke="white" stroke-linecap="round" stroke-linejoin="round"/>
<path d="M658.989 494.772C661.622 499.848 664.972 504.518 668.934 508.641" stroke="white" stroke-linecap="round" stroke-linejoin="round"/>
<path d="M661.707 499.46C663.431 507.425 666.58 515.012 671.001 521.858" stroke="white" stroke-linecap="round" stroke-linejoin="round"/>
<path d="M621.242 499.868C608.562 472.815 595.036 445.974 578.417 405.069" stroke="white" stroke-linecap="round" stroke-linejoin="round"/>
<path d="M624.107 507.729C623.797 506.785 623.472 505.841 623.13 504.881" stroke="white" stroke-linecap="round" stroke-linejoin="round"/>
<path d="M667.941 590.906C664.686 586.658 640.954 553.469 635.061 538.429C631.138 528.402 628.176 521.321 625.295 511.327" stroke="white" stroke-linecap="round" stroke-linejoin="round"/>
<path d="M658.989 527.034L670.269 560.191" stroke="white" stroke-linecap="round" stroke-linejoin="round"/>
<path d="M651.387 276.61L647.969 276.886C643.638 277.656 639.189 277.45 634.947 276.284C632.229 275.617 625.93 273.663 625.181 273.533C623.31 273.133 621.419 272.829 619.516 272.622C613.771 272.28 616.684 270.131 619.077 270.229C622.235 270.375 623.293 270.31 625.718 270.489C625.425 270.327 624.53 270.147 624.514 269.448C624.514 267.738 626.76 267.82 626.76 267.82C626.76 267.82 624.302 266.778 624.644 265.492C624.986 264.206 626.63 263.864 627.671 263.962C627.671 263.962 626.288 263.295 626.353 262.579C626.646 259.811 632.327 259.616 632.327 259.616C630.953 259.002 629.666 258.209 628.501 257.256C628.076 256.798 627.779 256.237 627.639 255.628C627.608 255.338 627.656 255.045 627.778 254.78C627.899 254.515 628.09 254.287 628.329 254.121C628.569 253.954 628.849 253.856 629.139 253.834C629.43 253.813 629.722 253.871 629.983 254.001C631.452 254.979 632.87 256.033 634.231 257.158C635.989 258.412 638.024 259.209 639.879 260.332C641.688 261.88 643.147 263.794 644.16 265.948C644.453 266.404 651.387 276.61 651.387 276.61Z" fill="white" stroke="#160037" stroke-linecap="round" stroke-linejoin="round"/>
<path d="M497.6 242.053V233.085C497.579 228.584 498.238 224.106 499.554 219.802C500.302 217.426 501.181 215.359 501.979 215.05C503.46 214.512 504.111 220.519 504.111 220.519C502.998 215.703 502.285 210.803 501.979 205.869C501.979 200.644 509.011 222.342 509.011 222.342L506.211 242.053H497.6Z" fill="white" stroke="#160037" stroke-linecap="round" stroke-linejoin="round"/>
<path d="M506.097 227.469C506.948 226.813 507.583 225.917 507.92 224.897L506.097 227.469Z" fill="white"/>
<path d="M506.097 227.469C506.948 226.813 507.583 225.917 507.92 224.897" stroke="#160037" stroke-linecap="round" stroke-linejoin="round"/>
<path d="M574.266 260.756C577.306 265.874 578.987 271.685 579.149 277.635C579.442 287.532 590.901 301.384 594.173 302.051C597.445 302.718 600.472 286.425 600.326 281.493C600.179 276.561 598.356 262.937 598.356 262.937C598.356 262.937 582.681 251.087 574.266 260.756Z" fill="white" stroke="#160037" stroke-linecap="round" stroke-linejoin="round"/>
<path d="M578.872 273.859C578.872 273.859 593.896 294.352 599.789 273.517C605.681 252.682 583.267 279.214 578.872 273.859Z" fill="#160037"/>
<path d="M604.232 259.128C603.435 271.288 597.884 278.124 591.487 279.328C585.644 280.403 577.098 274.445 572.834 265.607C572.508 265.395 567.316 261.798 566.079 260.919C565.432 260.467 564.905 259.865 564.543 259.165C564.18 258.465 563.992 257.687 563.995 256.899C564.036 256.142 564.304 255.415 564.762 254.811C565.22 254.208 565.849 253.756 566.567 253.513H566.713C567.446 253.353 568.21 253.41 568.911 253.676C567.836 249.525 566.958 245.309 566.29 241.061C566.599 231.294 569.839 223.319 580.256 222.537C590.673 221.756 599.382 227.583 599.789 231.783C600.082 235.038 601.14 243.649 602.084 252.553C602.344 254.864 604.411 256.394 604.232 259.128Z" fill="white" stroke="#160037" stroke-linecap="round" stroke-linejoin="round"/>
<path d="M599.789 245.065C599.789 245.065 593.082 241.988 594.222 251.983C594.45 253.952 598.112 256.866 598.112 256.866C598.112 256.866 597.168 259.812 595.426 259.812" fill="white"/>
<path d="M599.789 245.065C599.789 245.065 593.082 241.988 594.222 251.983C594.45 253.952 598.112 256.866 598.112 256.866C598.112 256.866 597.168 259.812 595.426 259.812" stroke="#160037" stroke-linecap="round" stroke-linejoin="round"/>
<path d="M586.832 248.483C586.832 248.483 583.414 246.399 581.07 247.685C579.847 248.217 578.806 249.094 578.075 250.208" fill="white"/>
<path d="M586.832 248.483C586.832 248.483 583.414 246.399 581.07 247.685C579.847 248.217 578.806 249.094 578.075 250.208" stroke="#160037" stroke-linecap="round" stroke-linejoin="round"/>
<path d="M584.879 254.245C585.139 255.449 584.879 256.524 584.179 256.67C583.479 256.817 582.795 255.938 582.551 254.733C582.307 253.529 582.551 252.454 583.267 252.308C583.983 252.161 584.635 253.024 584.879 254.245Z" fill="#160037"/>
<path d="M598.096 250.729C598.356 251.934 598.096 253.008 597.396 253.154C596.696 253.301 596.012 252.422 595.768 251.234C595.524 250.045 595.768 248.939 596.468 248.808C597.168 248.678 597.852 249.541 598.096 250.729Z" fill="#160037"/>
<path d="M565.509 228.446C564.318 229.612 563.493 231.099 563.132 232.727C562.157 236.168 561.876 239.769 562.303 243.32C562.731 246.872 563.859 250.303 565.623 253.415C566.708 253.282 567.807 253.326 568.878 253.545C570.018 253.838 571.483 255.791 572.02 256.801C572.491 257.876 572.761 259.029 572.817 260.202C572.557 257.11 572.313 254.033 572.052 250.941C571.878 249.704 571.933 248.446 572.215 247.23C573.013 244.69 572.134 238.7 572.362 233.345C579.117 241.598 588.932 240.133 592.187 239.856C597.07 239.449 601.237 234.452 600.977 230.887C600.716 227.323 599.756 218.142 583.658 217.198C580.111 216.821 576.536 217.567 573.436 219.33C572.453 219.978 571.619 220.826 570.987 221.819C570.356 222.812 569.943 223.928 569.773 225.093C569.546 226.59 570.115 226.72 568.976 227.453C567.836 228.185 566.632 227.485 565.509 228.446Z" fill="#160037" stroke="#160037" stroke-linecap="round" stroke-linejoin="round"/>
<path d="M586.832 265.541C586.832 265.541 589.225 268.178 594.222 266.436L586.832 265.541Z" fill="white"/>
<path d="M586.832 265.541C586.832 265.541 589.225 268.178 594.222 266.436" stroke="#160037" stroke-linecap="round" stroke-linejoin="round"/>
</svg>
