<svg width="700" height="470" viewBox="0 0 700 470" fill="none" xmlns="http://www.w3.org/2000/svg">
<g clip-path="url(#clip0_515_2)">
<path d="M700 343.423H0V470H700V343.423Z" fill="#F0F3FA"/>
<path d="M178.503 245.68C178.5 245.658 178.482 245.643 178.476 245.621C178.492 245.596 178.519 245.582 178.531 245.553C178.687 245.162 193.929 206.047 177.949 163.05C177.869 162.836 177.668 162.704 177.429 162.714C177.201 162.73 177.01 162.894 176.96 163.118C176.867 163.54 167.876 205.083 177.068 243.532C175.041 240.451 172.518 237.585 169.98 234.837C168.202 232.913 166.405 231 164.595 229.097C164.593 229.072 164.599 229.047 164.593 229.021C162.511 219.353 165.353 197.91 167.428 182.252C167.933 178.444 168.409 174.846 168.763 171.818C170.583 156.254 166.818 147.145 166.657 146.765C166.586 146.598 166.432 146.48 166.253 146.455C166.072 146.428 165.893 146.501 165.779 146.642C165.466 147.031 158.077 156.431 156.013 179.902C154.28 199.604 160.759 220.922 162.923 227.361C155.998 220.147 148.849 213.101 141.523 206.269C141.529 206.257 141.542 206.252 141.546 206.24C141.702 205.85 156.943 166.734 140.963 123.738C140.883 123.524 140.677 123.389 140.443 123.403C140.215 123.419 140.024 123.583 139.974 123.807C139.88 124.233 130.749 166.438 140.308 205.141C135.956 201.107 131.55 197.139 127.087 193.268C126.128 192.436 125.153 191.607 124.186 190.777C122.573 180.94 126.218 159.826 128.886 144.375C129.54 140.589 130.158 137.012 130.631 134C133.061 118.519 129.655 109.27 129.509 108.884C129.445 108.714 129.296 108.59 129.117 108.558C128.937 108.525 128.755 108.59 128.637 108.727C128.309 109.103 120.557 118.206 117.573 141.578C115.04 161.42 120.834 183.236 122.678 189.482C121.913 188.827 121.156 188.172 120.389 187.517C116.038 183.799 111.652 180.043 107.372 176.173C107.812 172.458 111.838 132.623 88.463 95.9809C88.339 95.7859 88.1 95.6979 87.879 95.7639C87.658 95.8309 87.508 96.0359 87.511 96.2669C87.518 96.6989 88.375 138.869 105.169 174.164C98.803 168.284 92.76 162.098 87.532 155.338C86.44 152.644 69.66 112.06 45.419 96.4879C45.224 96.3629 44.969 96.3819 44.796 96.5369C44.623 96.6909 44.574 96.9419 44.676 97.1499C45.641 99.1139 68.517 145.353 86.807 156.09C91.691 162.387 97.27 168.18 103.152 173.691C97.447 170.613 86.231 165.216 73.993 162.907C56.601 159.625 45.392 156.465 45.28 156.434C45.081 156.379 44.865 156.447 44.735 156.61C44.605 156.773 44.587 156.999 44.688 157.182C44.758 157.308 51.851 169.885 65.989 173.721C76.529 176.581 94.198 176.94 102.403 176.94C104.625 176.94 106.137 176.914 106.641 176.904C110.94 180.793 115.347 184.566 119.717 188.301C120.694 189.136 121.66 189.972 122.634 190.806C119.625 191.429 109.474 192.872 95.289 187.946C77.988 181.938 55.75 188.574 55.528 188.641C55.29 188.714 55.137 188.946 55.165 189.193C55.193 189.44 55.394 189.632 55.642 189.65C62.676 190.151 69.579 192.743 76.255 195.25C83.677 198.037 91.335 200.913 99.206 200.913C99.706 200.913 100.208 200.901 100.71 200.877C114.571 200.213 122.155 193.384 123.761 191.773C124.643 192.531 125.534 193.288 126.41 194.048C130.766 197.826 135.067 201.696 139.318 205.63C134.36 204.905 119.806 203.232 105.517 205.997C88.14 209.357 76.555 210.551 76.44 210.563C76.232 210.584 76.058 210.728 75.998 210.928C75.937 211.127 76.003 211.344 76.164 211.476C76.266 211.56 85.716 219.199 98.508 219.199C99.666 219.199 100.853 219.136 102.061 219C115.525 217.478 137.766 208.335 140.844 207.05C148.427 214.123 155.823 221.423 162.973 228.903C159.957 229.648 149.89 231.462 135.566 227.111C118.043 221.79 96.082 229.29 95.863 229.366C95.627 229.448 95.484 229.686 95.522 229.932C95.559 230.178 95.767 230.363 96.016 230.371C103.065 230.595 110.064 232.914 116.834 235.157C123.944 237.513 131.269 239.939 138.688 239.939C139.62 239.939 140.555 239.901 141.489 239.819C154.865 238.651 162.157 231.932 164.012 229.981C165.763 231.823 167.499 233.674 169.219 235.536C171.975 238.519 174.709 241.641 176.781 245.013C172.345 244.337 157.279 242.451 142.501 245.307C125.124 248.668 113.539 249.862 113.424 249.875C113.216 249.896 113.042 250.039 112.982 250.239C112.921 250.439 112.987 250.655 113.149 250.787C113.251 250.872 122.7 258.51 135.493 258.51C136.651 258.51 137.838 258.447 139.046 258.311C152.243 256.819 173.862 248.011 177.616 246.45C178.955 248.917 179.909 251.519 180.229 254.303C180.259 254.567 180.482 254.761 180.742 254.761C180.762 254.761 180.781 254.76 180.801 254.758C181.085 254.725 181.288 254.469 181.255 254.186C180.913 251.211 179.891 248.453 178.465 245.852C178.48 245.796 178.509 245.742 178.503 245.68Z" fill="#DCEDFD"/>
<path d="M432.685 78.1479C436.411 77.8059 476.212 73.4719 507.201 42.9969C507.366 42.8349 507.403 42.5829 507.292 42.3799C507.181 42.1779 506.949 42.0729 506.724 42.1249C506.303 42.2209 465.23 51.8179 434.193 75.5759C438.622 68.1279 443.419 60.9319 448.945 54.4139C451.282 52.8349 487.557 27.9729 497.766 0.996916C497.847 0.779916 497.776 0.534917 497.588 0.397917C497.401 0.260917 497.146 0.264917 496.963 0.407917C495.242 1.75992 454.765 33.7379 448.059 53.8599C442.913 59.9459 438.404 66.6069 434.235 73.5059C436.061 67.2859 439.011 55.1929 438.728 42.7429C438.326 25.0489 439.089 13.4269 439.096 13.3119C439.108 13.1049 438.997 12.9079 438.811 12.8149C438.624 12.7219 438.4 12.7509 438.242 12.8869C438.133 12.9819 427.304 22.5319 426.487 37.1579C425.878 48.0609 429.195 65.4149 430.9 73.4429C431.362 75.6189 431.702 77.0939 431.817 77.5859C428.906 82.5989 426.13 87.6919 423.385 92.7419C422.77 93.8729 422.153 94.9919 421.539 96.1189C420.304 93.3109 416.784 83.6969 418.658 68.7749C420.942 50.6019 409.832 30.2289 409.72 30.0249C409.599 29.8069 409.341 29.7059 409.104 29.7839C408.868 29.8629 408.722 30.0989 408.756 30.3449C409.726 37.3299 408.624 44.6209 407.559 51.6709C406.375 59.5099 405.152 67.5989 406.786 75.2969C406.89 75.7859 407.006 76.2759 407.134 76.7619C410.662 90.1829 418.917 96.1829 420.827 97.4189C420.269 98.4399 419.713 99.4679 419.152 100.483C416.361 105.528 413.469 110.539 410.503 115.515C410.182 110.514 408.795 95.9299 403.125 82.5269C396.229 66.2259 392.655 55.1419 392.62 55.0319C392.556 54.8329 392.379 54.6919 392.171 54.6749C391.963 54.6569 391.765 54.7659 391.669 54.9519C391.608 55.0699 386.099 65.8999 388.756 78.4129C388.997 79.5459 389.304 80.6939 389.688 81.8469C393.973 94.7019 407.535 114.558 409.432 117.302C404.088 126.188 398.484 134.938 392.652 143.486C391.303 140.718 387.426 131.275 388.713 116.305C390.28 98.0569 378.382 78.1349 378.261 77.9359C378.132 77.7229 377.87 77.6319 377.637 77.7199C377.404 77.8079 377.267 78.0489 377.311 78.2939C378.555 85.2349 377.74 92.5629 376.952 99.6499C376.124 107.095 375.271 114.764 376.812 122.022C377.006 122.934 377.237 123.84 377.511 124.738C381.431 137.579 389.517 143.316 391.811 144.727C390.373 146.822 388.923 148.905 387.459 150.975C385.114 154.29 382.628 157.612 379.76 160.339C379.499 155.859 378.216 140.73 372.352 126.868C365.457 110.567 361.882 99.4829 361.847 99.3729C361.783 99.1739 361.606 99.0329 361.398 99.0159C361.19 98.9979 360.992 99.1069 360.896 99.2929C360.835 99.4109 355.326 110.24 357.982 122.753C358.223 123.886 358.531 125.035 358.915 126.188C363.114 138.786 376.22 158.103 378.527 161.453C376.392 163.276 374.045 164.749 371.388 165.64C371.137 165.724 370.993 165.984 371.047 166.236C371.051 166.256 371.056 166.275 371.063 166.294C371.153 166.564 371.447 166.711 371.717 166.62C374.556 165.668 377.041 164.095 379.289 162.16C379.349 162.162 379.407 162.18 379.466 162.16C379.488 162.153 379.498 162.131 379.518 162.121C379.546 162.131 379.565 162.155 379.595 162.16C380.009 162.232 421.438 169.018 460.178 144.458C460.372 144.335 460.451 144.104 460.398 143.88C460.335 143.659 460.135 143.507 459.905 143.505C459.473 143.502 416.969 143.334 381.267 160.31C383.859 157.687 386.14 154.625 388.3 151.571C389.813 149.432 391.311 147.278 392.796 145.111C392.821 145.104 392.846 145.104 392.87 145.094C401.894 141.05 423.459 139.376 439.205 138.154C443.036 137.857 446.655 137.576 449.691 137.294C465.294 135.842 473.422 130.266 473.76 130.029C473.909 129.925 473.992 129.751 473.979 129.57C473.969 129.382 473.859 129.226 473.698 129.145C473.253 128.92 462.523 123.645 439.135 126.5C419.502 128.897 399.996 139.662 394.146 143.116C399.764 134.843 405.172 126.387 410.334 117.801C410.346 117.804 410.354 117.816 410.367 117.818C410.781 117.89 452.21 124.676 490.949 100.115C491.142 99.9929 491.231 99.7639 491.169 99.5369C491.106 99.3169 490.906 99.1639 490.676 99.1629C490.24 99.1589 447.059 98.9919 411.185 116.381C414.228 111.285 417.194 106.152 420.053 100.983C420.668 99.8719 421.276 98.7459 421.888 97.6279C431.177 94.0079 452.59 93.1879 468.261 92.5889C472.098 92.4419 475.723 92.3039 478.766 92.1409C494.414 91.3019 502.755 86.0509 503.102 85.8279C503.255 85.7299 503.345 85.5589 503.339 85.3769C503.335 85.1929 503.232 85.0299 503.075 84.9419C502.639 84.6989 492.124 79.0069 468.642 80.9419C448.707 82.5839 428.57 92.7819 422.843 95.8839C423.325 94.9999 423.809 94.1229 424.291 93.2359C427.025 88.2079 429.789 83.1369 432.685 78.1479Z" fill="#F0F3FA"/>
<path d="M658.743 274.683C658.613 274.519 658.396 274.451 658.197 274.506C658.086 274.538 646.881 277.697 629.484 280.979C617.248 283.287 606.033 288.684 600.327 291.762C606.209 286.251 611.787 280.458 616.671 274.161C634.962 263.422 657.836 217.186 658.802 215.222C658.904 215.014 658.854 214.763 658.682 214.609C658.508 214.455 658.254 214.435 658.058 214.56C633.814 230.135 617.032 270.729 615.944 273.412C610.716 280.171 604.673 286.357 598.307 292.237C615.101 256.942 615.959 214.771 615.966 214.339C615.97 214.108 615.82 213.903 615.598 213.836C615.38 213.77 615.138 213.858 615.014 214.053C591.636 250.7 595.666 290.539 596.105 294.246C591.825 298.116 587.438 301.873 583.087 305.59C582.321 306.245 581.564 306.9 580.8 307.554C582.644 301.309 588.438 279.492 585.905 259.649C582.921 236.277 575.169 227.174 574.841 226.798C574.721 226.662 574.542 226.599 574.36 226.63C574.181 226.662 574.033 226.786 573.969 226.956C573.823 227.342 570.419 236.591 572.847 252.071C573.32 255.083 573.938 258.658 574.592 262.444C577.261 277.896 580.906 299.012 579.293 308.849C578.326 309.679 577.351 310.508 576.392 311.341C571.929 315.212 567.523 319.18 563.17 323.214C572.73 284.511 563.599 242.305 563.504 241.879C563.455 241.656 563.264 241.492 563.035 241.475C562.811 241.457 562.595 241.596 562.515 241.811C546.536 284.807 561.776 323.922 561.933 324.313C561.938 324.325 561.951 324.331 561.957 324.342C554.63 331.175 547.481 338.22 540.555 345.435C542.719 338.997 549.2 317.678 547.466 297.974C545.401 274.503 538.013 265.103 537.7 264.715C537.586 264.573 537.413 264.504 537.226 264.527C537.046 264.552 536.893 264.669 536.822 264.837C536.661 265.217 532.894 274.326 534.714 289.89C535.068 292.919 535.545 296.517 536.05 300.325C538.125 315.983 540.967 337.425 538.884 347.093C538.878 347.119 538.884 347.144 538.882 347.17C537.072 349.072 535.275 350.985 533.498 352.909C530.96 355.656 528.438 358.522 526.41 361.603C535.601 323.154 526.61 281.612 526.517 281.19C526.468 280.967 526.277 280.803 526.048 280.786C525.826 280.767 525.608 280.907 525.528 281.122C509.548 324.118 524.79 363.233 524.947 363.623C524.958 363.651 524.986 363.665 525.001 363.69C524.996 363.712 524.977 363.726 524.974 363.749C524.967 363.811 524.997 363.864 525.011 363.922C523.585 366.523 522.562 369.281 522.221 372.256C522.189 372.539 522.393 372.795 522.676 372.828C522.695 372.83 522.715 372.831 522.736 372.831C522.994 372.831 523.218 372.636 523.249 372.373C523.568 369.59 524.522 366.988 525.862 364.521C529.618 366.083 551.237 374.891 564.432 376.382C565.641 376.518 566.824 376.581 567.984 376.581C580.775 376.581 590.228 368.942 590.33 368.858C590.491 368.726 590.557 368.51 590.496 368.31C590.436 368.11 590.261 367.966 590.054 367.946C589.939 367.934 578.357 366.739 560.977 363.379C546.198 360.523 531.134 362.408 526.697 363.085C528.769 359.714 531.503 356.592 534.258 353.609C535.978 351.747 537.715 349.896 539.465 348.055C541.321 350.006 548.613 356.725 561.988 357.892C562.923 357.974 563.858 358.012 564.79 358.012C572.209 358.012 579.533 355.585 586.644 353.23C593.414 350.987 600.414 348.668 607.462 348.444C607.711 348.436 607.919 348.251 607.956 348.005C607.993 347.759 607.85 347.521 607.615 347.439C607.395 347.362 585.438 339.86 567.911 345.184C553.591 349.535 543.521 347.721 540.504 346.976C547.655 339.496 555.051 332.196 562.633 325.124C565.716 326.412 587.953 335.552 601.417 337.074C602.626 337.21 603.811 337.273 604.97 337.273C617.761 337.273 627.211 329.635 627.313 329.551C627.474 329.419 627.54 329.203 627.479 329.003C627.418 328.803 627.244 328.66 627.037 328.639C626.922 328.627 615.337 327.432 597.96 324.072C583.672 321.31 569.12 322.98 564.16 323.705C568.41 319.771 572.711 315.902 577.066 312.124C577.943 311.364 578.834 310.606 579.716 309.848C581.322 311.46 588.906 318.29 602.766 318.952C603.267 318.976 603.769 318.988 604.27 318.988C612.14 318.988 619.8 316.112 627.221 313.325C633.896 310.819 640.799 308.227 647.833 307.726C648.082 307.708 648.282 307.516 648.31 307.268C648.337 307.021 648.185 306.789 647.947 306.716C647.724 306.648 625.485 300.014 608.186 306.02C594.001 310.945 583.85 309.504 580.842 308.88C581.815 308.046 582.78 307.211 583.757 306.377C588.128 302.642 592.535 298.868 596.835 294.978C597.341 294.988 598.854 295.014 601.077 295.014C609.286 295.014 626.949 294.655 637.487 291.795C651.625 287.958 658.719 275.382 658.789 275.255C658.891 275.072 658.873 274.847 658.743 274.683Z" fill="#DCEDFD"/>
<path d="M138.566 288.339C129.382 282.992 117.9 277.193 104.716 272.354L80.095 285.003L82.648 265.741C73.377 263.589 63.565 262.102 53.351 261.637C53.351 261.637 49.483 278.572 51.827 300.661C56.445 298.753 63.504 296.298 69.679 296.827C69.679 296.827 59.998 307.877 55.163 318.988C58.392 331.244 63.936 344.034 73.142 355.789C74.832 349.346 78.346 338.552 84.037 332.862C84.037 332.862 81.975 352.37 83.514 367.041C91.308 374.256 100.905 380.788 112.688 386.182C113.082 378.873 114.124 366.146 116.693 362.984C116.693 362.984 118.715 378.967 124.056 390.774C135.172 394.713 147.931 397.743 162.581 399.581V304.71C162.581 304.71 158.504 301.242 151.185 296.273C132.307 300.369 120.634 310.341 120.634 310.341C124.341 300.659 133.769 292.19 138.566 288.339Z" fill="#DCEDFD"/>
<path d="M159.346 369.598C143.232 359.89 128.177 348.705 114.349 335.938C90.893 314.282 71.407 288.837 53.121 262.754C52.326 266.857 49.835 281.896 51.827 300.661C56.445 298.753 63.504 296.298 69.679 296.827C69.679 296.827 59.998 307.877 55.163 318.988C58.392 331.244 63.936 344.034 73.142 355.789C74.832 349.346 78.346 338.552 84.037 332.862C84.037 332.862 81.975 352.37 83.514 367.041C91.308 374.256 100.905 380.788 112.688 386.182C113.082 378.873 114.124 366.146 116.693 362.984C116.693 362.984 118.715 378.967 124.056 390.774C135.172 394.713 147.931 397.743 162.581 399.581V371.52C161.5 370.886 160.422 370.246 159.346 369.598Z" fill="#C7E1F8"/>
<path d="M318.985 151.969C316.765 134.932 313.17 120.101 308.526 107.187C294.758 101.037 276.148 98.771 276.148 98.771C279.813 95.764 294.617 94.482 303.12 93.984C296.778 80.301 289.125 69.17 280.687 60.14C263.606 58.429 240.918 60.935 240.918 60.935C247.508 54.283 260.05 50.134 267.538 48.132C253.81 37.484 238.897 31.103 224.617 27.412C211.714 33.099 198.908 44.425 198.908 44.425C198.258 37.242 201.078 29.015 203.272 23.631C202.523 23.555 201.781 23.487 201.043 23.423C200.799 23.402 200.557 23.383 200.314 23.364C199.815 23.323 199.317 23.284 198.824 23.248C198.555 23.229 198.288 23.211 198.021 23.193C197.554 23.162 197.09 23.132 196.628 23.105C196.36 23.089 196.094 23.074 195.828 23.06C195.358 23.035 194.892 23.013 194.428 22.992C194.185 22.981 193.942 22.97 193.7 22.96C193.166 22.939 192.638 22.921 192.112 22.905C191.951 22.9 191.788 22.894 191.627 22.89C190.933 22.871 190.247 22.857 189.568 22.847C189.474 22.846 189.382 22.846 189.288 22.845C188.712 22.838 188.141 22.833 187.576 22.832C187.37 22.832 187.167 22.833 186.962 22.833C186.506 22.834 186.052 22.836 185.604 22.84C185.39 22.842 185.178 22.845 184.966 22.848C184.525 22.854 184.089 22.862 183.656 22.871C183.454 22.876 183.253 22.88 183.053 22.885C182.595 22.897 182.143 22.911 181.695 22.926C181.536 22.931 181.376 22.936 181.219 22.942C180.629 22.964 180.046 22.988 179.474 23.015C179.463 23.015 179.452 23.016 179.441 23.016C178.837 23.045 178.244 23.077 177.66 23.111C177.56 23.117 177.464 23.124 177.365 23.129C176.896 23.157 176.433 23.187 175.978 23.218C175.83 23.228 175.685 23.239 175.538 23.25C175.134 23.279 174.735 23.309 174.342 23.34C174.19 23.352 174.04 23.364 173.89 23.376C173.501 23.408 173.119 23.441 172.743 23.474C172.61 23.486 172.475 23.498 172.343 23.51C171.93 23.548 171.525 23.587 171.126 23.627C171.041 23.635 170.954 23.644 170.871 23.652C169.896 23.751 168.969 23.854 168.089 23.96C168.004 23.97 167.923 23.981 167.839 23.991C167.494 24.033 167.156 24.075 166.827 24.118C166.715 24.132 166.607 24.147 166.497 24.161C166.206 24.199 165.921 24.237 165.643 24.276C165.522 24.293 165.402 24.309 165.284 24.326C165.021 24.363 164.766 24.4 164.515 24.436C164.407 24.452 164.297 24.468 164.192 24.483C163.911 24.525 163.642 24.566 163.378 24.607C163.316 24.617 163.25 24.626 163.189 24.636C162.87 24.686 162.564 24.735 162.271 24.784C162.184 24.798 162.105 24.812 162.021 24.826C161.822 24.859 161.626 24.892 161.44 24.924C161.329 24.943 161.226 24.961 161.121 24.98C160.975 25.006 160.831 25.031 160.694 25.056C160.578 25.077 160.468 25.097 160.358 25.117C160.254 25.136 160.155 25.154 160.057 25.173C159.938 25.195 159.822 25.217 159.712 25.238C159.645 25.251 159.584 25.263 159.521 25.275C158.451 25.483 157.87 25.617 157.87 25.617C158.466 37.5 160.25 48.91 162.805 59.686L185.206 56.61L170.62 85.33C176.323 100.645 183.134 113.974 189.406 124.632C193.862 119.03 203.665 108.012 214.91 103.645C214.91 103.645 203.37 117.282 198.707 139.273C204.529 147.763 208.587 152.487 208.587 152.487L286.33 152.122L318.985 151.969Z" fill="#F0F3FA"/>
<path d="M590.915 82.0738C591.556 86.2708 592.075 92.4028 591.2 98.9148C591.2 98.9148 584.68 92.9648 574.607 91.1898C564.502 97.7148 556.147 104.917 549.244 112.306C553.215 113.255 557.609 114.844 561.043 117.512C561.043 117.512 549.642 119.305 541.181 121.81C519.405 150.181 516.793 178.119 516.793 178.119L537.172 231.351C546.203 225.846 554.312 220.262 561.613 214.643C562.051 206.415 560.519 195.365 560.519 195.365C563.721 198.922 566.971 205.187 568.757 208.912C580.865 198.806 590.44 188.637 597.945 178.651C597.045 167.801 591.662 158.514 591.662 158.514C599.446 160.946 603.295 164.788 605.202 168.062C615.19 151.988 620.149 136.65 622.233 123.131C618.121 111.496 611.829 106.851 611.829 106.851C616.446 103.913 620.451 102.502 623.394 101.822C622.561 83.5838 617.303 72.0068 617.303 72.0068C607.603 74.8498 598.844 78.2588 590.915 82.0738Z" fill="#DCEDFD"/>
<path d="M611.83 106.85C616.447 103.912 620.452 102.501 623.395 101.821C622.562 83.5829 617.304 72.0059 617.304 72.0059C616.936 72.1139 616.579 72.2279 616.213 72.3379C608.493 101.198 592.402 128.135 573.968 151.177C559.374 169.419 542.626 185.698 525.942 202.015L537.172 231.35C546.203 225.845 554.312 220.261 561.613 214.642C562.051 206.414 560.519 195.364 560.519 195.364C563.721 198.921 566.971 205.186 568.757 208.911C580.865 198.805 590.44 188.636 597.945 178.65C597.045 167.8 591.662 158.513 591.662 158.513C599.446 160.945 603.295 164.787 605.202 168.061C615.19 151.987 620.149 136.649 622.233 123.13C618.122 111.495 611.83 106.85 611.83 106.85Z" fill="#C7E1F8"/>
<path d="M549.857 400.864H150.028V141.591C150.028 135.859 154.675 131.212 160.407 131.212H539.477C545.209 131.212 549.856 135.859 549.856 141.591L549.857 400.864Z" fill="#385AA3"/>
<path d="M219.412 131.212H160.407C154.675 131.212 150.028 135.859 150.028 141.591V400.864H489.064L219.412 131.212Z" fill="#304F91"/>
<path d="M529.942 385.367H169.943V158.121C169.943 152.96 174.127 148.776 179.288 148.776H520.596C525.757 148.776 529.941 152.96 529.941 158.121V385.367H529.942Z" fill="white"/>
<path d="M265.506 148.775H179.288C174.127 148.775 169.943 152.959 169.943 158.12V385.366H502.097L265.506 148.775Z" fill="#F0F3FA"/>
<path d="M537.976 435.991H161.908C142.794 435.991 127.299 420.496 127.299 401.381C127.299 399.954 128.456 398.797 129.883 398.797H570.003C571.43 398.797 572.587 399.954 572.587 401.381C572.586 420.496 557.091 435.991 537.976 435.991Z" fill="#4972C7"/>
<path d="M570.002 398.797H367.967L405.16 435.99H537.976C557.09 435.99 572.585 420.495 572.585 401.38C572.586 399.954 571.429 398.797 570.002 398.797Z" fill="#547CD1"/>
<path d="M247.706 245.148L239.714 236.86V227.145C239.714 224.397 237.486 222.169 234.738 222.169H186.652C183.904 222.169 181.676 224.397 181.676 227.145V243.353C181.676 246.101 183.904 248.329 186.652 248.329H228.618H234.738H246.354C248.011 248.328 248.856 246.34 247.706 245.148Z" fill="#FEC164"/>
<path d="M200.143 235.328C200.143 237.906 198.053 239.995 195.476 239.995C192.899 239.995 190.809 237.905 190.809 235.328C190.809 232.751 192.899 230.661 195.476 230.661C198.054 230.661 200.143 232.751 200.143 235.328Z" fill="white"/>
<path d="M215.363 235.169C215.363 237.747 213.273 239.836 210.696 239.836C208.118 239.836 206.029 237.746 206.029 235.169C206.029 232.591 208.119 230.502 210.696 230.502C213.273 230.502 215.363 232.591 215.363 235.169Z" fill="white"/>
<path d="M230.582 235.169C230.582 237.747 228.493 239.836 225.915 239.836C223.337 239.836 221.248 237.746 221.248 235.169C221.248 232.591 223.338 230.502 225.915 230.502C228.492 230.502 230.582 232.591 230.582 235.169Z" fill="white"/>
<path d="M490.311 95.3577C489.995 95.3577 489.678 95.2617 489.409 95.0677L449.448 66.4607C449.383 66.7527 449.342 67.0527 449.342 67.3647V109.138C449.342 111.422 451.194 113.274 453.478 113.274H527.144C529.428 113.274 531.28 111.422 531.28 109.138V67.3647C531.28 66.7467 531.135 66.1657 530.892 65.6387L491.234 95.0527C490.96 95.2557 490.636 95.3577 490.311 95.3577Z" fill="#FEC164"/>
<path d="M528.575 63.4975C528.127 63.3315 527.649 63.2275 527.143 63.2275H453.477C452.639 63.2275 451.861 63.4805 451.209 63.9095L490.294 91.8895L528.575 63.4975Z" fill="#FEC164"/>
<path d="M544.376 67.8478C546.457 59.0987 541.052 50.3191 532.303 48.2382C523.553 46.1573 514.774 51.5629 512.693 60.3121C510.612 69.0612 516.018 77.8407 524.767 79.9217C533.516 82.0026 542.295 76.597 544.376 67.8478Z" fill="#DCEDFD"/>
<path d="M531.6 73.7628C531.6 75.4678 530.218 76.8498 528.512 76.8498C526.807 76.8498 525.424 75.4678 525.424 73.7628C525.424 72.0578 526.806 70.6748 528.512 70.6748C530.218 70.6748 531.6 72.0568 531.6 73.7628Z" fill="#385AA3"/>
<path d="M527.082 67.8386L525.682 54.4816C525.518 52.9186 526.653 51.5176 528.216 51.3546C529.779 51.1906 531.179 52.3256 531.343 53.8886C531.364 54.0846 531.361 54.2936 531.343 54.4816L529.943 67.8386C529.86 68.6286 529.152 69.2026 528.362 69.1196C527.674 69.0476 527.151 68.5006 527.082 67.8386Z" fill="#385AA3"/>
<path d="M279.442 155.526L261.995 137.433V85.7038C261.995 81.1668 258.317 77.4897 253.781 77.4897H189.891C185.354 77.4897 181.677 81.1678 181.677 85.7038V152.89C181.677 157.427 185.355 161.104 189.891 161.104H245.319L245.236 161.226H277.02C279.988 161.225 281.501 157.662 279.442 155.526Z" fill="#FEC164"/>
<path d="M217.755 114.48L215.097 109.46L221.453 106.094C223.02 105.264 223.618 103.321 222.788 101.754L217.199 91.1987C216.369 89.6317 214.426 89.0337 212.859 89.8637L209.397 91.6967C201.468 95.8957 198.444 105.727 202.642 113.657L206.292 120.55L210.004 127.56L216.173 139.02C220.372 146.949 230.203 149.973 238.133 145.775L241.595 143.942C243.162 143.112 243.76 141.169 242.93 139.602L237.341 129.047C236.511 127.48 234.568 126.882 233.001 127.712L226.645 131.077L221.468 121.49L217.755 114.48Z" fill="white"/>
<path d="M514.99 284.001C522.359 272.451 530.763 261.561 540.068 251.505C540.743 250.776 541.439 250.024 541.784 249.092C542.128 248.16 542.032 246.989 541.285 246.333C540.095 245.288 538.249 246.111 536.935 246.995C533.866 249.059 531.098 251.034 528.344 253.502C531.561 248.61 534.779 243.718 537.996 238.826C538.48 238.09 538.972 237.336 539.182 236.48C539.392 235.625 539.268 234.634 538.646 234.01C538.028 233.389 537.041 233.26 536.192 233.477C535.343 233.695 534.604 234.207 533.906 234.737C529.492 238.09 525.993 242.477 522.543 246.815C526.369 240.57 529.739 234.046 532.616 227.312C533.209 225.925 533.746 224.207 532.823 223.014C532.142 222.132 530.849 221.909 529.778 222.218C528.707 222.527 527.819 223.269 527.02 224.045C521.891 229.025 519.218 235.943 516.692 242.63C518.184 236.832 519.55 231.359 519.927 225.378C520.017 223.947 519.89 222.186 518.599 221.564C517.685 221.124 516.545 221.52 515.828 222.237C515.111 222.954 514.723 223.928 514.358 224.874C512.131 230.638 510.038 236.454 508.081 242.315C507.723 243.386 504.597 254.986 501.679 251.01C501.256 250.433 501.109 249.705 500.973 249.003C500.529 246.706 500.085 244.409 499.641 242.113C499.414 240.937 499.165 239.712 498.425 238.771C496.87 236.79 494.52 237.59 494.1 239.893C492.181 250.415 497.803 260.967 497.291 271.651C504.149 273.708 510.697 278.272 514.99 284.001Z" fill="#F3AA81"/>
<path d="M229.876 385.367C229.876 385.367 249.718 302.627 258.679 280.865C267.64 259.102 273.707 247.828 304.598 238.743C335.488 229.659 393.095 231.899 411.338 247.581C429.58 263.263 457.104 330.791 457.104 330.791L496.789 269.664C496.789 269.664 511.191 275.425 516.952 283.426C516.952 283.426 476.947 380.718 457.105 381.998C437.263 383.278 409.099 320.871 409.099 320.871L419.66 385.369H229.876V385.367Z" fill="#226B9E"/>
<path d="M265.512 277.176C267.367 269.954 269.636 262.716 272.652 255.866C266.621 262.396 262.98 270.421 258.679 280.865C249.718 302.628 229.875 385.368 229.875 385.368H237.851C237.93 385.213 263.143 286.401 265.512 277.176Z" fill="#1A5680"/>
<path d="M515.544 285.379C508.725 293.951 501.906 302.744 495.536 311.638C488.487 321.48 483.122 332.433 474.803 341.368C465.564 351.291 451.705 355.933 440.613 345.822C434.245 340.017 430.688 331.379 426.512 324.01C421.714 315.543 416.86 307.101 412.482 298.406C410.094 293.664 407.851 288.844 405.829 283.947C405.801 286.204 405.807 288.458 405.898 290.7C406.362 302.214 408.625 313.817 411.097 325.112C417.861 339.136 440.422 383.071 457.104 381.995C476.092 380.77 513.537 291.64 516.728 283.961C516.334 284.436 515.928 284.897 515.544 285.379Z" fill="#1A5680"/>
<path d="M392.008 235.659C386.615 233.129 381.105 230.848 375.503 228.824C371.158 227.254 367.053 224.905 362.469 224.409C351.338 223.205 339.841 224.375 329.106 227.493C317.242 230.938 306.16 235.563 294.698 240.442C291.574 241.771 288.212 243.315 286.653 246.331C284.479 250.535 286.759 255.672 289.65 259.42C292.502 263.117 295.971 266.328 298.584 270.198C301.197 274.068 302.919 278.911 301.678 283.412C300.155 288.939 294.582 292.7 293.286 298.285C292.346 302.337 293.851 306.511 295.332 310.398C298.339 318.29 301.345 326.182 304.352 334.074C309.643 347.961 315.542 362.659 327.638 371.292C332.872 375.028 339.64 377.425 345.76 375.449C351.047 373.742 354.829 369.162 358.059 364.641C367.175 351.882 374.341 337.865 380.763 323.595C383.505 317.503 386.435 311.642 389.332 305.765C391.863 300.629 391.042 293.704 386.758 289.738C384.72 287.851 382.004 286.485 380.891 283.941C379.378 280.484 381.485 276.61 383.416 273.368C388.535 264.772 392.883 255.718 396.392 246.35C397.173 244.264 397.912 241.93 397.077 239.866C396.234 237.779 394.046 236.615 392.008 235.659Z" fill="#214A6A"/>
<path d="M324.737 225.809C324.737 225.809 307.694 305.228 314.854 385.366C314.854 385.366 372.754 385.366 373.066 385.366C373.378 385.366 366.123 257.222 370.839 230.62L324.737 225.809Z" fill="white"/>
<path d="M327.507 385.367H328.116C328.057 384.305 328.017 383.243 327.965 382.181C327.809 383.242 327.657 384.304 327.507 385.367Z" fill="#DDE1EB"/>
<path d="M370.839 230.621L363.09 229.812C359.005 255.73 359.353 282.313 360.298 308.465C360.93 325.941 361.883 343.386 362.293 360.872C362.483 368.98 362.535 377.02 363.959 385.023C363.979 385.138 364.001 385.252 364.021 385.366H373.065C373.377 385.367 366.122 257.222 370.839 230.621Z" fill="#DDE1EB"/>
<path d="M368.51 188.539C368.764 188.358 369.017 188.181 369.27 188.007C370.235 190.897 369.986 194.031 369.775 197.07C369.399 202.495 368.974 207.864 368.785 213.297C368.611 218.309 369.589 222.788 370.601 227.732C370.796 228.684 370.991 229.661 370.838 230.62C370.663 231.713 370.049 232.686 369.355 233.548C364.261 239.88 355.171 241.176 347.048 240.92C340.284 240.707 332.917 239.698 327.187 235.807C323.758 233.478 324.903 232.408 324.981 228.769C325.039 226.064 325.012 223.851 325.544 221.115C325.929 219.136 329.026 202.598 326.392 202.639C333.884 202.516 341.34 201.167 348.448 198.81C351.906 197.663 355.415 196.3 358.751 194.897C362.206 193.445 365.399 190.753 368.51 188.539Z" fill="#E6996F"/>
<path d="M370.602 227.733C369.59 222.789 368.612 218.31 368.786 213.298C368.974 207.865 369.4 202.496 369.776 197.071C369.987 194.031 370.236 190.897 369.271 188.008C369.018 188.181 368.764 188.359 368.51 188.54C365.399 190.754 362.206 193.447 358.751 194.899C355.416 196.302 351.906 197.665 348.449 198.812C341.341 201.169 333.885 202.518 326.393 202.641C328.083 202.615 327.413 209.404 326.615 214.803C335.469 218.985 346.944 214.944 354.555 222.41C358.917 226.689 360.906 232.697 362.169 238.744C364.954 237.602 367.439 235.934 369.357 233.55C370.051 232.688 370.665 231.715 370.84 230.622C370.993 229.661 370.797 228.684 370.602 227.733Z" fill="#CC835B"/>
<path d="M386.621 112.677C389.408 116.96 391.081 122.514 392.512 127.397C393.856 131.986 394.556 136.764 394.578 141.546C394.601 146.588 394.942 151.47 394.12 156.489C392.913 163.857 390.109 170.902 385.804 177.008C381.409 183.242 375.502 187.707 370.541 193.406C369.193 194.955 367.082 197.332 364.737 195.956C362.995 194.934 363.182 192.406 363.522 190.415C365.246 180.307 364.996 169.873 362.813 159.855C360.713 150.218 357.658 141.033 356.51 131.129C355.798 124.989 351.262 127.596 347.277 128.944C342.107 130.692 336.444 131.887 331.116 130.081C329.347 129.481 327.684 128.569 325.866 128.14C323.96 127.69 321.974 127.791 320.018 127.894C309.197 128.467 299.761 130.902 289.307 126.279C282.815 123.408 278.697 117.02 280.22 109.702C281.775 102.23 289.42 96.8439 296.974 97.6989C299.218 97.9529 301.439 98.7019 303.685 98.4639C306.592 98.1559 307.413 95.9779 309.114 94.0729C310.976 91.9879 313.519 90.2739 315.919 88.8799C320.93 85.9709 326.636 84.3009 332.399 83.8169C345.596 82.7099 362.078 86.4279 369.796 98.0919C370.838 99.6669 371.756 101.393 373.256 102.541C374.569 103.546 376.202 104.01 377.713 104.684C381.407 106.331 384.415 109.286 386.621 112.677Z" fill="#464559"/>
<path d="M384.155 179.184C387.479 171.494 389.673 163.534 385.731 155.851C383.159 150.838 379.379 148.254 379.173 142.296C378.94 135.54 379.8 128.726 378.254 122.059C376.681 115.276 371.772 106.672 366.421 102.161C361.185 97.7469 353.545 94.8819 346.992 93.2019C339.76 91.3479 332.339 91.3759 324.942 91.8729C319.664 92.2279 314.473 93.2879 309.24 93.9429C309.2 93.9869 309.156 94.0289 309.116 94.0729C307.415 95.9779 306.594 98.1559 303.687 98.4639C301.441 98.7019 299.22 97.9529 296.976 97.6989C296.182 97.6089 295.387 97.6029 294.598 97.6459C293.165 100.946 293.418 104.966 297.123 106.234C299.347 106.995 302.146 106.784 304.466 106.755C312.337 106.658 320.717 101.685 328.636 101.711C340.169 101.749 353.225 102.279 362.472 110.16C372.241 118.486 371.609 139.587 371.001 151.105C370.573 159.215 368.358 166.659 364.553 173.389C364.807 179.08 364.481 184.797 363.523 190.414C363.183 192.405 362.996 194.932 364.738 195.955C367.082 197.331 369.194 194.954 370.542 193.405C374.906 188.392 380 184.331 384.155 179.184Z" fill="#3C3B4D"/>
<path d="M327.248 119.34C319.101 120.546 312.968 126.379 304.981 127.996C304.851 128.022 304.705 128.058 304.637 128.172C304.572 128.28 304.601 128.417 304.633 128.539C305.495 131.916 306.525 135.106 306.836 138.606C307.433 145.347 307.435 152.276 306.373 158.972C305.319 165.616 303.686 172.296 304.307 179.071C305.052 187.2 309.206 194.963 315.557 200.092C324.375 207.215 336.696 208.246 347.465 205.858C365.495 201.859 376.208 183.465 375.13 165.733C375.101 165.261 375.089 164.723 375.429 164.395C375.601 164.228 375.837 164.148 376.065 164.072C380.072 162.742 383.57 160.948 384.876 156.555C385.403 154.782 385.44 152.779 384.536 151.165C381.678 146.062 374.628 149.805 372.566 153.522C371.855 154.803 371.956 155.759 370.402 156.212C367.693 157.002 366.526 156.796 365.494 154.036C364.257 150.728 365.413 147.831 365.413 144.498C365.413 140.969 365.855 138.155 363.977 135.166C363.021 133.645 361.711 132.344 360.959 130.713C360.195 129.056 360.065 127.179 360.104 125.355C360.174 122.136 360.74 118.928 361.774 115.879C359.455 117.806 357 119.667 354.151 120.653C349.867 122.135 345.164 121.49 340.715 120.622C336.264 119.757 331.732 118.676 327.248 119.34Z" fill="#F3AA81"/>
<path d="M384.533 151.167C381.675 146.064 374.625 149.807 372.563 153.524C371.852 154.805 371.953 155.761 370.399 156.214C367.69 157.004 366.523 156.798 365.491 154.038C364.254 150.73 365.41 147.833 365.41 144.5C365.41 140.971 365.852 138.157 363.975 135.168C363.019 133.647 361.709 132.346 360.957 130.715C360.193 129.058 360.063 127.181 360.102 125.357C360.172 122.138 360.738 118.93 361.772 115.882C359.453 117.809 356.999 119.67 354.149 120.656C349.865 122.138 345.162 121.493 340.713 120.625C336.264 119.757 331.731 118.676 327.247 119.34C319.1 120.546 312.967 126.379 304.98 127.996C304.85 128.022 304.704 128.058 304.636 128.172C304.571 128.28 304.601 128.417 304.632 128.539C304.773 129.09 304.92 129.631 305.066 130.174C308.638 129.855 312.176 129.32 315.636 128.356C319.074 127.398 322.326 125.924 325.721 124.837C328.563 123.927 331.525 123.241 334.528 123.325C337.659 123.413 340.653 124.438 343.667 125.187C347.016 126.019 351.612 125.235 353.097 129.082C354.494 132.701 353.866 136.896 354.112 140.679C354.51 146.814 356.566 152.802 357.599 158.844C358.566 164.496 358.881 170.192 358.173 175.897C356.949 185.766 353.101 196.016 345.256 202.501C343.132 204.257 340.802 205.655 338.359 206.795C341.422 206.746 344.476 206.522 347.463 205.859C365.494 201.86 376.207 183.466 375.128 165.734C375.099 165.262 375.087 164.724 375.427 164.396C375.599 164.229 375.835 164.149 376.063 164.073C380.07 162.743 383.568 160.949 384.874 156.556C385.4 154.783 385.437 152.78 384.533 151.167Z" fill="#E6996F"/>
<path d="M320.245 131.91C319.218 130.219 316.116 130.284 314.57 130.938C310.975 132.458 305.752 136.728 304.571 140.603C304.376 141.243 304.464 142.012 304.953 142.469C305.451 142.935 306.238 142.966 306.879 142.732C307.52 142.499 308.053 142.047 308.585 141.62C310.971 139.706 313.619 138.121 316.433 136.923C317.538 136.452 318.703 136.02 319.559 135.177C320.417 134.336 320.869 132.937 320.245 131.91Z" fill="#464559"/>
<path d="M342.675 131.22C343.702 129.529 346.805 129.594 348.35 130.248C351.945 131.768 357.168 136.038 358.349 139.912C358.544 140.552 358.455 141.321 357.967 141.778C357.469 142.244 356.682 142.275 356.041 142.041C355.4 141.808 354.867 141.356 354.334 140.929C351.949 139.016 349.3 137.43 346.486 136.233C345.381 135.762 344.216 135.33 343.36 134.487C342.503 133.645 342.051 132.247 342.675 131.22Z" fill="#464559"/>
<path d="M321.165 148.559C321.165 150.281 319.769 151.678 318.046 151.678C316.323 151.678 314.927 150.282 314.927 148.559C314.927 146.836 316.323 145.44 318.046 145.44C319.768 145.44 321.165 146.836 321.165 148.559Z" fill="#313042"/>
<path d="M345.682 148.559C345.682 150.281 344.286 151.678 342.563 151.678C340.84 151.678 339.444 150.282 339.444 148.559C339.444 146.836 340.84 145.44 342.563 145.44C344.286 145.44 345.682 146.836 345.682 148.559Z" fill="#313042"/>
<path d="M330.437 142.887C330.678 146.471 331.034 150.058 331.176 153.682C331.22 155.497 331.361 157.287 331.148 159.211C330.934 161.097 330.371 162.964 329.404 164.656C328.919 165.499 328.324 166.294 327.614 166.989C326.902 167.701 326.064 168.242 325.38 168.733C324.681 169.23 324.104 169.753 323.88 170.3C323.653 170.818 323.698 171.529 323.983 172.127C324.266 172.733 324.795 173.261 325.42 173.606C326.043 173.948 326.773 174.087 327.538 174.055C329.078 173.958 330.652 173.144 332.034 172.126L332.043 172.119C332.273 171.949 332.598 171.998 332.767 172.229C332.918 172.435 332.896 172.715 332.726 172.893C331.439 174.247 329.78 175.412 327.707 175.713C325.644 176.065 323.253 175.005 322.273 172.949C321.769 171.938 321.653 170.685 322.145 169.544C322.654 168.42 323.543 167.758 324.293 167.218C325.077 166.671 325.766 166.232 326.334 165.671C326.917 165.111 327.42 164.458 327.84 163.745C328.683 162.317 329.184 160.668 329.442 158.989C329.684 157.333 329.614 155.505 329.621 153.723C329.572 150.144 329.42 146.541 329.406 142.924C329.405 142.639 329.635 142.406 329.921 142.405C330.193 142.404 330.418 142.618 330.437 142.887Z" fill="#CC835B"/>
<path d="M328.962 182.211C326.892 182.734 324.849 183.315 322.893 184.039C321.451 184.573 321.154 184.208 321.107 185.72C321.081 186.528 321.867 187.739 322.277 188.402C323.257 189.987 324.717 191.375 326.432 192.137C329.505 193.569 333.328 193.239 336.11 191.303C338.049 189.953 339.411 187.903 339.928 185.6C340.297 183.955 340.813 179.291 338.148 179.997C335.159 180.789 332.031 181.436 328.962 182.211Z" fill="white"/>
<path d="M387.538 163.748C392.306 158.98 392.306 151.25 387.538 146.483C382.771 141.715 375.041 141.715 370.274 146.483C365.506 151.25 365.506 158.98 370.274 163.748C375.041 168.515 382.771 168.515 387.538 163.748Z" fill="#E6F5FF"/>
<path d="M378.91 161.45C382.409 161.45 385.246 158.613 385.246 155.114C385.246 151.615 382.409 148.778 378.91 148.778C375.411 148.778 372.574 151.615 372.574 155.114C372.574 158.613 375.411 161.45 378.91 161.45Z" fill="#226B9E"/>
<path d="M378.224 148.373C376.868 148.301 375.788 147.184 375.78 145.809C375.739 138.741 375.696 131.432 374.427 124.453C373.037 116.802 370.317 110.539 366.344 105.835C362.794 101.633 358.271 98.362 353.203 96.235C347.404 93.801 341.077 92.851 334.816 92.816C325.243 92.762 315.673 94.727 306.612 97.726C305.625 98.053 304.655 98.446 303.666 98.761C303.451 98.829 303.213 98.891 303.006 98.803C302.759 98.697 302.638 98.402 302.653 98.134C302.72 96.956 303.958 95.687 304.714 94.875C307.687 91.681 312.233 90.713 316.329 89.732C321.9 88.397 327.673 87.767 333.392 87.668C340.022 87.567 346.726 88.372 352.994 90.605C359.7 92.994 365.691 97.058 370.29 102.503C374.854 107.905 377.955 114.98 379.509 123.53C380.858 130.952 380.903 138.49 380.945 145.78C380.953 147.206 379.804 148.369 378.377 148.378C378.326 148.377 378.275 148.376 378.224 148.373Z" fill="#E6F5FF"/>
<path d="M347.914 196C347.262 196 346.655 195.585 346.441 194.93C346.175 194.116 346.62 193.242 347.433 192.976C354.355 190.717 362.97 187.905 368.136 181.712C372.558 176.41 374.127 169.115 375.512 162.678C375.693 161.841 376.522 161.312 377.353 161.489C378.189 161.669 378.722 162.493 378.542 163.33C377.082 170.117 375.427 177.809 370.515 183.697C364.778 190.574 355.693 193.54 348.394 195.922C348.236 195.975 348.074 196 347.914 196Z" fill="#E6F5FF"/>
<path d="M346.514 199.576L343.864 200.31C341.403 200.991 338.856 199.549 338.175 197.088C337.494 194.627 338.936 192.08 341.396 191.399L344.046 190.665C346.507 189.984 349.054 191.426 349.735 193.887C350.417 196.347 348.975 198.894 346.514 199.576Z" fill="#226B9E"/>
<path d="M270.82 385.367L280.391 324.121L278.454 385.367H270.82Z" fill="#1A5680"/>
</g>
<defs>
<clipPath id="clip0_515_2">
<rect width="700" height="470" fill="white"/>
</clipPath>
</defs>
</svg>
