<svg width="25" height="25" viewBox="0 0 25 25" fill="none" xmlns="http://www.w3.org/2000/svg">
<g clip-path="url(#clip0_1687_7)">
<path d="M15.6411 7.44292H18.6411C19.2977 7.44292 19.9479 7.57225 20.5545 7.82352C21.1612 8.07479 21.7124 8.44309 22.1766 8.90738C22.6409 9.37168 23.0092 9.92287 23.2605 10.5295C23.5118 11.1361 23.6411 11.7863 23.6411 12.4429C23.6411 13.0995 23.5118 13.7497 23.2605 14.3563C23.0092 14.963 22.6409 15.5142 22.1766 15.9785C21.7124 16.4427 21.1612 16.811 20.5545 17.0623C19.9479 17.3136 19.2977 17.4429 18.6411 17.4429H15.6411M9.64111 17.4429H6.64111C5.9845 17.4429 5.33432 17.3136 4.7277 17.0623C4.12107 16.811 3.56987 16.4427 3.10558 15.9785C2.1679 15.0408 1.64111 13.769 1.64111 12.4429C1.64111 11.1168 2.1679 9.84506 3.10558 8.90738C4.04326 7.9697 5.31503 7.44292 6.64111 7.44292H9.64111" stroke="white" stroke-width="2" stroke-linecap="round" stroke-linejoin="round"/>
<path d="M8.64111 12.4429H16.6411" stroke="white" stroke-width="2" stroke-linecap="round" stroke-linejoin="round"/>
</g>
<defs>
<clipPath id="clip0_1687_7">
<rect width="24" height="24" fill="white" transform="translate(0.641113 0.442917)"/>
</clipPath>
</defs>
</svg>
