<svg width="120" height="120" viewBox="0 0 120 120" fill="none" xmlns="http://www.w3.org/2000/svg">
<g clip-path="url(#clip0_217_176)">
<path fill-rule="evenodd" clip-rule="evenodd" d="M1.0557 1.29242C1.81315 0.468737 2.881 0 4.00002 0H116C117.119 0 118.187 0.468737 118.944 1.29242C119.702 2.1161 120.079 3.21941 119.986 4.3345L111.986 99.664C111.852 101.258 110.782 102.618 109.265 103.124L61.265 119.124C60.4438 119.398 59.5562 119.398 58.7351 119.124L10.7351 103.124C9.21792 102.618 8.14776 101.258 8.014 99.664L0.0140241 4.3345C-0.0795544 3.21941 0.298241 2.1161 1.0557 1.29242ZM88 24H32V32H80V48H48V56H80V73.117L60 79.7836L40 73.117V64H32V78.883L60 88.216L88 78.883V24Z" fill="#63D7FF"/>
</g>
<defs>
<clipPath id="clip0_217_176">
<rect width="120" height="120" fill="white"/>
</clipPath>
</defs>
</svg>
