<svg width="120" height="76" viewBox="0 0 120 76" fill="none" xmlns="http://www.w3.org/2000/svg">
<g clip-path="url(#clip0_502_2)">
<path d="M120 65.0338C57.263 73.2329 12.4844 83.0806 11.822 42.6592C11.822 42.6592 13.191 26.997 32.4007 26.0108C32.4007 26.0108 33.0484 12.1003 47.7243 10.5252C55.6143 9.67148 64.5788 17.797 65.5504 26.3493C65.5504 26.3493 84.9662 22.7576 85.8052 41.6877C86.0996 48.2823 84.6129 59.499 65.8889 59.0132C65.8889 59.0132 55.0549 57.5412 53.5829 40.7898C50.5359 73.2181 97.4194 71.334 98.0965 41.879C98.3909 29.1462 90.236 16.0453 71.8653 18.5035C61.7967 -6.82975 34.9914 -5.37246 25.0112 18.1208C10.7474 18.1208 -0.160142 29.102 0.00177942 43.4394C0.546423 89.5869 64.7702 75.6764 120 65.0338Z" fill="#63D7FF"/>
</g>
<defs>
<clipPath id="clip0_502_2">
<rect width="120" height="75.9375" fill="white"/>
</clipPath>
</defs>
</svg>
