<svg width="120" height="120" viewBox="0 0 120 120" fill="none" xmlns="http://www.w3.org/2000/svg">
<path d="M25 27.5C25 22.8587 26.8437 18.4075 30.1256 15.1256C33.4075 11.8437 37.8587 10 42.5 10H60V45H42.5C37.8587 45 33.4075 43.1563 30.1256 39.8744C26.8437 36.5925 25 32.1413 25 27.5Z" stroke="#63D7FF" stroke-width="2" stroke-linecap="round" stroke-linejoin="round"/>
<path d="M60 10H77.5C79.7981 10 82.0738 10.4527 84.197 11.3321C86.3202 12.2116 88.2493 13.5006 89.8744 15.1256C91.4994 16.7507 92.7884 18.6798 93.6679 20.803C94.5473 22.9262 95 25.2019 95 27.5C95 29.7981 94.5473 32.0738 93.6679 34.197C92.7884 36.3202 91.4994 38.2493 89.8744 39.8744C88.2493 41.4994 86.3202 42.7884 84.197 43.6679C82.0738 44.5474 79.7981 45 77.5 45H60V10Z" stroke="#63D7FF" stroke-width="2" stroke-linecap="round" stroke-linejoin="round"/>
<path d="M60 62.5C60 60.2019 60.4526 57.9262 61.3321 55.803C62.2116 53.6798 63.5006 51.7507 65.1256 50.1256C66.7507 48.5006 68.6798 47.2116 70.803 46.3321C72.9262 45.4526 75.2019 45 77.5 45C79.7981 45 82.0738 45.4526 84.197 46.3321C86.3202 47.2116 88.2493 48.5006 89.8744 50.1256C91.4994 51.7507 92.7884 53.6798 93.6679 55.803C94.5473 57.9262 95 60.2019 95 62.5C95 64.7981 94.5473 67.0738 93.6679 69.197C92.7884 71.3202 91.4994 73.2493 89.8744 74.8744C88.2493 76.4994 86.3202 77.7884 84.197 78.6679C82.0738 79.5474 79.7981 80 77.5 80C75.2019 80 72.9262 79.5474 70.803 78.6679C68.6798 77.7884 66.7507 76.4994 65.1256 74.8744C63.5006 73.2493 62.2116 71.3202 61.3321 69.197C60.4526 67.0738 60 64.7981 60 62.5V62.5Z" stroke="#63D7FF" stroke-width="2" stroke-linecap="round" stroke-linejoin="round"/>
<path d="M25 97.5C25 92.8587 26.8437 88.4075 30.1256 85.1256C33.4075 81.8437 37.8587 80 42.5 80H60V97.5C60 102.141 58.1563 106.592 54.8744 109.874C51.5925 113.156 47.1413 115 42.5 115C37.8587 115 33.4075 113.156 30.1256 109.874C26.8437 106.592 25 102.141 25 97.5Z" stroke="#63D7FF" stroke-width="2" stroke-linecap="round" stroke-linejoin="round"/>
<path d="M25 62.5C25 57.8587 26.8437 53.4075 30.1256 50.1256C33.4075 46.8437 37.8587 45 42.5 45H60V80H42.5C37.8587 80 33.4075 78.1563 30.1256 74.8744C26.8437 71.5925 25 67.1413 25 62.5Z" stroke="#63D7FF" stroke-width="2" stroke-linecap="round" stroke-linejoin="round"/>
</svg>
