<svg width="120" height="120" viewBox="0 0 120 120" fill="none" xmlns="http://www.w3.org/2000/svg">
<path d="M19.45 78.365L31.275 2.305C31.3605 1.74119 31.6218 1.21875 32.0216 0.812058C32.4213 0.405364 32.9392 0.135143 33.5015 0.0398645C34.0637 -0.0554142 34.6417 0.0291051 35.1531 0.28139C35.6646 0.533676 36.0834 0.940868 36.35 1.445L49.0649 25.3L19.45 78.365ZM103.425 96.82L92.1649 26.825C92.0822 26.3344 91.8662 25.876 91.5405 25.4998C91.2149 25.1236 90.7921 24.8441 90.3184 24.6919C89.8447 24.5397 89.3383 24.5206 88.8545 24.6366C88.3707 24.7527 87.928 24.9995 87.5749 25.35L16.575 96.82L55.86 118.96C57.0715 119.641 58.4378 119.998 59.8274 119.998C61.2171 119.998 62.5834 119.641 63.795 118.96L103.425 96.82ZM71.5 35.74L62.3999 18.33C62.1703 17.8922 61.8254 17.5255 61.4023 17.2697C60.9793 17.0138 60.4943 16.8786 59.9999 16.8786C59.5056 16.8786 59.0206 17.0138 58.5976 17.2697C58.1745 17.5255 57.8296 17.8922 57.6 18.33L17.65 89.92L71.5 35.74Z" fill="#63D7FF"/>
</svg>
