<svg width="120" height="120" viewBox="0 0 120 120" fill="none" xmlns="http://www.w3.org/2000/svg">
<path fill-rule="evenodd" clip-rule="evenodd" d="M108.113 55.5457L64.4524 11.8863C61.9385 9.37125 57.8607 9.37125 55.3446 11.8863L46.2793 20.9538L57.7791 32.4547C60.4519 31.5514 63.5165 32.1576 65.6473 34.2873C67.7891 36.4312 68.3898 39.5219 67.4637 42.2045L78.5488 53.2886C81.2314 52.3636 84.3243 52.961 86.466 55.1071C89.4588 58.0988 89.4588 62.9492 86.466 65.9431C83.4711 68.938 78.6217 68.938 75.6257 65.9431C73.3752 63.6903 72.818 60.382 73.9596 57.6091L63.621 47.2715V74.4752C64.3501 74.8365 65.039 75.3175 65.6473 75.9236C68.6401 78.9164 68.6401 83.7658 65.6473 86.7629C62.6546 89.7545 57.802 89.7545 54.8103 86.7629C51.8175 83.7658 51.8175 78.9164 54.8103 75.9236C55.5503 75.1847 56.4068 74.6253 57.3209 74.251V46.796C56.4068 46.4227 55.5525 45.8677 54.8103 45.1244C52.5434 42.8586 51.9982 39.5306 53.1615 36.7468L41.8239 25.4081L11.8854 55.3433C9.37152 57.8605 9.37152 61.9382 11.8854 64.4532L55.5481 108.113C58.0621 110.627 62.1387 110.627 64.6559 108.113L108.113 64.6556C110.629 62.1406 110.629 58.0607 108.113 55.5457Z" fill="#63D7FF"/>
</svg>
