<svg width="120" height="120" viewBox="0 0 120 120" fill="none" xmlns="http://www.w3.org/2000/svg">
<path d="M97.555 48.61C95.557 41.2577 91.458 34.6478 85.76 29.59L85.585 29.765L85.61 29.555C80.6328 25.1642 74.6185 22.1145 68.1352 20.6938C61.6519 19.2731 54.9134 19.5283 48.5561 21.4354C42.1989 23.3425 36.4326 26.8385 31.8018 31.5932C27.171 36.348 23.8285 42.2046 22.09 48.61C22.245 48.545 22.42 48.545 22.585 48.495C18.8578 50.9841 15.7773 54.3253 13.5984 58.2419C11.4195 62.1585 10.205 66.5378 10.0555 71.0172C9.90597 75.4966 10.8257 79.9472 12.7385 84.0004C14.6513 88.0536 17.5022 91.5928 21.055 94.325L21.085 94.295L21.055 94.415C25.9591 98.1196 31.9439 100.112 38.09 100.085H59.695L59.815 100.205H81.52C87.5798 100.253 93.4942 98.3499 98.3882 94.7761C103.282 91.2023 106.896 86.148 108.694 80.3611C110.493 74.5742 110.381 68.362 108.374 62.6438C106.368 56.9255 102.575 52.0049 97.555 48.61ZM81.525 82.835H59.82L59.79 82.865V82.71H38.09C36.55 82.71 35.035 82.38 33.63 81.745L33.64 81.74C32.0396 81.0181 30.6383 79.9187 29.5563 78.536C28.4744 77.1534 27.7441 75.5289 27.4282 73.8019C27.1123 72.0749 27.2202 70.297 27.7426 68.6209C28.2651 66.9447 29.1864 65.4204 30.4277 64.1788C31.6689 62.9371 33.1929 62.0152 34.8688 61.4922C36.5447 60.9692 38.3226 60.8606 40.0497 61.1759C41.7768 61.4913 43.4016 62.221 44.7846 63.3024C46.1677 64.3839 47.2676 65.7849 47.99 67.385L60.58 54.795C56.3916 49.3395 50.352 45.6047 43.6 44.295C43.69 44.25 43.775 44.175 43.85 44.19C47.5724 40.102 52.7166 37.5914 58.2296 37.1722C63.7425 36.753 69.2072 38.4569 73.505 41.935H73.735C76.225 44.0109 78.2175 46.6191 79.5657 49.5673C80.9139 52.5155 81.5834 55.7287 81.525 58.97V61.135C84.4026 61.135 87.1623 62.2781 89.1971 64.3129C91.2319 66.3477 92.375 69.1074 92.375 71.985C92.375 74.8626 91.2319 77.6223 89.1971 79.6571C87.1623 81.6919 84.4026 82.835 81.525 82.835Z" fill="#63D7FF"/>
</svg>
