<svg width="120" height="120" viewBox="0 0 120 120" fill="none" xmlns="http://www.w3.org/2000/svg">
<g clip-path="url(#clip0_219_3)">
<path d="M103.05 -5.06745e-06H16.95C15.5299 -0.00662582 14.1225 0.268205 12.8092 0.808611C11.4959 1.34902 10.3027 2.14429 9.2985 3.14848C8.29431 4.15267 7.49904 5.34589 6.95863 6.65919C6.41823 7.9725 6.1434 9.37987 6.15002 10.8V109.205C6.14406 110.625 6.41938 112.032 6.96008 113.344C7.50078 114.657 8.29616 115.85 9.30029 116.853C10.3044 117.857 11.4974 118.652 12.8104 119.192C14.1234 119.732 15.5303 120.007 16.95 120H103.05C104.469 120.006 105.876 119.731 107.188 119.19C108.501 118.65 109.693 117.855 110.697 116.851C111.7 115.848 112.495 114.655 113.035 113.343C113.576 112.031 113.851 110.624 113.845 109.205V10.8C113.852 9.3801 113.578 7.97285 113.038 6.65957C112.498 5.34629 111.704 4.15304 110.7 3.14878C109.696 2.14451 108.503 1.34916 107.19 0.808699C105.877 0.268233 104.47 -0.00663106 103.05 -5.06745e-06ZM107.85 109.205C107.85 111.9 105.745 114.005 103.05 114.005H16.95C16.3174 114.013 15.6896 113.894 15.1036 113.656C14.5176 113.418 13.9853 113.064 13.5379 112.617C13.0906 112.17 12.7373 111.637 12.499 111.051C12.2606 110.465 12.142 109.838 12.15 109.205V10.8C12.15 8.09999 14.25 5.99499 16.95 5.99499H103.05C103.683 5.98829 104.31 6.10804 104.896 6.3472C105.482 6.58636 106.014 6.94013 106.461 7.38772C106.908 7.83531 107.261 8.36772 107.5 8.95369C107.738 9.53965 107.857 10.1674 107.85 10.8V109.205ZM33.15 101.995L46.65 90L33.15 78V101.995ZM81.75 53.4C79.355 51 74.855 48 67.355 48C59.25 48 50.85 50.105 44.855 52.2V18H32.855V69.9L41.255 66C41.255 66 55.055 59.7 67.055 59.7C73.055 59.7 74.555 63 74.555 66V102H86.555V66C86.85 65.105 86.85 58.495 81.75 53.4ZM65.85 37.5H77.85C83.25 31.2 85.95 24.895 86.85 18H74.855C73.65 24.895 70.65 31.2 65.85 37.5Z" fill="#63D7FF"/>
</g>
<defs>
<clipPath id="clip0_219_3">
<rect width="120" height="120" fill="white"/>
</clipPath>
</defs>
</svg>
