<svg width="120" height="120" viewBox="0 0 120 120" fill="none" xmlns="http://www.w3.org/2000/svg">
<path d="M7.5 7.5V112.5H112.5V7.5H7.5ZM64.6425 89.3887C64.6425 99.6075 58.6425 104.272 49.9012 104.272C42.0037 104.272 37.4325 100.196 35.0888 95.25L43.1287 90.3975C44.6775 93.1388 46.0837 95.46 49.4812 95.46C52.7137 95.46 54.7763 94.1925 54.7763 89.25V55.71H64.6425V89.3887ZM87.9825 104.272C78.8175 104.272 72.8887 99.915 70.005 94.1925L78.045 89.5537C80.1562 93 82.92 95.5538 87.7725 95.5538C91.8487 95.5538 94.4775 93.5137 94.4775 90.6787C94.4775 87.3037 91.8037 86.1075 87.2812 84.1162L84.8213 83.0625C77.6963 80.04 72.9862 76.2188 72.9862 68.1787C72.9862 60.7725 78.6338 55.1475 87.4238 55.1475C93.705 55.1475 98.205 57.3263 101.441 63.045L93.7537 67.9688C92.0662 64.9463 90.2362 63.75 87.4012 63.75C84.5212 63.75 82.6913 65.58 82.6913 67.9688C82.6913 70.9238 84.5212 72.1162 88.7625 73.9688L91.2225 75.0225C99.615 78.6075 104.325 82.29 104.325 90.5362C104.325 99.3975 97.3387 104.269 87.9862 104.269L87.9825 104.272Z" fill="#63D7FF"/>
</svg>
