<svg width="120" height="120" viewBox="0 0 120 120" fill="none" xmlns="http://www.w3.org/2000/svg">
<path d="M85.9 47.59C79.585 19.79 64.69 10.655 63.09 7.16C61.33 4.695 59.425 0 59.425 0C59.415 0.095 59.405 0.155 59.4 0.245V0.31H59.3949C59.3849 0.385 59.3799 0.435 59.375 0.505V0.58H59.365C59.365 0.63 59.355 0.67 59.355 0.71V0.84H59.34C59.3349 0.88 59.3349 0.93 59.3249 0.965V1.07H59.3149C59.3149 1.105 59.3149 1.145 59.305 1.175V1.275H59.295C59.295 1.325 59.29 1.385 59.285 1.435V1.445C59.27 1.53 59.2549 1.615 59.2399 1.695V1.735H59.2299C59.2249 1.755 59.215 1.775 59.215 1.795V1.88H59.2V1.99H59.1749V2.08H59.15V2.185H59.13V2.28H59.1099V2.365H59.08V2.435H59.06V2.525H59.0399V2.595H59.015V2.66H59V2.735H58.9799C58.9749 2.74 58.975 2.75 58.975 2.755V2.805H58.9599C58.9549 2.815 58.955 2.825 58.955 2.835V2.865H58.9449C58.9399 2.88 58.9349 2.905 58.9349 2.915C58.9199 2.95 58.9 2.985 58.885 3.02V3.03C58.875 3.04 58.865 3.055 58.86 3.065V3.105H58.8399V3.145H58.8149V3.185H58.8V3.235H58.7699V3.305H58.75V3.325H58.73V3.365H58.7099V3.42H58.6899V3.46H58.66V3.515H58.6399V3.555H58.6149V3.595H58.6V3.645H58.575V3.685H58.555V3.715H58.5349V3.755H58.505V3.8H58.4849V3.83H58.46V3.87H58.4399V3.925H58.4149V3.945H58.4V3.985H58.3699V4.005H58.35V4.055H58.33V4.075H58.3099V4.115H58.2849V4.145H58.27L58.26 4.165V4.185H58.2499C58.2449 4.195 58.2399 4.195 58.2399 4.205V4.21H58.235C58.23 4.225 58.2249 4.235 58.2149 4.245V4.26H58.21C58.1849 4.29 58.17 4.32 58.15 4.35V4.355C58.1399 4.365 58.115 4.385 58.105 4.405V4.415H58.0999C58.0949 4.42 58.0849 4.425 58.0849 4.43V4.445H58.0749L58.06 4.46V4.465H58.0549C58.0549 4.47 58.0449 4.475 58.0399 4.485V4.505H58.0249L58.0149 4.515V4.525H58.0049C58.0049 4.535 57.9949 4.535 57.9949 4.54V4.555H57.975C57.975 4.56 57.97 4.565 57.965 4.57V4.6H57.9499V4.62H57.93V4.65H57.9099V4.69H57.8849V4.65H57.8599V4.67H57.8399V4.7H57.8149V4.74H57.7899V4.76H57.7699V4.79H57.75V4.81H57.7299V4.85H57.6999V4.87H57.68V4.9H57.6549V4.92H57.635V4.945H57.61V4.995H57.6V5.015H57.5699V5.04H57.5499V5.05H57.5299V5.07H57.505V5.12H57.4849V5.14H57.4599V5.16H57.4399V5.19H57.4149V5.21H57.3899V5.23H57.3699V5.25H57.35V5.3H57.3299V5.325H57.2999V5.345H57.28V5.365H57.2549V5.395H57.2349V5.415H57.21V5.45H57.1899V5.47H57.16V5.5H57.15V5.52H57.1299V5.54H57.1049V5.56H57.0849V5.59H57.0599V5.61H57.045C57.04 5.615 57.0399 5.62 57.0399 5.62V5.63H57.0299L57.01 5.65C57.01 5.65 56.9999 5.66 56.9899 5.665V5.695H56.9699V5.72H56.95V5.74H56.9299V5.76H56.915L56.9 5.775V5.79H56.8899L56.88 5.8V5.815H56.8699C56.8449 5.845 56.8349 5.865 56.7999 5.895C56.7899 5.905 56.7599 5.93 56.7399 5.945C56.6799 5.985 56.6049 6.05 56.5449 6.105C56.5049 6.13 56.4649 6.165 56.4349 6.19V6.195H56.43C56.35 6.26 56.275 6.32 56.185 6.39V6.395C56.065 6.495 55.9499 6.59 55.8149 6.705V6.7H55.805C55.52 6.935 55.22 7.2 54.875 7.495V7.5H54.8699C54.0249 8.24 53.0199 9.19 51.8949 10.34L51.82 10.415L51.7999 10.435C44.9999 17.47 34.2849 32.13 33.1549 55.82C33.0549 57.78 33.0749 59.685 33.1849 61.54V61.585C33.7299 70.92 36.6599 78.89 40.3249 85.365V85.37C41.7849 87.95 43.3599 90.295 44.9549 92.395V92.4C50.4649 99.675 56.09 103.985 57.525 105.03C59.7299 110.145 59.5249 118.925 59.5249 118.925L62.7449 120C62.7449 120 62.09 111.495 63.01 107.39C63.295 106.105 63.97 105.01 64.755 104.08C65.285 103.705 66.8549 102.575 68.74 100.855C68.83 100.76 68.8799 100.675 68.9599 100.585C76.5649 93.495 90.77 76.035 85.9 47.59Z" fill="#63D7FF"/>
</svg>
