<svg width="120" height="120" viewBox="0 0 120 120" fill="none" xmlns="http://www.w3.org/2000/svg">
<g clip-path="url(#clip0_219_20)">
<path d="M56.0705 0.0322972C55.8125 0.0557575 54.991 0.137869 54.252 0.19652C37.2082 1.73317 21.2434 10.9296 11.1319 25.0645C5.50145 32.9238 1.9003 41.8387 0.53959 51.2815C0.058651 54.578 0 55.5515 0 60.0205C0 64.49 0.058651 65.4635 0.53959 68.7595C3.80058 91.2935 19.8358 110.226 41.5836 117.24C45.478 118.495 49.5836 119.352 54.252 119.868C56.0705 120.068 63.9295 120.068 65.748 119.868C73.8065 118.977 80.6335 116.983 87.3665 113.546C88.399 113.018 88.598 112.877 88.4575 112.76C88.3635 112.689 83.965 106.789 78.686 99.657L69.091 86.695L57.0675 68.9005C50.4515 59.1175 45.0088 51.1175 44.9619 51.1175C44.915 51.1055 44.868 59.012 44.8446 68.6655C44.8094 85.569 44.7976 86.2495 44.5865 86.648C44.2816 87.223 44.0469 87.4575 43.5542 87.7155C43.1789 87.9035 42.8505 87.9385 41.0792 87.9385H39.0499L38.5103 87.5985C38.1584 87.3755 37.9003 87.082 37.7243 86.742L37.478 86.214L37.5014 62.695L37.5367 39.1642L37.9003 38.7068C38.088 38.4604 38.4868 38.1437 38.7684 37.9912C39.2493 37.7566 39.437 37.7332 41.4663 37.7332C43.8592 37.7332 44.2581 37.827 44.8798 38.5074C45.0557 38.695 51.566 48.5015 59.355 60.314C67.1435 72.126 77.7945 88.255 83.0265 96.173L92.528 110.566L93.009 110.249C97.267 107.481 101.771 103.54 105.337 99.434C112.926 90.7185 117.818 80.091 119.46 68.7595C119.941 65.4635 120 64.49 120 60.0205C120 55.5515 119.941 54.578 119.46 51.2815C116.199 28.7478 100.164 9.8153 78.4165 2.80062C74.5805 1.55722 70.4985 0.70092 65.924 0.18479C64.7975 0.067488 57.044 -0.0615445 56.0705 0.0322972ZM80.6335 36.3256C81.1965 36.6071 81.654 37.1467 81.818 37.7097C81.912 38.0147 81.9355 44.5367 81.912 59.2345L81.877 80.3255L78.1585 74.6245L74.428 68.924V53.5925C74.428 43.6804 74.475 38.1086 74.5455 37.8387C74.733 37.1819 75.1435 36.6657 75.7065 36.3607C76.1875 36.1144 76.3635 36.091 78.2055 36.091C79.9415 36.091 80.2465 36.1144 80.6335 36.3256Z" fill="#63D7FF"/>
</g>
<defs>
<clipPath id="clip0_219_20">
<rect width="120" height="120" fill="white"/>
</clipPath>
</defs>
</svg>
