<svg width="120" height="120" viewBox="0 0 120 120" fill="none" xmlns="http://www.w3.org/2000/svg">
<path d="M19.89 62.1113C19.89 61.755 19.7025 61.425 19.395 61.2488L11.175 56.52C11.0362 56.4375 10.8787 56.3963 10.7212 56.3888C10.7062 56.3888 10.6462 56.3888 10.635 56.3888C10.4775 56.3963 10.3237 56.4375 10.1812 56.52L1.965 61.2488C1.6575 61.425 1.46625 61.755 1.46625 62.1113L1.485 74.8463C1.485 75.0225 1.57875 75.1875 1.7325 75.2738C1.88625 75.3638 2.07375 75.3638 2.2275 75.2738L7.11 72.4763C7.4175 72.2925 7.605 71.97 7.605 71.6138V65.6625C7.605 65.31 7.7925 64.98 8.1 64.8038L10.1812 63.6075C10.335 63.5175 10.5037 63.4763 10.68 63.4763C10.8487 63.4763 11.0212 63.5213 11.175 63.6075L13.2525 64.8038C13.56 64.98 13.7475 65.31 13.7475 65.6625V71.6138C13.7475 71.97 13.9387 72.2925 14.2462 72.4763L19.1287 75.2738C19.2825 75.3638 19.4737 75.3638 19.6237 75.2738C19.7737 75.1875 19.8712 75.0225 19.8712 74.8463L19.8862 62.1113H19.89ZM63.7725 44.6025C63.6187 44.5163 63.4312 44.52 63.2812 44.61C63.1312 44.7 63.0375 44.8613 63.0375 45.0375V57.6488C63.0375 57.7725 62.97 57.8888 62.865 57.9488C62.76 58.0088 62.625 58.0125 62.5162 57.9488L60.4575 56.7638C60.15 56.5875 59.7712 56.5875 59.4637 56.7638L51.2437 61.5075C50.9362 61.6838 50.745 62.0138 50.745 62.3663V71.8575C50.745 72.2138 50.9325 72.54 51.24 72.7163L59.46 77.4638C59.7675 77.64 60.1462 77.64 60.4537 77.4638L68.6775 72.7163C68.985 72.5363 69.1725 72.21 69.1725 71.8575V48.1988C69.1725 47.8388 68.9775 47.5088 68.6625 47.3325L63.7687 44.6025H63.7725ZM63.0112 68.7413C63.0112 68.8313 62.9662 68.9138 62.8875 68.955L60.0637 70.5825C59.9887 70.6275 59.8912 70.6275 59.8162 70.5825L56.9925 68.955C56.9137 68.91 56.8687 68.8275 56.8687 68.7413V65.4825C56.8687 65.3925 56.9175 65.31 56.9925 65.2688L59.8162 63.6375C59.8912 63.5925 59.9887 63.5925 60.0637 63.6375L62.8875 65.2688C62.9625 65.3138 63.0112 65.3963 63.0112 65.4825V68.7413ZM93.1875 65.3963C93.4912 65.22 93.6825 64.8938 93.6825 64.5375V62.2388C93.6825 61.8825 93.495 61.56 93.1875 61.38L85.02 56.6363C84.7125 56.4563 84.3337 56.4563 84.0262 56.6363L75.8062 61.38C75.4987 61.5563 75.3112 61.8863 75.3112 62.2388V71.7263C75.3112 72.0825 75.5025 72.4125 75.8137 72.5888L83.9812 77.2425C84.2812 77.415 84.6525 77.415 84.9562 77.2463L89.895 74.5013C90.0487 74.415 90.1462 74.25 90.15 74.07C90.1537 73.89 90.0562 73.725 89.9025 73.635L81.63 68.8875C81.4762 68.8013 81.3825 68.6363 81.3825 68.4563V65.4825C81.3825 65.3063 81.4762 65.1413 81.63 65.0513L84.2062 63.57C84.36 63.4838 84.5475 63.4838 84.7012 63.57L87.2775 65.0513C87.4312 65.1413 87.525 65.3025 87.525 65.4825V67.8225C87.525 67.9988 87.6187 68.1638 87.7725 68.2538C87.9262 68.3438 88.1175 68.34 88.2712 68.2538L93.1912 65.3925L93.1875 65.3963ZM34.8412 56.5875C35.1487 56.4113 35.5275 56.4113 35.835 56.5875L44.055 61.3313C44.3625 61.5075 44.55 61.8338 44.55 62.19V71.685C44.55 72.0413 44.3587 72.3675 44.055 72.5438L35.835 77.2913C35.5275 77.4675 35.1487 77.4675 34.8412 77.2913L26.6212 72.5438C26.3137 72.3675 26.1262 72.0375 26.1262 71.685V62.19C26.1262 61.8338 26.3137 61.5075 26.6212 61.3313L34.8412 56.5875ZM109.147 77.4263C108.866 77.4263 108.581 77.3513 108.334 77.2088L105.746 75.6788C105.36 75.4613 105.551 75.3863 105.675 75.3413C106.189 75.1613 106.294 75.12 106.845 74.8088C106.901 74.775 106.98 74.79 107.04 74.8238L109.027 76.005C109.099 76.0463 109.2 76.0463 109.267 76.005L117.019 71.5313C117.09 71.49 117.135 71.4075 117.135 71.3213V62.3738C117.135 62.2875 117.09 62.205 117.015 62.16L109.267 57.69C109.196 57.6488 109.099 57.6488 109.027 57.69L101.28 62.16C101.205 62.2013 101.156 62.2875 101.156 62.3738V71.3213C101.156 71.4075 101.205 71.4863 101.276 71.5275L103.399 72.7538C104.55 73.3313 105.255 72.6525 105.255 71.97V63.1388C105.255 63.015 105.356 62.9175 105.48 62.9175H106.462C106.586 62.9175 106.687 63.015 106.687 63.1388V71.97C106.687 73.5075 105.851 74.3888 104.392 74.3888C103.946 74.3888 103.59 74.3888 102.607 73.905L100.575 72.735C100.072 72.4463 99.7612 71.9025 99.7612 71.3213V62.3738C99.7612 61.7925 100.072 61.2488 100.575 60.96L108.326 56.4825C108.817 56.205 109.47 56.205 109.954 56.4825L117.705 60.96C118.207 61.2488 118.519 61.7925 118.519 62.3738V71.3213C118.519 71.9025 118.207 72.4425 117.705 72.735L109.954 77.2088C109.706 77.3513 109.425 77.4263 109.136 77.4263H109.147ZM111.544 71.265C108.15 71.265 107.441 69.7088 107.441 68.4C107.441 68.2763 107.539 68.1788 107.666 68.1788H108.667C108.78 68.1788 108.874 68.2613 108.889 68.37C109.039 69.39 109.489 69.9075 111.544 69.9075C113.175 69.9075 113.872 69.5363 113.872 68.6738C113.872 68.175 113.677 67.8038 111.139 67.5563C109.02 67.3463 107.707 66.8775 107.707 65.1825C107.707 63.6188 109.027 62.685 111.236 62.685C113.719 62.685 114.949 63.5475 115.102 65.3963C115.11 65.46 115.087 65.52 115.042 65.5688C114.997 65.6175 114.941 65.64 114.877 65.64H113.872C113.767 65.64 113.677 65.565 113.655 65.4638C113.415 64.3913 112.826 64.0463 111.236 64.0463C109.455 64.0463 109.245 64.6688 109.245 65.1338C109.245 65.7 109.489 65.8613 111.896 66.18C114.277 66.495 115.41 66.9413 115.41 68.6138C115.41 70.3013 114.004 71.2688 111.547 71.2688L111.544 71.265ZM84.3975 64.9538C84.4575 64.92 84.5287 64.92 84.5887 64.9538L86.1675 65.865C86.2275 65.8988 86.265 65.9625 86.265 66.03V67.8525C86.265 67.92 86.2275 67.9838 86.1675 68.0175L84.5887 68.9288C84.5287 68.9625 84.4575 68.9625 84.3975 68.9288L82.8225 68.0175C82.7625 67.9838 82.7287 67.92 82.7287 67.8525V66.03C82.7287 65.9625 82.7662 65.8988 82.8225 65.865L84.3975 64.9538Z" fill="#63D7FF"/>
</svg>
