<svg width="120" height="120" viewBox="0 0 120 120" fill="none" xmlns="http://www.w3.org/2000/svg">
<path d="M67.6351 0.495161C34.7751 -3.71984 4.71013 19.5002 0.495128 52.3652C-3.71987 85.2252 19.4951 115.285 52.3601 119.505C85.2251 123.72 115.295 100.5 119.5 67.6352C123.72 34.7752 100.505 4.71516 67.6351 0.495161ZM79.9901 37.9202C78.8767 37.9348 77.813 38.3832 77.0251 39.1702L54.7601 61.4352L53.2251 59.9002L50.0101 56.6852C71.9551 34.8052 75.9101 34.5952 79.9901 37.9202ZM55.6751 62.2252L77.8751 40.0252C78.1661 39.72 78.5163 39.4774 78.9042 39.3122C79.2922 39.147 79.7098 39.0627 80.1314 39.0644C80.5531 39.0661 80.9699 39.1539 81.3565 39.3222C81.7431 39.4906 82.0913 39.736 82.3797 40.0436C82.6682 40.3511 82.8909 40.7143 83.0342 41.1108C83.1775 41.5074 83.2384 41.929 83.2132 42.3499C83.1879 42.7708 83.0771 43.1822 82.8874 43.5587C82.6978 43.9353 82.4333 44.2693 82.1101 44.5402L58.6151 65.1652L55.6751 62.2252ZM57.3251 65.6952L51.8251 66.8852C51.7594 66.8999 51.6907 66.8922 51.6299 66.8632C51.5691 66.8342 51.5199 66.7856 51.4901 66.7252C51.4567 66.6674 51.4435 66.6002 51.4525 66.5341C51.4616 66.468 51.4924 66.4068 51.5401 66.3602L54.7651 63.1352L57.3251 65.6952ZM43.3101 63.4002L49.1701 57.5402L53.5651 61.9302L43.6701 64.0602C43.5877 64.0815 43.5004 64.0738 43.4229 64.0383C43.3455 64.0028 43.2827 63.9416 43.2451 63.8652C43.1985 63.7927 43.1795 63.7059 43.1914 63.6206C43.2033 63.5353 43.2454 63.4571 43.3101 63.4002ZM25.0801 93.6902C25.0301 93.6858 24.9815 93.6715 24.9371 93.6482C24.8926 93.625 24.8532 93.5931 24.8212 93.5545C24.7891 93.516 24.765 93.4714 24.7502 93.4234C24.7354 93.3755 24.7303 93.3251 24.7351 93.2752C24.7446 93.1882 24.7834 93.1071 24.8451 93.0452H24.8551L29.5851 88.3152L35.6951 94.4252L25.0801 93.6902ZM37.2051 87.4102C36.9784 87.5273 36.7976 87.717 36.6915 87.9491C36.5855 88.1812 36.5603 88.4421 36.6201 88.6902L37.6351 93.0152C37.6679 93.1484 37.6559 93.2888 37.601 93.4145C37.5461 93.5403 37.4513 93.6445 37.3313 93.711C37.2113 93.7776 37.0727 93.8028 36.937 93.7828C36.8012 93.7627 36.6758 93.6985 36.5801 93.6002H36.5651L31.8951 88.9302L30.4251 87.4552L49.2351 68.6652L58.3351 66.7002L62.7051 71.0702C56.4301 76.5802 47.8501 82.0752 37.2051 87.4102ZM63.6001 70.2701H63.5901L59.3951 66.0752L82.8901 45.4502C83.1074 45.2571 83.3066 45.0445 83.4851 44.8152C82.7451 51.5402 73.3401 61.0402 63.6001 70.2701ZM81.8851 37.9702L81.8701 37.9602C80.217 36.2992 79.2676 34.065 79.2191 31.7221C79.1707 29.3791 80.027 27.1076 81.61 25.3797C83.1931 23.6518 85.3811 22.6004 87.7194 22.4441C90.0576 22.2877 92.3661 23.0384 94.1651 24.5402L86.1151 32.6052C86.0593 32.6605 86.0151 32.7263 85.9849 32.7988C85.9546 32.8713 85.9391 32.9491 85.9391 33.0277C85.9391 33.1062 85.9546 33.184 85.9849 33.2565C86.0151 33.329 86.0593 33.3948 86.1151 33.4502L92.3501 39.6852C90.6459 40.5311 88.7191 40.8207 86.8414 40.513C84.9638 40.2053 83.2302 39.3159 81.8851 37.9702ZM94.7751 37.9702C94.3616 38.3785 93.9076 38.7437 93.4201 39.0602H93.4151L87.3801 33.0252L95.0451 25.3602C98.3501 28.9602 98.2301 34.5202 94.7751 37.9702ZM94.2751 30.2502C94.1549 30.3373 94.0648 30.4597 94.0173 30.6004C93.9699 30.741 93.9673 30.893 94.0101 31.0352C94.1882 31.3957 94.2579 31.8001 94.2108 32.1994C94.1638 32.5987 94.0021 32.9759 93.7451 33.2852C93.6879 33.3573 93.6454 33.4401 93.6202 33.5287C93.5949 33.6173 93.5874 33.71 93.5981 33.8015C93.6088 33.893 93.6375 33.9815 93.6824 34.062C93.7274 34.1424 93.7878 34.2131 93.8601 34.2702C93.9802 34.3643 94.1276 34.4169 94.2801 34.4202C94.3813 34.4193 94.4811 34.3964 94.5726 34.3533C94.6641 34.3101 94.7451 34.2477 94.8101 34.1702C95.2396 33.6542 95.5095 33.0243 95.5867 32.3574C95.664 31.6906 95.5453 31.0156 95.2451 30.4152C95.1928 30.34 95.126 30.276 95.0487 30.227C94.9713 30.1779 94.885 30.1447 94.7947 30.1294C94.7044 30.114 94.612 30.1168 94.5228 30.1375C94.4336 30.1583 94.3494 30.1966 94.2751 30.2502Z" fill="#63D7FF"/>
</svg>
