<svg width="120" height="120" viewBox="0 0 120 120" fill="none" xmlns="http://www.w3.org/2000/svg">
<path d="M60 49.305C58.5955 49.305 57.2048 49.5816 55.9072 50.1191C54.6096 50.6566 53.4306 51.4444 52.4375 52.4375C51.4444 53.4306 50.6566 54.6096 50.1191 55.9072C49.5816 57.2048 49.305 58.5955 49.305 60C49.305 61.4045 49.5816 62.7952 50.1191 64.0928C50.6566 65.3904 51.4444 66.5694 52.4375 67.5625C53.4306 68.5556 54.6096 69.3434 55.9072 69.8809C57.2048 70.4184 58.5955 70.695 60 70.695C61.4045 70.695 62.7952 70.4184 64.0928 69.8809C65.3904 69.3434 66.5694 68.5556 67.5625 67.5625C68.5556 66.5694 69.3434 65.3904 69.8809 64.0928C70.4184 62.7952 70.695 61.4045 70.695 60C70.695 58.5955 70.4184 57.2048 69.8809 55.9072C69.3434 54.6096 68.5556 53.4306 67.5625 52.4375C66.5694 51.4444 65.3904 50.6566 64.0928 50.1191C62.7952 49.5816 61.4045 49.305 60 49.305ZM30.04 81.275L27.68 80.675C10.09 76.23 0 68.685 0 59.98C0 51.275 10.09 43.73 27.68 39.285L30.04 38.69L30.705 41.03C32.4869 47.1686 34.7661 53.1517 37.52 58.92L38.025 59.985L37.52 61.05C34.7615 66.8163 32.4822 72.7999 30.705 78.94L30.04 81.275ZM26.585 44.75C13.215 48.505 5.01 54.25 5.01 59.98C5.01 65.705 13.215 71.45 26.585 75.21C28.2201 70.0097 30.1944 64.9221 32.495 59.98C30.1917 55.0391 28.2174 49.9513 26.585 44.75ZM89.96 81.275L89.295 78.93C87.5149 72.7918 85.2339 66.81 82.475 61.045L81.97 59.98L82.475 58.915C85.2328 53.1478 87.5138 47.1645 89.295 41.025L89.96 38.685L92.325 39.28C109.91 43.725 120 51.27 120 59.98C120 68.69 109.91 76.23 92.325 80.675L89.96 81.275ZM87.505 59.98C89.905 65.175 91.89 70.28 93.415 75.21C106.79 71.45 114.99 65.705 114.99 59.98C114.99 54.25 106.785 48.51 93.415 44.75C91.7821 49.9511 89.8078 55.0388 87.505 59.98ZM26.55 44.725L25.885 42.39C20.94 24.96 22.44 12.47 30 8.11002C37.415 3.83002 49.32 8.88502 61.795 21.69L63.495 23.435L61.795 25.18C57.3623 29.788 53.3122 34.7495 49.685 40.015L49.01 40.98L47.835 41.08C41.4545 41.583 35.1254 42.603 28.91 44.13L26.55 44.725ZM36.03 11.575C34.69 11.575 33.505 11.865 32.505 12.44C27.535 15.305 26.655 25.265 30.08 38.705C35.4082 37.5197 40.808 36.6829 46.245 36.2C49.3821 31.7394 52.8095 27.4902 56.505 23.48C48.705 15.885 41.32 11.575 36.03 11.575ZM83.975 113.385C83.97 113.385 83.97 113.385 83.975 113.385C76.85 113.385 67.7 108.02 58.205 98.27L56.505 96.525L58.205 94.78C62.6366 90.1705 66.685 85.2074 70.31 79.94L70.985 78.975L72.155 78.875C78.5387 78.3748 84.8713 77.3564 91.09 75.83L93.45 75.235L94.12 77.575C99.055 94.995 97.56 107.49 90 111.845C88.1637 112.883 86.0843 113.415 83.975 113.385ZM63.495 96.48C71.295 104.075 78.68 108.385 83.97 108.385H83.975C85.31 108.385 86.5 108.095 87.495 107.52C92.465 104.655 93.35 94.69 89.92 81.25C84.5904 82.437 79.1889 83.2738 73.75 83.755C70.6167 88.2187 67.1908 92.4697 63.495 96.48ZM93.45 44.725L91.09 44.13C84.8721 42.5986 78.5393 41.5785 72.155 41.08L70.985 40.98L70.31 40.015C66.6868 34.7478 62.6383 29.7862 58.205 25.18L56.505 23.435L58.205 21.69C70.675 8.89002 82.575 3.83502 90 8.11002C97.56 12.47 99.06 24.96 94.12 42.385L93.45 44.725ZM73.75 36.2C79.46 36.72 84.885 37.565 89.92 38.705C93.35 25.265 92.465 15.305 87.495 12.44C82.555 9.58502 73.27 13.96 63.495 23.48C67.1887 27.4904 70.6145 31.7396 73.75 36.2ZM36.03 113.385C33.919 113.416 31.8378 112.884 30 111.845C22.44 107.49 20.94 95 25.885 77.575L26.545 75.235L28.905 75.83C34.68 77.285 41.05 78.31 47.83 78.875L49.005 78.975L49.675 79.94C53.3028 85.2067 57.3528 90.1697 61.785 94.78L63.485 96.525L61.785 98.27C52.295 108.02 43.145 113.385 36.03 113.385ZM30.08 81.25C26.65 94.69 27.535 104.655 32.505 107.52C37.44 110.335 46.72 105.995 56.505 96.48C52.811 92.4668 49.3837 88.216 46.245 83.755C40.8077 83.2742 35.4078 82.4374 30.08 81.25ZM60 84.39C55.885 84.39 51.655 84.21 47.42 83.86L46.245 83.76L45.57 82.795C43.1745 79.353 40.9226 75.8133 38.82 72.185C36.7236 68.5538 34.7786 64.8373 32.99 61.045L32.49 59.98L32.99 58.915C34.7783 55.1226 36.7233 51.4061 38.82 47.775C40.89 44.195 43.165 40.625 45.57 37.165L46.245 36.2L47.42 36.1C55.7933 35.39 64.2117 35.39 72.585 36.1L73.755 36.2L74.425 37.165C79.2208 44.0503 83.4306 51.3258 87.01 58.915L87.515 59.98L87.01 61.045C83.4392 68.6387 79.229 75.9149 74.425 82.795L73.755 83.76L72.585 83.86C68.35 84.21 64.115 84.39 60 84.39ZM49.015 78.97C56.415 79.525 63.585 79.525 70.99 78.97C75.1241 72.9263 78.7946 66.5781 81.97 59.98C78.8003 53.3779 75.1278 47.0292 70.985 40.99C63.6722 40.435 56.3278 40.435 49.015 40.99C44.8704 47.0281 41.1978 53.3769 38.03 59.98C41.2088 66.5773 44.8809 72.9253 49.015 78.97Z" fill="#63D7FF"/>
</svg>
