<svg width="120" height="120" viewBox="0 0 120 120" fill="none" xmlns="http://www.w3.org/2000/svg">
<g clip-path="url(#clip0_217_180)">
<path d="M103.249 66.735C103.395 66.7312 103.567 66.7275 103.744 66.7275C106.871 66.7275 109.83 67.455 112.455 68.7525L112.339 68.7C114.731 69.8662 116.696 71.5912 118.117 73.7062L118.151 73.7587C119.272 75.3937 119.94 77.415 119.94 79.59C119.94 79.7475 119.936 79.905 119.929 80.0588V80.0363C119.812 82.2075 118.826 84.1237 117.311 85.4662L117.304 85.4737C116.475 86.2875 115.474 86.925 114.36 87.33L114.304 87.3487C113.679 87.4737 113.335 87.38 113.272 87.0675C113.21 86.755 113.491 86.4113 114.116 86.0363C115.811 85.0088 117.037 83.3512 117.484 81.3975L117.495 81.3488C117.506 81.1913 117.514 81.0075 117.514 80.82C117.514 79.6537 117.236 78.5513 116.745 77.5763L116.764 77.6175C115.95 75.9188 114.735 74.5238 113.239 73.515L113.201 73.4925C110.962 72.0525 108.277 71.1075 105.39 70.8713L105.33 70.8675C104.347 70.7212 103.215 70.6387 102.06 70.6387C99.0562 70.6387 96.1874 71.205 93.5474 72.2362L93.705 72.18C94.2487 73.4513 94.59 74.925 94.6387 76.47V76.4887C94.5787 79.6575 92.8762 82.4137 90.3449 83.9512L90.3037 83.9737C89.1412 84.7988 87.8137 85.5225 86.4 86.085L86.2687 86.13C85.41 86.55 84.4012 86.7938 83.3362 86.7938C83.2124 86.7938 83.0925 86.79 82.9725 86.7825H82.9912C80.6187 86.285 80.0562 84.2225 81.3037 80.595C81.8475 79.0163 82.6087 77.6475 83.5724 76.4438L83.55 76.47C84.7837 74.8575 86.1375 73.4438 87.6337 72.1912L87.6749 72.1575L87.3074 71.61C86.6212 70.44 85.9912 69.0788 85.485 67.6575L85.4324 67.485C85.0574 66.235 84.7449 65.0487 84.4949 63.9263L84.3075 62.6137L82.4325 66.1725C80.8075 69.1725 79.245 71.7962 77.745 74.0438L77.1825 74.9813C77.8125 76.5112 78.2775 78.285 78.4875 80.1375L78.4949 80.2313C78.5099 80.4075 78.5175 80.6175 78.5175 80.8275C78.5175 83.67 77.115 86.1825 74.9625 87.7163L74.9362 87.735C73.9087 88.3688 72.6824 89.025 71.4112 89.61L71.1862 89.7038C69.8625 90.2775 68.3287 90.6525 66.72 90.735H66.6862C66.5625 90.7425 66.4162 90.75 66.27 90.75C65.3325 90.75 64.4437 90.5362 63.6487 90.1575L63.6862 90.1725C63.21 89.7637 62.91 89.1637 62.91 88.4925C62.91 88.1512 62.9887 87.825 63.1275 87.5363L63.12 87.5513C64.62 85.4475 66.0975 83.6175 67.6687 81.87L67.62 81.9263L71.745 76.68L70.9987 74.9925C70.3987 73.89 69.825 72.5887 69.3637 71.2388L69.3112 71.0588C68.9362 69.8088 68.6237 68.6225 68.3737 67.5L68.1862 66.1875L66.3112 70.6875C64.8137 74.185 63.4387 77.1838 62.1862 79.6838C60.3187 83.4338 58.7562 86.3087 57.4987 88.3087L57.1237 88.8712C55.6262 91.2437 54.1887 92.43 52.8112 92.43C51.4337 92.43 50.5 91.555 50.01 89.805C49.65 88.515 49.44 87.0338 49.44 85.5038C49.44 85.3688 49.44 85.2337 49.4437 85.0988V85.1175L49.8187 82.4925V82.68C48.8187 85.0525 47.8187 87.2388 46.8187 89.2388C46.155 90.5363 45.4725 91.6425 44.7075 92.685L44.7562 92.6138C43.9837 93.4238 42.8962 93.9263 41.6925 93.9263C41.6812 93.9263 41.6737 93.9263 41.6625 93.9263C41.5837 93.9338 41.4937 93.9337 41.4037 93.9337C40.455 93.9337 39.5925 93.5737 38.94 92.985L38.9437 92.9888C37.635 91.6463 36.6637 89.97 36.1612 88.0987L36.1425 88.02C35.5275 86.3138 35.175 84.3413 35.175 82.2863C35.175 82.02 35.1825 81.7575 35.1937 81.4987V81.5362C35.49 78.5513 36.0862 75.8175 36.96 73.2113L36.8812 73.4775L30.135 77.415V77.6025C31.1137 79.635 31.6875 82.02 31.6875 84.54C31.6875 85.0013 31.6687 85.4587 31.6312 85.9088L31.635 85.8487C31.4362 89.7113 30.2025 93.2475 28.2112 96.2363L28.26 96.1612C26.1712 99.4762 23.16 102.037 19.5825 103.519L19.4587 103.564C17.445 104.467 15.09 104.996 12.615 104.996C11.0475 104.996 9.52496 104.786 8.08496 104.389L8.20496 104.415C7.01246 104.014 6.03747 103.219 5.41872 102.191L5.40747 102.169C4.53372 100.901 3.98247 99.3525 3.89622 97.6837V97.6612C3.85497 97.2825 3.83247 96.8438 3.83247 96.3975C3.83247 94.4737 4.27122 92.6513 5.05497 91.0275L5.02122 91.1025C7.17372 87.4313 10.1512 84.4575 13.7062 82.365L13.8187 82.305C16.335 80.5612 19.2262 78.87 22.245 77.3962L22.6425 77.22L23.58 76.6575C22.455 75.7825 20.3925 74.2825 17.3925 72.1575C13.3837 69.4725 9.89997 66.7612 6.61497 63.8288L6.70872 63.9113C3.53247 61.1775 1.21872 57.525 0.179966 53.3662L0.149966 53.2238C0.0524658 52.6462 -0.00378418 51.9825 -0.00378418 51.3075C-0.00378418 49.1925 0.539966 47.205 1.49247 45.4762L1.46247 45.54C3.56247 41.025 6.47246 37.2188 10.0425 34.1588L10.0875 34.1213C13.95 30.4725 18.3225 27.2962 23.07 24.7238L23.3962 24.5625C27.6375 22.1137 32.5912 19.8375 37.755 18.0113L38.3925 17.8162C43.1887 16.0612 48.7275 15.0338 54.5025 15.015H54.51C54.7725 15.0075 55.0837 15 55.395 15C60.0487 15 64.4512 16.0762 68.3662 17.9925L68.1937 17.9137C71.5687 19.4513 74.0962 22.3463 75.1087 25.8863L75.1312 25.9762C75.4425 27.1838 75.6187 28.5712 75.6187 30C75.6187 32.37 75.1275 34.6275 74.2462 36.675L74.2875 36.5662C72.6824 40.455 70.3987 43.7662 67.5487 46.4925L67.5375 46.5037C64.65 49.365 61.1887 51.6525 57.345 53.1787L57.1387 53.25C53.1112 54.9787 48.435 56.0662 43.5262 56.2463L43.455 56.25C42.735 56.3325 41.9025 56.3775 41.0587 56.3775C38.8387 56.3775 36.6975 56.0588 34.6725 55.4625L34.8337 55.5037C33.0225 54.9263 31.4587 54.03 30.1312 52.8675L30.1462 52.8787C29.2162 52.1213 28.4587 51.1875 27.9187 50.1262L27.8962 50.0775C27.5212 49.0775 27.49 48.4837 27.8025 48.2962C28.115 48.1087 28.3337 48.0775 28.4587 48.2025L29.3962 49.14C30.4425 50.1113 31.6912 50.8762 33.0712 51.3637L33.1462 51.3862C35.0437 52.0462 37.2337 52.4287 39.51 52.4287C40.2412 52.4287 40.9612 52.3913 41.67 52.3125L41.5837 52.32C47.6512 51.6037 53.1225 49.5337 57.8437 46.4212L57.705 46.5075C61.695 44.1338 64.9237 40.8713 67.1962 36.9825L67.2637 36.855C68.3925 35.1975 69.0675 33.15 69.0675 30.945C69.0675 29.5912 68.8125 28.2937 68.3475 27.1012L68.3737 27.1725C66.9712 24.9563 64.7025 23.3963 62.055 22.965L62.0025 22.9575C59.9475 22.4513 57.585 22.1588 55.1587 22.1588C53.205 22.1588 51.2925 22.3463 49.4437 22.7063L49.6312 22.6762C43.305 23.8162 37.65 25.77 32.4337 28.455L32.775 28.2938C17.405 36.0438 9.46871 43.98 8.96621 52.1025V52.2863C8.96621 55.56 10.2525 58.5337 12.3487 60.7312L12.345 60.7275C14.7337 63.3825 17.3737 65.7262 20.2575 67.7513L20.4037 67.8488C23.0325 69.8138 25.3575 71.8425 27.5212 74.0325L27.525 74.04L27.9 74.415L39.9 67.8563C41.2687 65.8763 42.915 64.2038 44.805 62.8537L44.865 62.8125C46.365 61.5525 48.27 60.7313 50.3587 60.5662L50.3925 60.5625C50.4675 60.555 50.5537 60.555 50.6437 60.555C52.0425 60.555 53.2425 61.3988 53.76 62.6062L53.7675 62.6287C54.1612 63.51 54.39 64.5412 54.39 65.625C54.39 65.955 54.3675 66.2812 54.3262 66.6037L54.33 66.5662L53.9662 68.415L54.5287 68.04C54.9187 67.7438 55.41 67.5675 55.9425 67.5675C56.28 67.5675 56.5987 67.6388 56.8875 67.7663L56.8725 67.7588C57.5925 67.9463 58.1137 68.5913 58.1137 69.3563C58.1137 69.4875 58.0987 69.615 58.0687 69.7388L58.0725 69.7275L57.51 71.79C56.385 76.2875 55.6362 79.5362 55.2637 81.5362C55.0762 82.185 54.9712 82.9312 54.9712 83.7038C54.9712 83.865 54.975 84.0225 54.9862 84.18V84.1575C55.0487 84.9075 55.1425 85.2825 55.2675 85.2825C55.3925 85.2825 55.6412 84.9075 56.0137 84.1575L56.5762 82.845C56.7012 82.845 56.7012 82.9075 56.5762 83.0325L58.6387 78.72C63.5137 67.975 66.1375 61.975 66.51 60.72L67.6349 57.1613C67.7599 56.9113 68.26 56.6625 69.135 56.415C70.0237 56.175 71.04 56.0363 72.09 56.0363C72.1762 56.0363 72.2625 56.0363 72.345 56.04H72.3337C74.0837 56.04 74.9587 56.4775 74.9587 57.3525L74.7712 58.29C74.3512 59.445 73.935 60.8887 73.6124 62.3662L73.5712 62.6025C73.4962 63.0863 73.4512 63.6413 73.4512 64.2113C73.4512 64.9688 73.5262 65.7075 73.6725 66.4238L73.6612 66.3525L73.8487 67.0987C74.2312 68.6625 74.8125 70.035 75.5737 71.2875L75.5362 71.2238C77.0337 68.7262 78.4712 66.165 79.8487 63.54C80.9362 61.7288 81.9487 59.6287 82.7625 57.4312L82.8487 57.1688C83.13 55.755 83.4525 54.5625 83.8462 53.4L83.7862 53.61C83.9112 53.235 84.445 52.9538 85.3875 52.7663C86.28 52.5863 87.3037 52.485 88.35 52.485H88.485H88.4775C90.2275 52.485 91.1612 52.9225 91.2787 53.7975L90.9037 54.5438C90.4575 55.8037 90.0675 57.3187 89.805 58.875L89.7824 59.0438C89.7487 59.4075 89.7262 59.8275 89.7262 60.255C89.7262 61.1512 89.8162 62.0288 89.985 62.8763L89.97 62.79V63.5363C90.4012 65.1712 91.0425 66.6075 91.8825 67.9088L91.845 67.8488L92.4075 69.1613C95.5387 67.6237 99.2212 66.7238 103.114 66.7238H103.26H103.252L103.249 66.735ZM22.8525 93.9337C25.4587 91.2412 27.0675 87.5662 27.0675 83.5163C27.0675 81.9525 26.8275 80.445 26.385 79.0275L26.415 79.1325L23.415 81.0075C20.355 82.7512 17.7075 84.6975 15.3112 86.91L15.3412 86.8838C13.5225 88.5563 12.18 90.72 11.52 93.1613L11.4975 93.255C10.935 95.5675 11.2162 97.0675 12.3412 97.755C13.0275 98.07 13.8337 98.2538 14.6775 98.2538C15.6 98.2538 16.4737 98.0362 17.2425 97.6462L17.2087 97.6612C19.4362 96.8512 21.3225 95.565 22.8225 93.9187L22.8337 93.9075L22.8525 93.9337ZM47.9662 76.6687C48.5912 75.0437 49.2787 73.1063 50.0287 70.8563C51.0287 67.8563 51.3725 66.1075 51.06 65.61C50.7475 65.1125 50.1537 65.05 49.2787 65.4225C48.2362 65.9287 47.3625 66.6225 46.665 67.4738L46.6537 67.4888C45.8737 68.475 45.1312 69.5775 44.4712 70.7362L44.4037 70.8638C43.6462 72.105 43.005 73.5338 42.5587 75.0488L42.525 75.1763C41.8012 77.1375 41.3812 79.4062 41.3812 81.7688C41.3812 82.0875 41.3887 82.4025 41.4037 82.7175V82.6725C41.5287 85.17 41.9287 86.5137 42.6037 86.7038C43.2787 86.8938 44.06 85.9875 44.9475 83.985C45.8062 82.4362 46.5712 80.6363 47.1412 78.75L47.1937 78.5475C47.5662 77.6625 47.8212 77.0362 47.9587 76.6687H47.9662ZM68.7637 86.6062C71.3625 85.44 73.1925 82.9837 73.4475 80.0775L73.4512 80.0475V79.86L71.3887 82.485L67.6425 86.61C67.5862 86.655 67.5487 86.7225 67.5487 86.7975C67.5487 86.8725 67.5862 86.94 67.6387 86.985C67.7587 87.1075 68.1337 86.9825 68.7637 86.61V86.6062ZM84.8849 83.0438C87.7199 82.2337 89.76 79.665 89.76 76.6238C89.76 76.575 89.76 76.5262 89.76 76.4775V76.485C89.7225 75.735 89.5874 75.03 89.3662 74.3625L89.3812 74.4188C87.9224 75.7163 86.7262 77.2688 85.86 79.02L85.8187 79.1062C84.6912 81.3537 84.3762 82.6637 84.8737 83.0362L84.8849 83.0438Z" fill="#63D7FF"/>
</g>
<defs>
<clipPath id="clip0_217_180">
<rect width="120" height="120" fill="white"/>
</clipPath>
</defs>
</svg>
