<svg width="120" height="120" viewBox="0 0 120 120" fill="none" xmlns="http://www.w3.org/2000/svg">
<g clip-path="url(#clip0_217_178)">
<path d="M60.005 24C44.005 24 34.005 32 30.005 48C36.005 40 43.005 37 51.005 39C55.57 40.14 58.83 43.45 62.445 47.12C68.33 53.09 75.135 60 90.005 60C106.005 60 116.005 52 120.005 36C114.005 44 107.005 47 99.005 45C94.44 43.86 91.18 40.55 87.565 36.88C81.685 30.91 74.88 24 60.005 24ZM30.005 60C14.005 60 4.005 68 0.00500488 84C6.005 76 13.005 73 21.005 75C25.57 76.14 28.83 79.45 32.445 83.12C38.33 89.09 45.135 96 60.005 96C76.005 96 86.005 88 90.005 72C84.005 80 77.005 83 69.005 81C64.44 79.86 61.18 76.55 57.565 72.88C51.685 66.91 44.88 60 30.005 60Z" fill="#63D7FF"/>
</g>
<defs>
<clipPath id="clip0_217_178">
<rect width="120" height="120" fill="white"/>
</clipPath>
</defs>
</svg>
