<svg width="120" height="120" viewBox="0 0 120 120" fill="none" xmlns="http://www.w3.org/2000/svg">
<g clip-path="url(#clip0_219_15)">
<path d="M1.14171 41.8457C1.14171 41.8457 -1.78106 39.7161 1.72626 36.8726L9.8978 29.4867C9.8978 29.4867 12.2361 27.0001 14.7082 29.1666L90.1155 86.875V114.547C90.1155 114.547 90.079 118.892 84.562 118.412L1.14171 41.8457Z" fill="#63D7FF"/>
<path d="M20.5777 59.6835L1.14132 77.5445C1.14132 77.5445 -0.855907 79.0465 1.14132 81.73L10.1654 90.0265C10.1654 90.0265 12.3087 92.353 15.4751 89.7065L36.0805 73.9135L20.5777 59.6835Z" fill="#63D7FF"/>
<path d="M54.7 59.8305L90.3455 32.3181L90.114 4.79322C90.114 4.79322 88.5915 -1.21399 83.5135 1.91271L36.0795 45.5512L54.7 59.8305Z" fill="#63D7FF"/>
<path d="M84.5606 118.45C86.6306 120.592 89.1396 119.89 89.1396 119.89L116.919 106.054C120.476 103.604 119.976 100.564 119.976 100.564V17.9402C119.976 14.3088 116.298 13.0532 116.298 13.0532L92.2205 1.32188C86.9595 -1.96484 83.5135 1.91274 83.5135 1.91274C83.5135 1.91274 87.9461 -1.31242 90.1141 4.79325V114.043C90.1141 114.794 89.9555 115.533 89.639 116.197C89.0055 117.49 87.6296 118.696 84.3291 118.192L84.5606 118.45Z" fill="#63D7FF"/>
</g>
<defs>
<clipPath id="clip0_219_15">
<rect width="120" height="120" fill="white"/>
</clipPath>
</defs>
</svg>
