<svg width="120" height="120" viewBox="0 0 120 120" fill="none" xmlns="http://www.w3.org/2000/svg">
<path d="M40.016 21.8922C40.016 21.8922 35.5689 24.6308 35.5689 30.0996C35.5689 35.5769 35.5689 57.4349 35.5689 57.4349C35.5689 57.4349 35.5689 62.9122 31.1218 60.1736C26.6747 57.4349 26.6747 51.9661 26.6747 51.9661C26.6747 51.9661 26.6747 30.0996 26.6747 24.6308C26.6747 24.2895 26.6907 23.9568 26.7227 23.6326C27.2106 18.8208 31.1138 16.4149 31.1138 16.4149L22.2276 10.9461C22.2276 10.9461 22.2196 10.9461 22.2116 10.9546C21.9476 11.1167 17.7804 13.8554 17.7804 19.1535C17.7804 24.6308 17.7804 46.4888 17.7804 46.4888C17.7804 46.4888 17.7804 51.9661 13.3333 49.2275C8.88622 46.4888 8.88622 41.0201 8.88622 41.0201C8.88622 41.0201 8.88622 19.1535 8.88622 13.6847C8.88622 8.21596 13.3333 5.4773 13.3333 5.4773L4.44711 0C4.44711 0 0 2.73865 0 8.20743C0 13.6847 0 35.5428 0 35.5428C0 35.5428 0 51.9661 13.3333 60.1736C17.4205 62.6904 20.2519 62.8866 22.2196 61.9567C24.1872 65.3096 27.0186 68.6028 31.1058 71.1196C44.4391 79.3271 44.4391 62.9122 44.4391 62.9122C44.4391 62.9122 44.4391 41.0457 44.4391 35.5769C44.4391 30.0996 48.8862 27.3695 48.8862 27.3695C47.5192 25.5353 46.3037 24.2896 45.2397 23.6326C44.3326 23.0725 42.5913 22.4923 40.016 21.8922Z" fill="#63D7FF"/>
<path d="M88.8942 68.4066C88.8942 52.1965 102.228 60.1992 102.228 60.1992L120 71.1452V82.0913L102.228 71.1452C102.228 71.1452 102.172 71.1107 102.072 71.0572L102.014 71.0262C101.126 70.5634 97.7804 69.1343 97.7804 73.8924C97.7804 79.3612 102.228 82.0998 102.228 82.0998L111.114 87.5686C111.114 87.5686 120 93.0459 120 109.461C120 125.876 106.667 117.668 106.667 117.668L88.8942 106.722V95.776L106.675 106.722C106.675 106.722 111.122 109.461 111.122 103.983C111.122 98.5147 106.675 95.776 106.675 95.776L102.228 93.0374C101.962 92.8682 88.8942 84.4546 88.8942 68.4066ZM75.5609 43.7843C78.2183 44.1101 80.0199 44.5644 80.9655 45.1473C81.9946 45.7816 83.1551 47.153 84.4471 49.2616C84.4471 49.2616 80 52.0003 80 57.469L79.9996 84.8476C79.988 85.7671 79.6 100.973 66.6666 93.0118C53.7333 85.0506 53.3453 69.359 53.3337 68.4247L53.3333 68.381L62.2195 73.8583L62.2197 73.8766C62.2246 74.2239 62.3694 79.4194 66.6666 82.0657C70.9776 84.7205 71.1096 79.6547 71.1136 79.3421L71.1138 51.9917C71.1138 46.523 75.5609 43.7843 75.5609 43.7843ZM53.3493 46.5827L62.2355 52.0514V62.9975L53.3493 57.5288V46.5827Z" fill="#63D7FF"/>
<path d="M102.228 21.8921C98.1324 19.3668 94.4611 18.1382 91.3337 17.6434C90.5179 15.7408 88.5183 13.5055 84.4551 11.0314C71.1218 2.90926 57.7964 10.9461 57.7964 10.9461L40.016 21.8921L48.9022 27.3609L66.6747 16.4148C66.6747 16.4148 71.1218 13.6762 75.5609 16.4148C80.008 19.1535 75.5609 21.8921 75.5609 21.8921L57.7884 32.8382L66.6747 38.307L84.4631 27.3524C84.727 27.1903 89.0302 24.7076 93.3333 27.3609C97.7804 30.0996 93.3333 32.8297 93.3333 32.8297L75.5609 43.7758L84.4471 49.2531L106.667 35.5683C106.667 35.5683 115.553 30.0996 102.228 21.8921Z" fill="#63D7FF"/>
</svg>
